G04 #@! TF.GenerationSoftware,KiCad,Pcbnew,8.0.4*
G04 #@! TF.CreationDate,2025-05-04T21:26:18-04:00*
G04 #@! TF.ProjectId,openduck,6f70656e-6475-4636-9b2e-6b696361645f,rev?*
G04 #@! TF.SameCoordinates,Original*
G04 #@! TF.FileFunction,Copper,L2,Bot*
G04 #@! TF.FilePolarity,Positive*
%FSLAX46Y46*%
G04 Gerber Fmt 4.6, Leading zero omitted, Abs format (unit mm)*
G04 Created by KiCad (PCBNEW 8.0.4) date 2025-05-04 21:26:18*
%MOMM*%
%LPD*%
G01*
G04 APERTURE LIST*
G04 Aperture macros list*
%AMRoundRect*
0 Rectangle with rounded corners*
0 $1 Rounding radius*
0 $2 $3 $4 $5 $6 $7 $8 $9 X,Y pos of 4 corners*
0 Add a 4 corners polygon primitive as box body*
4,1,4,$2,$3,$4,$5,$6,$7,$8,$9,$2,$3,0*
0 Add four circle primitives for the rounded corners*
1,1,$1+$1,$2,$3*
1,1,$1+$1,$4,$5*
1,1,$1+$1,$6,$7*
1,1,$1+$1,$8,$9*
0 Add four rect primitives between the rounded corners*
20,1,$1+$1,$2,$3,$4,$5,0*
20,1,$1+$1,$4,$5,$6,$7,0*
20,1,$1+$1,$6,$7,$8,$9,0*
20,1,$1+$1,$8,$9,$2,$3,0*%
G04 Aperture macros list end*
G04 #@! TA.AperFunction,ComponentPad*
%ADD10RoundRect,0.250000X0.725000X-0.600000X0.725000X0.600000X-0.725000X0.600000X-0.725000X-0.600000X0*%
G04 #@! TD*
G04 #@! TA.AperFunction,ComponentPad*
%ADD11O,1.950000X1.700000*%
G04 #@! TD*
G04 #@! TA.AperFunction,ComponentPad*
%ADD12RoundRect,0.250000X0.600000X0.750000X-0.600000X0.750000X-0.600000X-0.750000X0.600000X-0.750000X0*%
G04 #@! TD*
G04 #@! TA.AperFunction,ComponentPad*
%ADD13O,1.700000X2.000000*%
G04 #@! TD*
G04 #@! TA.AperFunction,ComponentPad*
%ADD14RoundRect,0.250000X0.750000X-0.600000X0.750000X0.600000X-0.750000X0.600000X-0.750000X-0.600000X0*%
G04 #@! TD*
G04 #@! TA.AperFunction,ComponentPad*
%ADD15O,2.000000X1.700000*%
G04 #@! TD*
G04 #@! TA.AperFunction,ComponentPad*
%ADD16R,1.700000X1.700000*%
G04 #@! TD*
G04 #@! TA.AperFunction,ComponentPad*
%ADD17O,1.700000X1.700000*%
G04 #@! TD*
G04 #@! TA.AperFunction,ViaPad*
%ADD18C,0.800000*%
G04 #@! TD*
G04 #@! TA.AperFunction,Conductor*
%ADD19C,0.500000*%
G04 #@! TD*
G04 #@! TA.AperFunction,Conductor*
%ADD20C,0.250000*%
G04 #@! TD*
G04 APERTURE END LIST*
D10*
X210150000Y-49770000D03*
D11*
X210150000Y-47270000D03*
X210150000Y-44770000D03*
D10*
X196650000Y-81970000D03*
D11*
X196650000Y-79470000D03*
X196650000Y-76970000D03*
D10*
X203400000Y-52270000D03*
D11*
X203400000Y-49770000D03*
X203400000Y-47270000D03*
X203400000Y-44770000D03*
D12*
X204350000Y-90820000D03*
D13*
X201850000Y-90820000D03*
D10*
X210160000Y-36520000D03*
D11*
X210160000Y-34020000D03*
X210160000Y-31520000D03*
D10*
X210150000Y-69070000D03*
D11*
X210150000Y-66570000D03*
X210150000Y-64070000D03*
X210150000Y-61570000D03*
X210150000Y-59070000D03*
D10*
X203410000Y-36520000D03*
D11*
X203410000Y-34020000D03*
X203410000Y-31520000D03*
D10*
X196650000Y-52270000D03*
D11*
X196650000Y-49770000D03*
X196650000Y-47270000D03*
X196650000Y-44770000D03*
D12*
X212750000Y-90820000D03*
D13*
X210250000Y-90820000D03*
D10*
X210150000Y-81960000D03*
D11*
X210150000Y-79460000D03*
X210150000Y-76960000D03*
D14*
X196650000Y-69070000D03*
D15*
X196650000Y-66570000D03*
D10*
X203400000Y-81960000D03*
D11*
X203400000Y-79460000D03*
X203400000Y-76960000D03*
D14*
X196650000Y-60670000D03*
D15*
X196650000Y-58170000D03*
D16*
X217540000Y-36990000D03*
D17*
X220080000Y-36990000D03*
X217540000Y-39530000D03*
X220080000Y-39530000D03*
X217540000Y-42070000D03*
X220080000Y-42070000D03*
X217540000Y-44610000D03*
X220080000Y-44610000D03*
X217540000Y-47150000D03*
X220080000Y-47150000D03*
X217540000Y-49690000D03*
X220080000Y-49690000D03*
X217540000Y-52230000D03*
X220080000Y-52230000D03*
X217540000Y-54770000D03*
X220080000Y-54770000D03*
X217540000Y-57310000D03*
X220080000Y-57310000D03*
X217540000Y-59850000D03*
X220080000Y-59850000D03*
X217540000Y-62390000D03*
X220080000Y-62390000D03*
X217540000Y-64930000D03*
X220080000Y-64930000D03*
X217540000Y-67470000D03*
X220080000Y-67470000D03*
X217540000Y-70010000D03*
X220080000Y-70010000D03*
X217540000Y-72550000D03*
X220080000Y-72550000D03*
X217540000Y-75090000D03*
X220080000Y-75090000D03*
X217540000Y-77630000D03*
X220080000Y-77630000D03*
X217540000Y-80170000D03*
X220080000Y-80170000D03*
X217540000Y-82710000D03*
X220080000Y-82710000D03*
X217540000Y-85250000D03*
X220080000Y-85250000D03*
D18*
X214800000Y-47150000D03*
X194130000Y-80960000D03*
X205860000Y-83990000D03*
X206280000Y-38560000D03*
X215000000Y-84790000D03*
X207280000Y-38570000D03*
X204240000Y-69050000D03*
X196640000Y-42780000D03*
X207280000Y-35020000D03*
X207290000Y-34020000D03*
X201060000Y-66080000D03*
X205240000Y-70360000D03*
X214990000Y-85780000D03*
X207300000Y-33020000D03*
X214790000Y-48150000D03*
X197640000Y-42790000D03*
X205600000Y-53270000D03*
X214810000Y-46150000D03*
X194110000Y-82960000D03*
X205600000Y-51270000D03*
X207860000Y-86980000D03*
X194120000Y-81960000D03*
X204400000Y-63090000D03*
X212910000Y-70070000D03*
X195640000Y-42770000D03*
X215010000Y-83790000D03*
X201390000Y-58310000D03*
X212910000Y-69070000D03*
X214790000Y-50950000D03*
X204240000Y-70360000D03*
X205860000Y-86980000D03*
X204400000Y-64090000D03*
X203240000Y-70360000D03*
X206860000Y-83990000D03*
X214810000Y-40290000D03*
X212900000Y-60410000D03*
X194100000Y-83950000D03*
X207860000Y-83990000D03*
X205600000Y-52270000D03*
X212900000Y-61410000D03*
X204400000Y-62090000D03*
X205240000Y-69050000D03*
X198520000Y-51010000D03*
X214820000Y-39290000D03*
X201390000Y-59310000D03*
X212910000Y-68070000D03*
X203240000Y-69050000D03*
X208280000Y-38580000D03*
X198510000Y-53500000D03*
X214830000Y-38290000D03*
X201390000Y-60310000D03*
X215020000Y-82790000D03*
X212900000Y-59410000D03*
X206860000Y-86980000D03*
X216480000Y-76350000D03*
X213275000Y-42070000D03*
X211375000Y-42070000D03*
X216490000Y-73820000D03*
X213275000Y-43070003D03*
X211375000Y-43070003D03*
X220960000Y-81430000D03*
X210925001Y-52445304D03*
X213275000Y-52440000D03*
X210925000Y-51420000D03*
X213275000Y-51420000D03*
D19*
X213580000Y-57310000D02*
X217540000Y-57310000D01*
X206040000Y-49770000D02*
X213580000Y-57310000D01*
X203400000Y-49770000D02*
X206040000Y-49770000D01*
D20*
X218810000Y-83980000D02*
X218810000Y-78900000D01*
X217540000Y-85250000D02*
X218810000Y-83980000D01*
X218810000Y-78900000D02*
X220080000Y-77630000D01*
X218220000Y-76350000D02*
X218820000Y-75750000D01*
X218820000Y-75750000D02*
X218820000Y-74410000D01*
X219370000Y-73860000D02*
X220720000Y-73860000D01*
X221685000Y-48755000D02*
X220080000Y-47150000D01*
X220720000Y-73860000D02*
X221685000Y-72895000D01*
X221685000Y-72895000D02*
X221685000Y-48755000D01*
X216480000Y-76350000D02*
X218220000Y-76350000D01*
X218820000Y-74410000D02*
X219370000Y-73860000D01*
X213275000Y-42070000D02*
X211375000Y-42070000D01*
X218820000Y-70690000D02*
X218820000Y-45870000D01*
X218530000Y-73500000D02*
X218210000Y-73820000D01*
X218210000Y-73820000D02*
X216490000Y-73820000D01*
X218820000Y-45870000D02*
X220080000Y-44610000D01*
X218820000Y-73210000D02*
X218530000Y-73500000D01*
X218820000Y-70690000D02*
X218820000Y-73210000D01*
D19*
X202420000Y-66570000D02*
X210150000Y-66570000D01*
X199790000Y-69200000D02*
X202420000Y-66570000D01*
X199790000Y-88430000D02*
X199790000Y-80830000D01*
X201850000Y-90820000D02*
X201850000Y-90490000D01*
X201950000Y-36520000D02*
X203410000Y-36520000D01*
X220080000Y-39530000D02*
X220080000Y-36990000D01*
X210130000Y-49770000D02*
X210150000Y-49770000D01*
X199790000Y-80830000D02*
X199790000Y-69200000D01*
X214120000Y-35470000D02*
X218560000Y-35470000D01*
X199790000Y-80830000D02*
X201160000Y-79460000D01*
X210160000Y-36520000D02*
X213070000Y-36520000D01*
X205410000Y-42440000D02*
X207230000Y-44260000D01*
X213070000Y-36520000D02*
X214120000Y-35470000D01*
X199790000Y-44070000D02*
X199790000Y-38680000D01*
X199790000Y-69200000D02*
X199790000Y-44070000D01*
X218560000Y-35470000D02*
X220080000Y-36990000D01*
X201160000Y-79460000D02*
X210150000Y-79460000D01*
X207230000Y-46870000D02*
X210130000Y-49770000D01*
X199790000Y-38680000D02*
X201950000Y-36520000D01*
X207230000Y-44260000D02*
X207230000Y-46870000D01*
X203410000Y-36520000D02*
X210160000Y-36520000D01*
X199790000Y-44070000D02*
X201420000Y-42440000D01*
X201850000Y-90490000D02*
X199790000Y-88430000D01*
X201420000Y-42440000D02*
X205410000Y-42440000D01*
D20*
X211375000Y-43070003D02*
X213275000Y-43070003D01*
X221685000Y-76695000D02*
X221685000Y-78110000D01*
X220080000Y-75090000D02*
X221685000Y-76695000D01*
X221685000Y-80705000D02*
X220960000Y-81430000D01*
X221685000Y-78110000D02*
X221685000Y-80705000D01*
X210925001Y-52445304D02*
X213269696Y-52445304D01*
X213269696Y-52445304D02*
X213275000Y-52440000D01*
X210925000Y-51420000D02*
X213275000Y-51420000D01*
G04 #@! TA.AperFunction,Conductor*
G36*
X217517046Y-29139407D02*
G01*
X217553010Y-29188907D01*
X217553010Y-29250093D01*
X217517046Y-29299593D01*
X217501810Y-29308696D01*
X217307874Y-29402090D01*
X217307869Y-29402092D01*
X217012999Y-29587372D01*
X217012996Y-29587374D01*
X216740747Y-29804484D01*
X216494484Y-30050747D01*
X216277374Y-30322996D01*
X216277372Y-30322999D01*
X216092092Y-30617869D01*
X216092086Y-30617881D01*
X215940998Y-30931620D01*
X215940997Y-30931622D01*
X215825982Y-31260315D01*
X215748491Y-31599826D01*
X215748490Y-31599832D01*
X215709500Y-31945863D01*
X215709500Y-32294136D01*
X215748490Y-32640167D01*
X215748491Y-32640173D01*
X215825982Y-32979684D01*
X215940997Y-33308377D01*
X215940998Y-33308379D01*
X216092086Y-33622118D01*
X216092092Y-33622130D01*
X216277372Y-33917000D01*
X216277374Y-33917003D01*
X216494484Y-34189252D01*
X216494490Y-34189258D01*
X216494494Y-34189263D01*
X216740737Y-34435506D01*
X216740741Y-34435509D01*
X216740747Y-34435515D01*
X216865622Y-34535099D01*
X216899329Y-34586162D01*
X216896584Y-34647286D01*
X216858436Y-34695123D01*
X216803897Y-34711500D01*
X214045291Y-34711500D01*
X213972024Y-34726073D01*
X213972024Y-34726074D01*
X213898753Y-34740649D01*
X213882007Y-34747585D01*
X213841576Y-34764331D01*
X213841576Y-34764332D01*
X213760716Y-34797826D01*
X213760714Y-34797827D01*
X213760715Y-34797827D01*
X213636487Y-34880832D01*
X212784815Y-35732504D01*
X212730298Y-35760281D01*
X212714811Y-35761500D01*
X211703026Y-35761500D01*
X211644835Y-35742593D01*
X211609051Y-35693640D01*
X211600739Y-35668555D01*
X211577115Y-35597262D01*
X211484030Y-35446348D01*
X211358652Y-35320970D01*
X211207738Y-35227885D01*
X211199679Y-35225214D01*
X211192722Y-35222909D01*
X211143433Y-35186656D01*
X211124867Y-35128356D01*
X211144114Y-35070277D01*
X211161855Y-35052644D01*
X211161513Y-35052243D01*
X211164464Y-35049722D01*
X211314722Y-34899464D01*
X211439624Y-34727552D01*
X211536095Y-34538215D01*
X211601758Y-34336122D01*
X211612231Y-34270000D01*
X210564146Y-34270000D01*
X210602630Y-34203343D01*
X210635000Y-34082535D01*
X210635000Y-33957465D01*
X210602630Y-33836657D01*
X210564146Y-33770000D01*
X211612231Y-33770000D01*
X211612231Y-33769999D01*
X211601758Y-33703877D01*
X211536095Y-33501784D01*
X211439624Y-33312447D01*
X211314722Y-33140535D01*
X211164464Y-32990277D01*
X210992551Y-32865375D01*
X210987848Y-32862979D01*
X210944585Y-32819714D01*
X210935014Y-32759281D01*
X210962793Y-32704765D01*
X210987850Y-32686560D01*
X210997009Y-32681894D01*
X211170004Y-32556206D01*
X211321206Y-32405004D01*
X211446894Y-32232009D01*
X211543972Y-32041483D01*
X211610049Y-31838116D01*
X211643500Y-31626916D01*
X211643500Y-31413084D01*
X211643500Y-31413080D01*
X211610049Y-31201886D01*
X211610049Y-31201884D01*
X211543972Y-30998517D01*
X211446894Y-30807991D01*
X211321206Y-30634996D01*
X211170004Y-30483794D01*
X210997009Y-30358106D01*
X210997008Y-30358105D01*
X210997006Y-30358104D01*
X210806481Y-30261027D01*
X210603113Y-30194950D01*
X210391919Y-30161500D01*
X210391916Y-30161500D01*
X209928084Y-30161500D01*
X209928081Y-30161500D01*
X209716886Y-30194950D01*
X209513518Y-30261027D01*
X209322993Y-30358104D01*
X209149997Y-30483793D01*
X208998793Y-30634997D01*
X208873104Y-30807993D01*
X208776027Y-30998518D01*
X208709950Y-31201886D01*
X208676500Y-31413080D01*
X208676500Y-31626919D01*
X208709950Y-31838113D01*
X208744959Y-31945863D01*
X208776028Y-32041483D01*
X208873106Y-32232009D01*
X208998794Y-32405004D01*
X209149996Y-32556206D01*
X209322991Y-32681894D01*
X209322995Y-32681896D01*
X209332148Y-32686560D01*
X209375413Y-32729824D01*
X209384985Y-32790255D01*
X209357209Y-32844772D01*
X209332155Y-32862977D01*
X209327449Y-32865375D01*
X209155535Y-32990277D01*
X209005277Y-33140535D01*
X208880375Y-33312447D01*
X208783904Y-33501784D01*
X208718241Y-33703877D01*
X208707768Y-33769999D01*
X208707769Y-33770000D01*
X209755854Y-33770000D01*
X209717370Y-33836657D01*
X209685000Y-33957465D01*
X209685000Y-34082535D01*
X209717370Y-34203343D01*
X209755854Y-34270000D01*
X208707769Y-34270000D01*
X208718241Y-34336122D01*
X208783904Y-34538215D01*
X208880375Y-34727552D01*
X209005277Y-34899464D01*
X209155535Y-35049722D01*
X209158487Y-35052243D01*
X209157571Y-35053315D01*
X209190285Y-35098332D01*
X209190292Y-35159518D01*
X209154333Y-35209022D01*
X209127278Y-35222909D01*
X209112261Y-35227885D01*
X208961349Y-35320969D01*
X208835969Y-35446349D01*
X208742885Y-35597261D01*
X208710949Y-35693640D01*
X208674698Y-35742930D01*
X208616974Y-35761500D01*
X204953026Y-35761500D01*
X204894835Y-35742593D01*
X204859051Y-35693640D01*
X204850739Y-35668555D01*
X204827115Y-35597262D01*
X204734030Y-35446348D01*
X204608652Y-35320970D01*
X204457738Y-35227885D01*
X204449679Y-35225214D01*
X204442722Y-35222909D01*
X204393433Y-35186656D01*
X204374867Y-35128356D01*
X204394114Y-35070277D01*
X204411855Y-35052644D01*
X204411513Y-35052243D01*
X204414464Y-35049722D01*
X204564722Y-34899464D01*
X204689624Y-34727552D01*
X204786095Y-34538215D01*
X204851758Y-34336122D01*
X204862231Y-34270000D01*
X203814146Y-34270000D01*
X203852630Y-34203343D01*
X203885000Y-34082535D01*
X203885000Y-33957465D01*
X203852630Y-33836657D01*
X203814146Y-33770000D01*
X204862231Y-33770000D01*
X204862231Y-33769999D01*
X204851758Y-33703877D01*
X204786095Y-33501784D01*
X204689624Y-33312447D01*
X204564722Y-33140535D01*
X204414464Y-32990277D01*
X204242551Y-32865375D01*
X204237848Y-32862979D01*
X204194585Y-32819714D01*
X204185014Y-32759281D01*
X204212793Y-32704765D01*
X204237850Y-32686560D01*
X204247009Y-32681894D01*
X204420004Y-32556206D01*
X204571206Y-32405004D01*
X204696894Y-32232009D01*
X204793972Y-32041483D01*
X204860049Y-31838116D01*
X204893500Y-31626916D01*
X204893500Y-31413084D01*
X204893500Y-31413080D01*
X204860049Y-31201886D01*
X204860049Y-31201884D01*
X204793972Y-30998517D01*
X204696894Y-30807991D01*
X204571206Y-30634996D01*
X204420004Y-30483794D01*
X204247009Y-30358106D01*
X204247008Y-30358105D01*
X204247006Y-30358104D01*
X204056481Y-30261027D01*
X203853113Y-30194950D01*
X203641919Y-30161500D01*
X203641916Y-30161500D01*
X203178084Y-30161500D01*
X203178081Y-30161500D01*
X202966886Y-30194950D01*
X202763518Y-30261027D01*
X202572993Y-30358104D01*
X202399997Y-30483793D01*
X202248793Y-30634997D01*
X202123104Y-30807993D01*
X202026027Y-30998518D01*
X201959950Y-31201886D01*
X201926500Y-31413080D01*
X201926500Y-31626919D01*
X201959950Y-31838113D01*
X201994959Y-31945863D01*
X202026028Y-32041483D01*
X202123106Y-32232009D01*
X202248794Y-32405004D01*
X202399996Y-32556206D01*
X202572991Y-32681894D01*
X202572995Y-32681896D01*
X202582148Y-32686560D01*
X202625413Y-32729824D01*
X202634985Y-32790255D01*
X202607209Y-32844772D01*
X202582155Y-32862977D01*
X202577449Y-32865375D01*
X202405535Y-32990277D01*
X202255277Y-33140535D01*
X202130375Y-33312447D01*
X202033904Y-33501784D01*
X201968241Y-33703877D01*
X201957768Y-33769999D01*
X201957769Y-33770000D01*
X203005854Y-33770000D01*
X202967370Y-33836657D01*
X202935000Y-33957465D01*
X202935000Y-34082535D01*
X202967370Y-34203343D01*
X203005854Y-34270000D01*
X201957769Y-34270000D01*
X201968241Y-34336122D01*
X202033904Y-34538215D01*
X202130375Y-34727552D01*
X202255277Y-34899464D01*
X202405535Y-35049722D01*
X202408487Y-35052243D01*
X202407571Y-35053315D01*
X202440285Y-35098332D01*
X202440292Y-35159518D01*
X202404333Y-35209022D01*
X202377278Y-35222909D01*
X202362261Y-35227885D01*
X202211349Y-35320969D01*
X202085969Y-35446349D01*
X201992886Y-35597260D01*
X201960832Y-35693992D01*
X201924580Y-35743281D01*
X201879972Y-35760090D01*
X201880064Y-35760551D01*
X201877281Y-35761104D01*
X201876569Y-35761373D01*
X201875305Y-35761497D01*
X201802024Y-35776073D01*
X201802024Y-35776074D01*
X201728753Y-35790649D01*
X201671576Y-35814332D01*
X201590716Y-35847826D01*
X201589242Y-35848811D01*
X201523026Y-35893055D01*
X201466487Y-35930832D01*
X199200831Y-38196488D01*
X199117828Y-38320711D01*
X199117823Y-38320721D01*
X199106318Y-38348499D01*
X199106318Y-38348500D01*
X199060650Y-38458750D01*
X199060648Y-38458756D01*
X199031500Y-38605291D01*
X199031500Y-88504707D01*
X199060649Y-88651246D01*
X199060649Y-88651248D01*
X199117824Y-88789281D01*
X199162426Y-88856034D01*
X199200834Y-88913515D01*
X199887145Y-89599826D01*
X200510071Y-90222752D01*
X200537848Y-90277269D01*
X200534222Y-90323347D01*
X200524950Y-90351883D01*
X200491500Y-90563080D01*
X200491500Y-91076919D01*
X200524950Y-91288113D01*
X200591027Y-91491481D01*
X200657597Y-91622133D01*
X200688106Y-91682009D01*
X200813794Y-91855004D01*
X200964996Y-92006206D01*
X201137991Y-92131894D01*
X201328517Y-92228972D01*
X201531884Y-92295049D01*
X201616364Y-92308429D01*
X201743081Y-92328500D01*
X201743084Y-92328500D01*
X201956919Y-92328500D01*
X202076832Y-92309507D01*
X202168116Y-92295049D01*
X202371483Y-92228972D01*
X202562009Y-92131894D01*
X202735004Y-92006206D01*
X202886206Y-91855004D01*
X202888278Y-91852151D01*
X202937773Y-91816182D01*
X202998959Y-91816175D01*
X203048463Y-91852133D01*
X203062351Y-91879191D01*
X203065642Y-91889123D01*
X203157680Y-92038340D01*
X203281659Y-92162319D01*
X203430875Y-92254356D01*
X203597306Y-92309506D01*
X203700012Y-92319999D01*
X204099998Y-92319999D01*
X204100000Y-92319998D01*
X204100000Y-91253012D01*
X204157007Y-91285925D01*
X204284174Y-91320000D01*
X204415826Y-91320000D01*
X204542993Y-91285925D01*
X204600000Y-91253012D01*
X204600000Y-92319998D01*
X204600001Y-92319999D01*
X204999986Y-92319999D01*
X205102687Y-92309507D01*
X205102699Y-92309504D01*
X205269124Y-92254356D01*
X205418340Y-92162319D01*
X205542319Y-92038340D01*
X205634356Y-91889124D01*
X205689506Y-91722693D01*
X205700000Y-91619987D01*
X205700000Y-91070001D01*
X205699999Y-91070000D01*
X204783012Y-91070000D01*
X204815925Y-91012993D01*
X204850000Y-90885826D01*
X204850000Y-90754174D01*
X204815925Y-90627007D01*
X204783012Y-90570000D01*
X205699998Y-90570000D01*
X205699999Y-90569999D01*
X205699999Y-90563080D01*
X208891500Y-90563080D01*
X208891500Y-91076919D01*
X208924950Y-91288113D01*
X208991027Y-91491481D01*
X209057597Y-91622133D01*
X209088106Y-91682009D01*
X209213794Y-91855004D01*
X209364996Y-92006206D01*
X209537991Y-92131894D01*
X209728517Y-92228972D01*
X209931884Y-92295049D01*
X210016364Y-92308429D01*
X210143081Y-92328500D01*
X210143084Y-92328500D01*
X210356919Y-92328500D01*
X210476832Y-92309507D01*
X210568116Y-92295049D01*
X210771483Y-92228972D01*
X210962009Y-92131894D01*
X211135004Y-92006206D01*
X211286206Y-91855004D01*
X211288278Y-91852151D01*
X211337773Y-91816182D01*
X211398959Y-91816175D01*
X211448463Y-91852133D01*
X211462351Y-91879191D01*
X211465642Y-91889123D01*
X211557680Y-92038340D01*
X211681659Y-92162319D01*
X211830875Y-92254356D01*
X211997306Y-92309506D01*
X212100012Y-92319999D01*
X212499998Y-92319999D01*
X212500000Y-92319998D01*
X212500000Y-91253012D01*
X212557007Y-91285925D01*
X212684174Y-91320000D01*
X212815826Y-91320000D01*
X212942993Y-91285925D01*
X213000000Y-91253012D01*
X213000000Y-92319998D01*
X213000001Y-92319999D01*
X213399986Y-92319999D01*
X213502687Y-92309507D01*
X213502699Y-92309504D01*
X213669124Y-92254356D01*
X213818340Y-92162319D01*
X213942319Y-92038340D01*
X214034356Y-91889124D01*
X214089506Y-91722693D01*
X214100000Y-91619987D01*
X214100000Y-91070001D01*
X214099999Y-91070000D01*
X213183012Y-91070000D01*
X213215925Y-91012993D01*
X213250000Y-90885826D01*
X213250000Y-90754174D01*
X213215925Y-90627007D01*
X213183012Y-90570000D01*
X214099998Y-90570000D01*
X214099999Y-90569999D01*
X214099999Y-90020013D01*
X214089507Y-89917312D01*
X214089504Y-89917300D01*
X214034356Y-89750875D01*
X213942319Y-89601659D01*
X213818340Y-89477680D01*
X213669124Y-89385643D01*
X213502693Y-89330493D01*
X213399987Y-89320000D01*
X213000001Y-89320000D01*
X213000000Y-89320001D01*
X213000000Y-90386988D01*
X212942993Y-90354075D01*
X212815826Y-90320000D01*
X212684174Y-90320000D01*
X212557007Y-90354075D01*
X212500000Y-90386988D01*
X212500000Y-89320001D01*
X212499999Y-89320000D01*
X212100013Y-89320000D01*
X211997312Y-89330492D01*
X211997300Y-89330495D01*
X211830875Y-89385643D01*
X211681659Y-89477680D01*
X211557680Y-89601659D01*
X211465643Y-89750874D01*
X211462351Y-89760810D01*
X211426098Y-89810098D01*
X211367797Y-89828664D01*
X211309718Y-89809417D01*
X211288284Y-89787856D01*
X211286209Y-89785000D01*
X211286208Y-89784999D01*
X211286206Y-89784996D01*
X211135004Y-89633794D01*
X210962009Y-89508106D01*
X210962008Y-89508105D01*
X210962006Y-89508104D01*
X210771481Y-89411027D01*
X210568113Y-89344950D01*
X210356919Y-89311500D01*
X210356916Y-89311500D01*
X210143084Y-89311500D01*
X210143081Y-89311500D01*
X209931886Y-89344950D01*
X209728518Y-89411027D01*
X209537993Y-89508104D01*
X209364997Y-89633793D01*
X209213793Y-89784997D01*
X209088104Y-89957993D01*
X208991027Y-90148518D01*
X208924950Y-90351886D01*
X208891500Y-90563080D01*
X205699999Y-90563080D01*
X205699999Y-90020013D01*
X205689507Y-89917312D01*
X205689504Y-89917300D01*
X205634356Y-89750875D01*
X205542319Y-89601659D01*
X205418340Y-89477680D01*
X205269124Y-89385643D01*
X205102693Y-89330493D01*
X204999987Y-89320000D01*
X204600001Y-89320000D01*
X204600000Y-89320001D01*
X204600000Y-90386988D01*
X204542993Y-90354075D01*
X204415826Y-90320000D01*
X204284174Y-90320000D01*
X204157007Y-90354075D01*
X204100000Y-90386988D01*
X204100000Y-89320001D01*
X204099999Y-89320000D01*
X203700013Y-89320000D01*
X203597312Y-89330492D01*
X203597300Y-89330495D01*
X203430875Y-89385643D01*
X203281659Y-89477680D01*
X203157680Y-89601659D01*
X203065643Y-89750874D01*
X203062351Y-89760810D01*
X203026098Y-89810098D01*
X202967797Y-89828664D01*
X202909718Y-89809417D01*
X202888284Y-89787856D01*
X202886209Y-89785000D01*
X202886208Y-89784999D01*
X202886206Y-89784996D01*
X202735004Y-89633794D01*
X202562009Y-89508106D01*
X202562008Y-89508105D01*
X202562006Y-89508104D01*
X202371481Y-89411027D01*
X202168113Y-89344950D01*
X201956919Y-89311500D01*
X201956916Y-89311500D01*
X201785189Y-89311500D01*
X201726998Y-89292593D01*
X201715185Y-89282504D01*
X200577496Y-88144815D01*
X200549719Y-88090298D01*
X200548500Y-88074811D01*
X200548500Y-81185189D01*
X200567407Y-81126998D01*
X200577496Y-81115185D01*
X201445185Y-80247496D01*
X201499702Y-80219719D01*
X201515189Y-80218500D01*
X202096441Y-80218500D01*
X202154632Y-80237407D01*
X202176531Y-80259306D01*
X202238794Y-80345004D01*
X202389996Y-80496206D01*
X202392854Y-80498282D01*
X202428819Y-80547781D01*
X202428822Y-80608966D01*
X202392860Y-80658468D01*
X202365810Y-80672351D01*
X202355874Y-80675643D01*
X202206659Y-80767680D01*
X202082680Y-80891659D01*
X201990643Y-81040875D01*
X201935493Y-81207306D01*
X201925000Y-81310012D01*
X201925000Y-81709999D01*
X201925001Y-81710000D01*
X202995854Y-81710000D01*
X202957370Y-81776657D01*
X202925000Y-81897465D01*
X202925000Y-82022535D01*
X202957370Y-82143343D01*
X202995854Y-82210000D01*
X201925002Y-82210000D01*
X201925001Y-82210001D01*
X201925001Y-82609986D01*
X201935492Y-82712687D01*
X201935495Y-82712699D01*
X201990643Y-82879124D01*
X202082680Y-83028340D01*
X202206659Y-83152319D01*
X202355875Y-83244356D01*
X202522306Y-83299506D01*
X202625012Y-83309999D01*
X203149998Y-83309999D01*
X203150000Y-83309998D01*
X203150000Y-82364145D01*
X203216657Y-82402630D01*
X203337465Y-82435000D01*
X203462535Y-82435000D01*
X203583343Y-82402630D01*
X203650000Y-82364145D01*
X203650000Y-83309998D01*
X203650001Y-83309999D01*
X204174986Y-83309999D01*
X204277687Y-83299507D01*
X204277699Y-83299504D01*
X204444124Y-83244356D01*
X204593340Y-83152319D01*
X204717319Y-83028340D01*
X204809356Y-82879124D01*
X204864506Y-82712693D01*
X204875000Y-82609987D01*
X204875000Y-82210001D01*
X204874999Y-82210000D01*
X203804146Y-82210000D01*
X203842630Y-82143343D01*
X203875000Y-82022535D01*
X203875000Y-81897465D01*
X203842630Y-81776657D01*
X203804146Y-81710000D01*
X204874998Y-81710000D01*
X204874999Y-81709999D01*
X204874999Y-81310013D01*
X204864507Y-81207312D01*
X204864504Y-81207300D01*
X204809356Y-81040875D01*
X204717319Y-80891659D01*
X204593340Y-80767680D01*
X204444123Y-80675642D01*
X204434191Y-80672351D01*
X204384902Y-80636099D01*
X204366335Y-80577799D01*
X204385581Y-80519720D01*
X204407152Y-80498278D01*
X204409998Y-80496210D01*
X204410004Y-80496206D01*
X204561206Y-80345004D01*
X204623467Y-80259307D01*
X204672966Y-80223345D01*
X204703559Y-80218500D01*
X208846441Y-80218500D01*
X208904632Y-80237407D01*
X208926531Y-80259306D01*
X208988794Y-80345004D01*
X209139996Y-80496206D01*
X209142854Y-80498282D01*
X209178819Y-80547781D01*
X209178822Y-80608966D01*
X209142860Y-80658468D01*
X209115810Y-80672351D01*
X209105874Y-80675643D01*
X208956659Y-80767680D01*
X208832680Y-80891659D01*
X208740643Y-81040875D01*
X208685493Y-81207306D01*
X208675000Y-81310012D01*
X208675000Y-81709999D01*
X208675001Y-81710000D01*
X209745854Y-81710000D01*
X209707370Y-81776657D01*
X209675000Y-81897465D01*
X209675000Y-82022535D01*
X209707370Y-82143343D01*
X209745854Y-82210000D01*
X208675002Y-82210000D01*
X208675001Y-82210001D01*
X208675001Y-82609986D01*
X208685492Y-82712687D01*
X208685495Y-82712699D01*
X208740643Y-82879124D01*
X208832680Y-83028340D01*
X208956659Y-83152319D01*
X209105875Y-83244356D01*
X209272306Y-83299506D01*
X209375012Y-83309999D01*
X209899998Y-83309999D01*
X209900000Y-83309998D01*
X209900000Y-82364145D01*
X209966657Y-82402630D01*
X210087465Y-82435000D01*
X210212535Y-82435000D01*
X210333343Y-82402630D01*
X210400000Y-82364145D01*
X210400000Y-83309998D01*
X210400001Y-83309999D01*
X210924986Y-83309999D01*
X211027687Y-83299507D01*
X211027699Y-83299504D01*
X211194124Y-83244356D01*
X211343340Y-83152319D01*
X211467319Y-83028340D01*
X211559356Y-82879124D01*
X211614506Y-82712693D01*
X211625000Y-82609987D01*
X211625000Y-82210001D01*
X211624999Y-82210000D01*
X210554146Y-82210000D01*
X210592630Y-82143343D01*
X210625000Y-82022535D01*
X210625000Y-81897465D01*
X210592630Y-81776657D01*
X210554146Y-81710000D01*
X211624998Y-81710000D01*
X211624999Y-81709999D01*
X211624999Y-81310013D01*
X211614507Y-81207312D01*
X211614504Y-81207300D01*
X211559356Y-81040875D01*
X211467319Y-80891659D01*
X211343340Y-80767680D01*
X211194123Y-80675642D01*
X211184191Y-80672351D01*
X211134902Y-80636099D01*
X211116335Y-80577799D01*
X211135581Y-80519720D01*
X211157152Y-80498278D01*
X211159998Y-80496210D01*
X211160004Y-80496206D01*
X211311206Y-80345004D01*
X211436894Y-80172009D01*
X211533972Y-79981483D01*
X211600049Y-79778116D01*
X211631916Y-79576919D01*
X211633500Y-79566919D01*
X211633500Y-79353080D01*
X211600049Y-79141886D01*
X211600049Y-79141884D01*
X211533972Y-78938517D01*
X211436894Y-78747991D01*
X211311206Y-78574996D01*
X211160004Y-78423794D01*
X210987009Y-78298106D01*
X210987005Y-78298103D01*
X210983690Y-78296072D01*
X210984216Y-78295212D01*
X210943949Y-78254947D01*
X210934377Y-78194515D01*
X210962153Y-78139998D01*
X210983869Y-78124220D01*
X210983690Y-78123928D01*
X210987005Y-78121896D01*
X210987004Y-78121896D01*
X210987009Y-78121894D01*
X211160004Y-77996206D01*
X211311206Y-77845004D01*
X211436894Y-77672009D01*
X211533972Y-77481483D01*
X211600049Y-77278116D01*
X211621747Y-77141119D01*
X211633500Y-77066919D01*
X211633500Y-76853080D01*
X211600049Y-76641886D01*
X211600049Y-76641884D01*
X211533972Y-76438517D01*
X211436894Y-76247991D01*
X211311206Y-76074996D01*
X211160004Y-75923794D01*
X210987009Y-75798106D01*
X210987008Y-75798105D01*
X210987006Y-75798104D01*
X210796481Y-75701027D01*
X210593113Y-75634950D01*
X210381919Y-75601500D01*
X210381916Y-75601500D01*
X209918084Y-75601500D01*
X209918081Y-75601500D01*
X209706886Y-75634950D01*
X209503518Y-75701027D01*
X209312993Y-75798104D01*
X209139997Y-75923793D01*
X208988793Y-76074997D01*
X208863104Y-76247993D01*
X208766027Y-76438518D01*
X208699950Y-76641886D01*
X208666500Y-76853080D01*
X208666500Y-77066919D01*
X208699950Y-77278113D01*
X208699951Y-77278116D01*
X208766028Y-77481483D01*
X208863106Y-77672009D01*
X208988794Y-77845004D01*
X209139996Y-77996206D01*
X209245166Y-78072616D01*
X209312994Y-78121896D01*
X209316310Y-78123928D01*
X209315784Y-78124785D01*
X209356055Y-78165064D01*
X209365620Y-78225497D01*
X209337837Y-78280011D01*
X209316131Y-78295780D01*
X209316310Y-78296072D01*
X209312994Y-78298103D01*
X209139997Y-78423793D01*
X209139996Y-78423794D01*
X208988794Y-78574996D01*
X208926532Y-78660692D01*
X208877034Y-78696655D01*
X208846441Y-78701500D01*
X204703559Y-78701500D01*
X204645368Y-78682593D01*
X204623468Y-78660693D01*
X204561206Y-78574996D01*
X204410004Y-78423794D01*
X204237009Y-78298106D01*
X204237005Y-78298103D01*
X204233690Y-78296072D01*
X204234216Y-78295212D01*
X204193949Y-78254947D01*
X204184377Y-78194515D01*
X204212153Y-78139998D01*
X204233869Y-78124220D01*
X204233690Y-78123928D01*
X204237005Y-78121896D01*
X204237004Y-78121896D01*
X204237009Y-78121894D01*
X204410004Y-77996206D01*
X204561206Y-77845004D01*
X204686894Y-77672009D01*
X204783972Y-77481483D01*
X204850049Y-77278116D01*
X204871747Y-77141119D01*
X204883500Y-77066919D01*
X204883500Y-76853080D01*
X204850049Y-76641886D01*
X204850049Y-76641884D01*
X204783972Y-76438517D01*
X204686894Y-76247991D01*
X204561206Y-76074996D01*
X204410004Y-75923794D01*
X204237009Y-75798106D01*
X204237008Y-75798105D01*
X204237006Y-75798104D01*
X204046481Y-75701027D01*
X203843113Y-75634950D01*
X203631919Y-75601500D01*
X203631916Y-75601500D01*
X203168084Y-75601500D01*
X203168081Y-75601500D01*
X202956886Y-75634950D01*
X202753518Y-75701027D01*
X202562993Y-75798104D01*
X202389997Y-75923793D01*
X202238793Y-76074997D01*
X202113104Y-76247993D01*
X202016027Y-76438518D01*
X201949950Y-76641886D01*
X201916500Y-76853080D01*
X201916500Y-77066919D01*
X201949950Y-77278113D01*
X201949951Y-77278116D01*
X202016028Y-77481483D01*
X202113106Y-77672009D01*
X202238794Y-77845004D01*
X202389996Y-77996206D01*
X202495166Y-78072616D01*
X202562994Y-78121896D01*
X202566310Y-78123928D01*
X202565784Y-78124785D01*
X202606055Y-78165064D01*
X202615620Y-78225497D01*
X202587837Y-78280011D01*
X202566131Y-78295780D01*
X202566310Y-78296072D01*
X202562994Y-78298103D01*
X202389997Y-78423793D01*
X202389996Y-78423794D01*
X202238794Y-78574996D01*
X202176532Y-78660692D01*
X202127034Y-78696655D01*
X202096441Y-78701500D01*
X201085291Y-78701500D01*
X200938754Y-78730649D01*
X200938752Y-78730649D01*
X200800718Y-78787824D01*
X200702501Y-78853450D01*
X200643612Y-78870058D01*
X200586209Y-78848880D01*
X200552217Y-78798006D01*
X200548500Y-78771134D01*
X200548500Y-69555189D01*
X200567407Y-69496998D01*
X200577496Y-69485185D01*
X202705185Y-67357496D01*
X202759702Y-67329719D01*
X202775189Y-67328500D01*
X208846441Y-67328500D01*
X208904632Y-67347407D01*
X208926531Y-67369306D01*
X208988794Y-67455004D01*
X209139996Y-67606206D01*
X209142854Y-67608282D01*
X209178819Y-67657781D01*
X209178822Y-67718966D01*
X209142860Y-67768468D01*
X209115810Y-67782351D01*
X209105874Y-67785643D01*
X208956659Y-67877680D01*
X208832680Y-68001659D01*
X208740643Y-68150875D01*
X208685493Y-68317306D01*
X208675000Y-68420012D01*
X208675000Y-68819999D01*
X208675001Y-68820000D01*
X209745854Y-68820000D01*
X209707370Y-68886657D01*
X209675000Y-69007465D01*
X209675000Y-69132535D01*
X209707370Y-69253343D01*
X209745854Y-69320000D01*
X208675002Y-69320000D01*
X208675001Y-69320001D01*
X208675001Y-69719986D01*
X208685492Y-69822687D01*
X208685495Y-69822699D01*
X208740643Y-69989124D01*
X208832680Y-70138340D01*
X208956659Y-70262319D01*
X209105875Y-70354356D01*
X209272306Y-70409506D01*
X209375012Y-70419999D01*
X209899998Y-70419999D01*
X209900000Y-70419998D01*
X209900000Y-69474145D01*
X209966657Y-69512630D01*
X210087465Y-69545000D01*
X210212535Y-69545000D01*
X210333343Y-69512630D01*
X210400000Y-69474145D01*
X210400000Y-70419998D01*
X210400001Y-70419999D01*
X210924986Y-70419999D01*
X211027687Y-70409507D01*
X211027699Y-70409504D01*
X211194124Y-70354356D01*
X211343340Y-70262319D01*
X211467319Y-70138340D01*
X211559356Y-69989124D01*
X211614506Y-69822693D01*
X211625000Y-69719987D01*
X211625000Y-69320001D01*
X211624999Y-69320000D01*
X210554146Y-69320000D01*
X210592630Y-69253343D01*
X210625000Y-69132535D01*
X210625000Y-69007465D01*
X210592630Y-68886657D01*
X210554146Y-68820000D01*
X211624998Y-68820000D01*
X211624999Y-68819999D01*
X211624999Y-68420013D01*
X211614507Y-68317312D01*
X211614504Y-68317300D01*
X211559356Y-68150875D01*
X211467319Y-68001659D01*
X211343340Y-67877680D01*
X211194123Y-67785642D01*
X211184191Y-67782351D01*
X211134902Y-67746099D01*
X211116335Y-67687799D01*
X211135581Y-67629720D01*
X211157152Y-67608278D01*
X211159998Y-67606210D01*
X211160004Y-67606206D01*
X211311206Y-67455004D01*
X211436894Y-67282009D01*
X211533972Y-67091483D01*
X211600049Y-66888116D01*
X211633500Y-66676916D01*
X211633500Y-66463084D01*
X211633500Y-66463080D01*
X211605848Y-66288500D01*
X211600049Y-66251884D01*
X211533972Y-66048517D01*
X211436894Y-65857991D01*
X211311206Y-65684996D01*
X211160004Y-65533794D01*
X210987009Y-65408106D01*
X210987005Y-65408103D01*
X210983690Y-65406072D01*
X210984216Y-65405212D01*
X210943949Y-65364947D01*
X210934377Y-65304515D01*
X210962153Y-65249998D01*
X210983869Y-65234220D01*
X210983690Y-65233928D01*
X210987005Y-65231896D01*
X210987004Y-65231896D01*
X210987009Y-65231894D01*
X211160004Y-65106206D01*
X211311206Y-64955004D01*
X211436894Y-64782009D01*
X211533972Y-64591483D01*
X211600049Y-64388116D01*
X211633500Y-64176916D01*
X211633500Y-63963084D01*
X211633500Y-63963080D01*
X211605898Y-63788811D01*
X211600049Y-63751884D01*
X211533972Y-63548517D01*
X211436894Y-63357991D01*
X211311206Y-63184996D01*
X211160004Y-63033794D01*
X210987009Y-62908106D01*
X210987005Y-62908103D01*
X210983690Y-62906072D01*
X210984216Y-62905212D01*
X210943949Y-62864947D01*
X210934377Y-62804515D01*
X210962153Y-62749998D01*
X210983869Y-62734220D01*
X210983690Y-62733928D01*
X210987005Y-62731896D01*
X210987004Y-62731896D01*
X210987009Y-62731894D01*
X211160004Y-62606206D01*
X211311206Y-62455004D01*
X211436894Y-62282009D01*
X211533972Y-62091483D01*
X211600049Y-61888116D01*
X211623317Y-61741209D01*
X211633500Y-61676919D01*
X211633500Y-61463080D01*
X211600049Y-61251886D01*
X211600049Y-61251884D01*
X211533972Y-61048517D01*
X211436894Y-60857991D01*
X211311206Y-60684996D01*
X211160004Y-60533794D01*
X210987009Y-60408106D01*
X210987005Y-60408103D01*
X210983690Y-60406072D01*
X210984216Y-60405212D01*
X210943949Y-60364947D01*
X210934377Y-60304515D01*
X210962153Y-60249998D01*
X210983869Y-60234220D01*
X210983690Y-60233928D01*
X210987005Y-60231896D01*
X210987004Y-60231896D01*
X210987009Y-60231894D01*
X211160004Y-60106206D01*
X211311206Y-59955004D01*
X211436894Y-59782009D01*
X211533972Y-59591483D01*
X211600049Y-59388116D01*
X211628533Y-59208278D01*
X211633500Y-59176919D01*
X211633500Y-58963080D01*
X211600049Y-58751886D01*
X211600049Y-58751884D01*
X211533972Y-58548517D01*
X211436894Y-58357991D01*
X211311206Y-58184996D01*
X211160004Y-58033794D01*
X210987009Y-57908106D01*
X210987008Y-57908105D01*
X210987006Y-57908104D01*
X210796481Y-57811027D01*
X210593113Y-57744950D01*
X210381919Y-57711500D01*
X210381916Y-57711500D01*
X209918084Y-57711500D01*
X209918081Y-57711500D01*
X209706886Y-57744950D01*
X209503518Y-57811027D01*
X209312993Y-57908104D01*
X209139997Y-58033793D01*
X208988793Y-58184997D01*
X208863104Y-58357993D01*
X208766027Y-58548518D01*
X208699950Y-58751886D01*
X208666500Y-58963080D01*
X208666500Y-59176919D01*
X208699950Y-59388113D01*
X208699951Y-59388116D01*
X208766028Y-59591483D01*
X208863106Y-59782009D01*
X208988794Y-59955004D01*
X209139996Y-60106206D01*
X209312991Y-60231894D01*
X209312994Y-60231896D01*
X209316310Y-60233928D01*
X209315784Y-60234785D01*
X209356055Y-60275064D01*
X209365620Y-60335497D01*
X209337837Y-60390011D01*
X209316131Y-60405780D01*
X209316310Y-60406072D01*
X209312994Y-60408103D01*
X209139997Y-60533793D01*
X208988793Y-60684997D01*
X208863104Y-60857993D01*
X208766027Y-61048518D01*
X208699950Y-61251886D01*
X208666500Y-61463080D01*
X208666500Y-61676919D01*
X208699950Y-61888113D01*
X208699951Y-61888116D01*
X208766028Y-62091483D01*
X208863106Y-62282009D01*
X208988794Y-62455004D01*
X209139996Y-62606206D01*
X209312991Y-62731894D01*
X209312994Y-62731896D01*
X209316310Y-62733928D01*
X209315784Y-62734785D01*
X209356055Y-62775064D01*
X209365620Y-62835497D01*
X209337837Y-62890011D01*
X209316131Y-62905780D01*
X209316310Y-62906072D01*
X209312994Y-62908103D01*
X209139997Y-63033793D01*
X208988793Y-63184997D01*
X208863104Y-63357993D01*
X208766027Y-63548518D01*
X208699950Y-63751886D01*
X208666500Y-63963080D01*
X208666500Y-64176919D01*
X208699950Y-64388113D01*
X208732204Y-64487384D01*
X208766028Y-64591483D01*
X208863106Y-64782009D01*
X208988794Y-64955004D01*
X209139996Y-65106206D01*
X209284921Y-65211500D01*
X209312994Y-65231896D01*
X209316310Y-65233928D01*
X209315784Y-65234785D01*
X209356055Y-65275064D01*
X209365620Y-65335497D01*
X209337837Y-65390011D01*
X209316131Y-65405780D01*
X209316310Y-65406072D01*
X209312994Y-65408103D01*
X209139997Y-65533793D01*
X209139996Y-65533794D01*
X208988794Y-65684996D01*
X208926532Y-65770692D01*
X208877034Y-65806655D01*
X208846441Y-65811500D01*
X202345293Y-65811500D01*
X202314575Y-65817610D01*
X202283856Y-65823721D01*
X202198754Y-65840649D01*
X202198752Y-65840649D01*
X202060718Y-65897824D01*
X201936488Y-65980831D01*
X200717504Y-67199815D01*
X200662987Y-67227592D01*
X200602555Y-67218021D01*
X200559290Y-67174756D01*
X200548500Y-67129811D01*
X200548500Y-44425189D01*
X200567407Y-44366998D01*
X200577496Y-44355185D01*
X201705185Y-43227496D01*
X201759702Y-43199719D01*
X201775189Y-43198500D01*
X205054811Y-43198500D01*
X205113002Y-43217407D01*
X205124815Y-43227496D01*
X206442504Y-44545185D01*
X206470281Y-44599702D01*
X206471500Y-44615189D01*
X206471500Y-46944707D01*
X206500649Y-47091246D01*
X206500649Y-47091248D01*
X206557824Y-47229281D01*
X206626815Y-47332535D01*
X206640834Y-47353515D01*
X207642948Y-48355629D01*
X208637504Y-49350185D01*
X208665281Y-49404702D01*
X208666500Y-49420189D01*
X208666500Y-50420552D01*
X208677111Y-50524417D01*
X208677112Y-50524424D01*
X208677113Y-50524426D01*
X208732885Y-50692738D01*
X208825970Y-50843652D01*
X208951348Y-50969030D01*
X209102262Y-51062115D01*
X209270574Y-51117887D01*
X209374455Y-51128500D01*
X209932183Y-51128499D01*
X209990374Y-51147406D01*
X210026338Y-51196906D01*
X210030641Y-51237847D01*
X210011496Y-51419999D01*
X210031459Y-51609933D01*
X210090471Y-51791551D01*
X210090477Y-51791565D01*
X210143355Y-51883151D01*
X210156077Y-51942999D01*
X210143356Y-51982150D01*
X210090477Y-52073740D01*
X210090472Y-52073752D01*
X210031460Y-52255370D01*
X210031459Y-52255374D01*
X210031459Y-52255376D01*
X210011935Y-52441137D01*
X209987048Y-52497032D01*
X209934060Y-52527625D01*
X209873210Y-52521229D01*
X209843473Y-52500792D01*
X208186331Y-50843650D01*
X206523515Y-49180834D01*
X206431656Y-49119456D01*
X206399283Y-49097825D01*
X206261247Y-49040649D01*
X206187976Y-49026074D01*
X206187975Y-49026073D01*
X206114708Y-49011500D01*
X206114706Y-49011500D01*
X204703559Y-49011500D01*
X204645368Y-48992593D01*
X204623468Y-48970693D01*
X204561206Y-48884996D01*
X204410004Y-48733794D01*
X204237009Y-48608106D01*
X204237005Y-48608103D01*
X204233690Y-48606072D01*
X204234216Y-48605212D01*
X204193949Y-48564947D01*
X204184377Y-48504515D01*
X204212153Y-48449998D01*
X204233869Y-48434220D01*
X204233690Y-48433928D01*
X204237005Y-48431896D01*
X204237004Y-48431896D01*
X204237009Y-48431894D01*
X204410004Y-48306206D01*
X204561206Y-48155004D01*
X204686894Y-47982009D01*
X204783972Y-47791483D01*
X204850049Y-47588116D01*
X204879844Y-47400000D01*
X204883500Y-47376919D01*
X204883500Y-47163080D01*
X204850860Y-46957007D01*
X204850049Y-46951884D01*
X204783972Y-46748517D01*
X204686894Y-46557991D01*
X204561206Y-46384996D01*
X204410004Y-46233794D01*
X204237009Y-46108106D01*
X204237005Y-46108103D01*
X204233690Y-46106072D01*
X204234216Y-46105212D01*
X204193949Y-46064947D01*
X204184377Y-46004515D01*
X204212153Y-45949998D01*
X204233869Y-45934220D01*
X204233690Y-45933928D01*
X204237005Y-45931896D01*
X204237004Y-45931896D01*
X204237009Y-45931894D01*
X204410004Y-45806206D01*
X204561206Y-45655004D01*
X204686894Y-45482009D01*
X204783972Y-45291483D01*
X204850049Y-45088116D01*
X204883500Y-44876916D01*
X204883500Y-44663084D01*
X204883500Y-44663080D01*
X204850049Y-44451886D01*
X204850049Y-44451884D01*
X204783972Y-44248517D01*
X204686894Y-44057991D01*
X204561206Y-43884996D01*
X204410004Y-43733794D01*
X204237009Y-43608106D01*
X204237008Y-43608105D01*
X204237006Y-43608104D01*
X204046481Y-43511027D01*
X203843113Y-43444950D01*
X203631919Y-43411500D01*
X203631916Y-43411500D01*
X203168084Y-43411500D01*
X203168081Y-43411500D01*
X202956886Y-43444950D01*
X202753518Y-43511027D01*
X202562993Y-43608104D01*
X202389997Y-43733793D01*
X202238793Y-43884997D01*
X202113104Y-44057993D01*
X202016027Y-44248518D01*
X201949950Y-44451886D01*
X201916500Y-44663080D01*
X201916500Y-44876919D01*
X201949950Y-45088113D01*
X202016027Y-45291481D01*
X202095407Y-45447274D01*
X202113106Y-45482009D01*
X202238794Y-45655004D01*
X202389996Y-45806206D01*
X202491565Y-45880000D01*
X202562994Y-45931896D01*
X202566310Y-45933928D01*
X202565784Y-45934785D01*
X202606055Y-45975064D01*
X202615620Y-46035497D01*
X202587837Y-46090011D01*
X202566131Y-46105780D01*
X202566310Y-46106072D01*
X202562994Y-46108103D01*
X202389997Y-46233793D01*
X202238793Y-46384997D01*
X202113104Y-46557993D01*
X202016027Y-46748518D01*
X201949950Y-46951886D01*
X201916500Y-47163080D01*
X201916500Y-47376919D01*
X201949950Y-47588113D01*
X201958986Y-47615925D01*
X202016028Y-47791483D01*
X202113106Y-47982009D01*
X202238794Y-48155004D01*
X202389996Y-48306206D01*
X202549529Y-48422113D01*
X202562994Y-48431896D01*
X202566310Y-48433928D01*
X202565784Y-48434785D01*
X202606055Y-48475064D01*
X202615620Y-48535497D01*
X202587837Y-48590011D01*
X202566131Y-48605780D01*
X202566310Y-48606072D01*
X202562994Y-48608103D01*
X202389997Y-48733793D01*
X202238793Y-48884997D01*
X202113104Y-49057993D01*
X202016027Y-49248518D01*
X201949950Y-49451886D01*
X201916500Y-49663080D01*
X201916500Y-49876919D01*
X201949950Y-50088113D01*
X202016027Y-50291481D01*
X202081792Y-50420553D01*
X202113106Y-50482009D01*
X202238794Y-50655004D01*
X202389996Y-50806206D01*
X202392854Y-50808282D01*
X202428819Y-50857781D01*
X202428822Y-50918966D01*
X202392860Y-50968468D01*
X202365810Y-50982351D01*
X202355874Y-50985643D01*
X202206659Y-51077680D01*
X202082680Y-51201659D01*
X201990643Y-51350875D01*
X201935493Y-51517306D01*
X201925000Y-51620012D01*
X201925000Y-52019999D01*
X201925001Y-52020000D01*
X202995854Y-52020000D01*
X202957370Y-52086657D01*
X202925000Y-52207465D01*
X202925000Y-52332535D01*
X202957370Y-52453343D01*
X202995854Y-52520000D01*
X201925002Y-52520000D01*
X201925001Y-52520001D01*
X201925001Y-52919986D01*
X201935492Y-53022687D01*
X201935495Y-53022699D01*
X201990643Y-53189124D01*
X202082680Y-53338340D01*
X202206659Y-53462319D01*
X202355875Y-53554356D01*
X202522306Y-53609506D01*
X202625012Y-53619999D01*
X203149998Y-53619999D01*
X203150000Y-53619998D01*
X203150000Y-52674145D01*
X203216657Y-52712630D01*
X203337465Y-52745000D01*
X203462535Y-52745000D01*
X203583343Y-52712630D01*
X203650000Y-52674145D01*
X203650000Y-53619998D01*
X203650001Y-53619999D01*
X204174986Y-53619999D01*
X204277687Y-53609507D01*
X204277699Y-53609504D01*
X204444124Y-53554356D01*
X204593340Y-53462319D01*
X204717319Y-53338340D01*
X204809356Y-53189124D01*
X204864506Y-53022693D01*
X204875000Y-52919987D01*
X204875000Y-52520001D01*
X204874999Y-52520000D01*
X203804146Y-52520000D01*
X203842630Y-52453343D01*
X203875000Y-52332535D01*
X203875000Y-52207465D01*
X203842630Y-52086657D01*
X203804146Y-52020000D01*
X204874998Y-52020000D01*
X204874999Y-52019999D01*
X204874999Y-51620013D01*
X204864507Y-51517312D01*
X204864504Y-51517300D01*
X204809356Y-51350875D01*
X204717319Y-51201659D01*
X204593340Y-51077680D01*
X204444123Y-50985642D01*
X204434191Y-50982351D01*
X204384902Y-50946099D01*
X204366335Y-50887799D01*
X204385581Y-50829720D01*
X204407152Y-50808278D01*
X204409998Y-50806210D01*
X204410004Y-50806206D01*
X204561206Y-50655004D01*
X204623467Y-50569307D01*
X204672966Y-50533345D01*
X204703559Y-50528500D01*
X205684811Y-50528500D01*
X205743002Y-50547407D01*
X205754815Y-50557496D01*
X212990835Y-57793516D01*
X212990834Y-57793516D01*
X213049203Y-57851884D01*
X213096484Y-57899165D01*
X213178928Y-57954252D01*
X213220714Y-57982173D01*
X213220715Y-57982173D01*
X213220716Y-57982174D01*
X213301576Y-58015667D01*
X213358753Y-58039351D01*
X213432024Y-58053925D01*
X213505294Y-58068500D01*
X213505295Y-58068500D01*
X213654705Y-58068500D01*
X216359240Y-58068500D01*
X216417431Y-58087407D01*
X216442118Y-58113350D01*
X216464278Y-58147268D01*
X216464280Y-58147270D01*
X216464282Y-58147273D01*
X216616756Y-58312903D01*
X216616762Y-58312908D01*
X216785396Y-58444162D01*
X216794424Y-58451189D01*
X216841506Y-58476668D01*
X216871558Y-58492932D01*
X216913736Y-58537257D01*
X216921806Y-58597908D01*
X216892685Y-58651718D01*
X216871558Y-58667068D01*
X216794423Y-58708811D01*
X216794420Y-58708813D01*
X216616762Y-58847091D01*
X216616756Y-58847096D01*
X216464282Y-59012725D01*
X216436660Y-59055004D01*
X216357010Y-59176919D01*
X216341139Y-59201211D01*
X216328634Y-59229720D01*
X216250704Y-59407384D01*
X216232903Y-59477680D01*
X216195435Y-59625633D01*
X216176844Y-59850000D01*
X216195435Y-60074366D01*
X216195436Y-60074368D01*
X216250704Y-60292616D01*
X216341140Y-60498791D01*
X216462794Y-60684996D01*
X216464282Y-60687274D01*
X216616756Y-60852903D01*
X216616762Y-60852908D01*
X216776203Y-60977007D01*
X216794424Y-60991189D01*
X216825435Y-61007971D01*
X216871558Y-61032932D01*
X216913736Y-61077257D01*
X216921806Y-61137908D01*
X216892685Y-61191718D01*
X216871558Y-61207068D01*
X216794423Y-61248811D01*
X216794420Y-61248813D01*
X216616762Y-61387091D01*
X216616756Y-61387096D01*
X216464282Y-61552725D01*
X216440502Y-61589124D01*
X216341140Y-61741209D01*
X216250704Y-61947384D01*
X216223070Y-62056508D01*
X216195435Y-62165633D01*
X216176844Y-62390000D01*
X216195435Y-62614366D01*
X216195436Y-62614368D01*
X216250704Y-62832616D01*
X216341140Y-63038791D01*
X216436661Y-63184997D01*
X216464282Y-63227274D01*
X216616756Y-63392903D01*
X216616762Y-63392908D01*
X216785396Y-63524162D01*
X216794424Y-63531189D01*
X216841506Y-63556668D01*
X216871558Y-63572932D01*
X216913736Y-63617257D01*
X216921806Y-63677908D01*
X216892685Y-63731718D01*
X216871558Y-63747068D01*
X216794423Y-63788811D01*
X216794420Y-63788813D01*
X216616762Y-63927091D01*
X216616756Y-63927096D01*
X216464282Y-64092725D01*
X216409278Y-64176916D01*
X216341140Y-64281209D01*
X216250704Y-64487384D01*
X216224343Y-64591481D01*
X216195435Y-64705633D01*
X216176844Y-64930000D01*
X216195435Y-65154366D01*
X216195436Y-65154368D01*
X216250704Y-65372616D01*
X216341140Y-65578791D01*
X216410528Y-65684997D01*
X216464282Y-65767274D01*
X216616756Y-65932903D01*
X216616762Y-65932908D01*
X216785396Y-66064162D01*
X216794424Y-66071189D01*
X216794428Y-66071191D01*
X216876398Y-66115551D01*
X216918577Y-66159875D01*
X216926647Y-66220526D01*
X216897526Y-66274337D01*
X216871122Y-66292342D01*
X216862429Y-66296395D01*
X216862424Y-66296398D01*
X216668926Y-66431886D01*
X216501886Y-66598926D01*
X216366398Y-66792424D01*
X216366394Y-66792432D01*
X216266570Y-67006505D01*
X216209364Y-67220000D01*
X217106988Y-67220000D01*
X217074075Y-67277007D01*
X217040000Y-67404174D01*
X217040000Y-67535826D01*
X217074075Y-67662993D01*
X217106988Y-67720000D01*
X216209364Y-67720000D01*
X216266569Y-67933489D01*
X216366399Y-68147577D01*
X216501886Y-68341073D01*
X216668926Y-68508113D01*
X216862423Y-68643601D01*
X216871115Y-68647654D01*
X216915865Y-68689381D01*
X216927541Y-68749442D01*
X216901685Y-68804896D01*
X216876399Y-68824447D01*
X216794428Y-68868808D01*
X216794420Y-68868813D01*
X216616762Y-69007091D01*
X216616756Y-69007096D01*
X216464282Y-69172725D01*
X216384052Y-69295526D01*
X216341140Y-69361209D01*
X216250704Y-69567384D01*
X216250042Y-69570000D01*
X216195435Y-69785633D01*
X216176844Y-70010000D01*
X216195435Y-70234366D01*
X216195436Y-70234368D01*
X216250704Y-70452616D01*
X216341140Y-70658791D01*
X216464278Y-70847268D01*
X216464282Y-70847274D01*
X216616756Y-71012903D01*
X216616762Y-71012908D01*
X216785396Y-71144162D01*
X216794424Y-71151189D01*
X216841506Y-71176668D01*
X216871558Y-71192932D01*
X216913736Y-71237257D01*
X216921806Y-71297908D01*
X216892685Y-71351718D01*
X216871558Y-71367068D01*
X216794423Y-71408811D01*
X216794420Y-71408813D01*
X216616762Y-71547091D01*
X216616756Y-71547096D01*
X216464282Y-71712725D01*
X216384052Y-71835526D01*
X216341140Y-71901209D01*
X216250704Y-72107384D01*
X216223070Y-72216508D01*
X216195435Y-72325633D01*
X216176844Y-72550000D01*
X216195435Y-72774366D01*
X216195435Y-72774367D01*
X216216455Y-72857370D01*
X216212411Y-72918422D01*
X216173254Y-72965436D01*
X216160751Y-72972114D01*
X216033254Y-73028878D01*
X216033251Y-73028880D01*
X215878745Y-73141135D01*
X215750958Y-73283058D01*
X215750958Y-73283059D01*
X215655477Y-73448434D01*
X215655471Y-73448448D01*
X215596459Y-73630066D01*
X215596458Y-73630070D01*
X215596458Y-73630072D01*
X215577796Y-73807630D01*
X215576496Y-73820000D01*
X215596459Y-74009933D01*
X215655471Y-74191551D01*
X215655477Y-74191565D01*
X215731335Y-74322954D01*
X215750960Y-74356944D01*
X215878747Y-74498866D01*
X216033248Y-74611118D01*
X216033253Y-74611120D01*
X216033258Y-74611123D01*
X216160749Y-74667885D01*
X216206219Y-74708825D01*
X216218941Y-74768674D01*
X216216454Y-74782628D01*
X216195436Y-74865629D01*
X216195435Y-74865633D01*
X216176844Y-75090000D01*
X216195435Y-75314366D01*
X216195435Y-75314367D01*
X216213166Y-75384382D01*
X216209122Y-75445434D01*
X216169965Y-75492448D01*
X216157462Y-75499126D01*
X216023254Y-75558878D01*
X216023251Y-75558880D01*
X215868745Y-75671135D01*
X215740958Y-75813058D01*
X215740958Y-75813059D01*
X215645477Y-75978434D01*
X215645471Y-75978448D01*
X215586459Y-76160066D01*
X215586458Y-76160070D01*
X215586458Y-76160072D01*
X215566496Y-76350000D01*
X215577678Y-76456395D01*
X215586459Y-76539933D01*
X215645471Y-76721551D01*
X215645477Y-76721565D01*
X215678376Y-76778546D01*
X215740960Y-76886944D01*
X215868747Y-77028866D01*
X216023248Y-77141118D01*
X216023252Y-77141120D01*
X216023257Y-77141123D01*
X216121242Y-77184747D01*
X216162012Y-77202899D01*
X216207482Y-77243839D01*
X216220204Y-77303687D01*
X216217717Y-77317642D01*
X216195436Y-77405629D01*
X216195435Y-77405633D01*
X216176844Y-77630000D01*
X216195435Y-77854366D01*
X216195597Y-77855004D01*
X216250704Y-78072616D01*
X216341140Y-78278791D01*
X216464278Y-78467268D01*
X216464282Y-78467274D01*
X216616756Y-78632903D01*
X216616762Y-78632908D01*
X216764622Y-78747993D01*
X216794424Y-78771189D01*
X216825163Y-78787824D01*
X216871558Y-78812932D01*
X216913736Y-78857257D01*
X216921806Y-78917908D01*
X216892685Y-78971718D01*
X216871558Y-78987068D01*
X216794423Y-79028811D01*
X216794420Y-79028813D01*
X216616762Y-79167091D01*
X216616756Y-79167096D01*
X216464282Y-79332725D01*
X216444448Y-79363084D01*
X216341140Y-79521209D01*
X216250704Y-79727384D01*
X216235325Y-79788116D01*
X216195435Y-79945633D01*
X216176844Y-80170000D01*
X216195435Y-80394366D01*
X216195436Y-80394368D01*
X216250704Y-80612616D01*
X216341140Y-80818791D01*
X216464278Y-81007268D01*
X216464282Y-81007274D01*
X216616756Y-81172903D01*
X216616762Y-81172908D01*
X216673804Y-81217306D01*
X216794424Y-81311189D01*
X216841506Y-81336668D01*
X216871558Y-81352932D01*
X216913736Y-81397257D01*
X216921806Y-81457908D01*
X216892685Y-81511718D01*
X216871558Y-81527068D01*
X216794423Y-81568811D01*
X216794420Y-81568813D01*
X216616762Y-81707091D01*
X216616756Y-81707096D01*
X216464282Y-81872725D01*
X216402726Y-81966944D01*
X216341140Y-82061209D01*
X216250704Y-82267384D01*
X216232291Y-82340095D01*
X216195435Y-82485633D01*
X216176844Y-82710000D01*
X216195435Y-82934366D01*
X216195436Y-82934368D01*
X216250704Y-83152616D01*
X216341140Y-83358791D01*
X216464278Y-83547268D01*
X216464282Y-83547274D01*
X216616756Y-83712903D01*
X216616762Y-83712908D01*
X216794420Y-83851186D01*
X216794424Y-83851189D01*
X216794428Y-83851191D01*
X216876398Y-83895551D01*
X216918577Y-83939875D01*
X216926647Y-84000526D01*
X216897526Y-84054337D01*
X216871122Y-84072342D01*
X216862429Y-84076395D01*
X216862424Y-84076398D01*
X216668926Y-84211886D01*
X216501886Y-84378926D01*
X216366398Y-84572424D01*
X216366394Y-84572432D01*
X216266570Y-84786505D01*
X216209364Y-85000000D01*
X217106988Y-85000000D01*
X217074075Y-85057007D01*
X217040000Y-85184174D01*
X217040000Y-85315826D01*
X217074075Y-85442993D01*
X217106988Y-85500000D01*
X216209364Y-85500000D01*
X216266569Y-85713489D01*
X216366399Y-85927577D01*
X216501886Y-86121073D01*
X216668926Y-86288113D01*
X216862422Y-86423600D01*
X217076509Y-86523430D01*
X217290000Y-86580634D01*
X217290000Y-85683012D01*
X217347007Y-85715925D01*
X217474174Y-85750000D01*
X217605826Y-85750000D01*
X217732993Y-85715925D01*
X217790000Y-85683012D01*
X217790000Y-86580633D01*
X218003490Y-86523430D01*
X218217577Y-86423600D01*
X218411073Y-86288113D01*
X218578113Y-86121073D01*
X218713600Y-85927577D01*
X218715971Y-85922493D01*
X218757696Y-85877742D01*
X218817756Y-85866062D01*
X218873211Y-85891915D01*
X218888578Y-85910177D01*
X219004277Y-86087268D01*
X219004280Y-86087271D01*
X219156756Y-86252903D01*
X219156762Y-86252908D01*
X219201993Y-86288113D01*
X219334424Y-86391189D01*
X219532426Y-86498342D01*
X219745365Y-86571444D01*
X219967431Y-86608500D01*
X220192569Y-86608500D01*
X220414635Y-86571444D01*
X220627574Y-86498342D01*
X220825576Y-86391189D01*
X221003240Y-86252906D01*
X221124602Y-86121073D01*
X221155717Y-86087274D01*
X221155719Y-86087271D01*
X221155722Y-86087268D01*
X221278860Y-85898791D01*
X221369296Y-85692616D01*
X221424564Y-85474368D01*
X221443156Y-85250000D01*
X221424564Y-85025632D01*
X221369296Y-84807384D01*
X221278860Y-84601209D01*
X221155722Y-84412732D01*
X221155720Y-84412730D01*
X221155717Y-84412725D01*
X221003243Y-84247096D01*
X221003237Y-84247091D01*
X220825579Y-84108813D01*
X220825576Y-84108811D01*
X220748440Y-84067067D01*
X220706263Y-84022744D01*
X220698193Y-83962093D01*
X220727314Y-83908282D01*
X220748441Y-83892932D01*
X220825576Y-83851189D01*
X221003240Y-83712906D01*
X221003243Y-83712903D01*
X221155717Y-83547274D01*
X221155718Y-83547272D01*
X221155722Y-83547268D01*
X221278860Y-83358791D01*
X221369296Y-83152616D01*
X221424564Y-82934368D01*
X221443156Y-82710000D01*
X221424564Y-82485632D01*
X221383232Y-82322416D01*
X221387275Y-82261367D01*
X221421008Y-82218025D01*
X221571253Y-82108866D01*
X221636928Y-82035925D01*
X221689916Y-82005333D01*
X221750766Y-82011728D01*
X221796236Y-82052668D01*
X221809500Y-82102169D01*
X221809500Y-88768855D01*
X221790593Y-88827046D01*
X221741093Y-88863010D01*
X221679907Y-88863010D01*
X221630407Y-88827046D01*
X221621304Y-88811810D01*
X221543980Y-88651246D01*
X221527906Y-88617867D01*
X221342630Y-88323003D01*
X221342627Y-88322999D01*
X221342625Y-88322996D01*
X221125515Y-88050747D01*
X221125509Y-88050741D01*
X221125506Y-88050737D01*
X220879263Y-87804494D01*
X220879258Y-87804490D01*
X220879252Y-87804484D01*
X220607003Y-87587374D01*
X220607000Y-87587372D01*
X220312130Y-87402092D01*
X220312118Y-87402086D01*
X219998379Y-87250998D01*
X219998377Y-87250997D01*
X219669684Y-87135982D01*
X219330173Y-87058491D01*
X219330167Y-87058490D01*
X218984136Y-87019500D01*
X218984120Y-87019500D01*
X218635880Y-87019500D01*
X218635863Y-87019500D01*
X218289832Y-87058490D01*
X218289826Y-87058491D01*
X217950315Y-87135982D01*
X217621622Y-87250997D01*
X217621620Y-87250998D01*
X217307881Y-87402086D01*
X217307869Y-87402092D01*
X217012999Y-87587372D01*
X217012996Y-87587374D01*
X216740747Y-87804484D01*
X216494484Y-88050747D01*
X216277374Y-88322996D01*
X216277372Y-88322999D01*
X216092092Y-88617869D01*
X216092086Y-88617881D01*
X215940998Y-88931620D01*
X215940997Y-88931622D01*
X215825982Y-89260315D01*
X215748491Y-89599826D01*
X215748490Y-89599832D01*
X215709500Y-89945863D01*
X215709500Y-90294136D01*
X215748490Y-90640167D01*
X215748491Y-90640173D01*
X215825982Y-90979684D01*
X215940997Y-91308377D01*
X215940998Y-91308379D01*
X216092086Y-91622118D01*
X216092092Y-91622130D01*
X216277372Y-91917000D01*
X216277374Y-91917003D01*
X216494484Y-92189252D01*
X216494490Y-92189258D01*
X216494494Y-92189263D01*
X216740737Y-92435506D01*
X216740741Y-92435509D01*
X216740747Y-92435515D01*
X217012996Y-92652625D01*
X217013000Y-92652627D01*
X217013003Y-92652630D01*
X217307867Y-92837906D01*
X217501810Y-92931304D01*
X217546034Y-92973587D01*
X217556959Y-93033789D01*
X217530412Y-93088915D01*
X217476532Y-93117909D01*
X217458855Y-93119500D01*
X197161145Y-93119500D01*
X197102954Y-93100593D01*
X197066990Y-93051093D01*
X197066990Y-92989907D01*
X197102954Y-92940407D01*
X197118190Y-92931304D01*
X197312133Y-92837906D01*
X197606997Y-92652630D01*
X197879263Y-92435506D01*
X198125506Y-92189263D01*
X198342630Y-91916997D01*
X198527906Y-91622133D01*
X198679002Y-91308379D01*
X198794018Y-90979681D01*
X198871509Y-90640171D01*
X198903745Y-90354075D01*
X198910499Y-90294136D01*
X198910500Y-90294119D01*
X198910500Y-89945880D01*
X198910499Y-89945863D01*
X198871509Y-89599832D01*
X198871508Y-89599826D01*
X198810034Y-89330492D01*
X198794018Y-89260319D01*
X198679002Y-88931621D01*
X198578112Y-88722121D01*
X198527913Y-88617881D01*
X198527907Y-88617869D01*
X198527906Y-88617867D01*
X198342630Y-88323003D01*
X198342627Y-88322999D01*
X198342625Y-88322996D01*
X198125515Y-88050747D01*
X198125509Y-88050741D01*
X198125506Y-88050737D01*
X197879263Y-87804494D01*
X197879258Y-87804490D01*
X197879252Y-87804484D01*
X197607003Y-87587374D01*
X197607000Y-87587372D01*
X197312130Y-87402092D01*
X197312118Y-87402086D01*
X196998379Y-87250998D01*
X196998377Y-87250997D01*
X196669684Y-87135982D01*
X196330173Y-87058491D01*
X196330167Y-87058490D01*
X195984136Y-87019500D01*
X195984120Y-87019500D01*
X195635880Y-87019500D01*
X195635863Y-87019500D01*
X195289832Y-87058490D01*
X195289826Y-87058491D01*
X194950315Y-87135982D01*
X194621622Y-87250997D01*
X194621620Y-87250998D01*
X194307881Y-87402086D01*
X194307869Y-87402092D01*
X194012999Y-87587372D01*
X194012996Y-87587374D01*
X193740747Y-87804484D01*
X193494484Y-88050747D01*
X193277374Y-88322996D01*
X193277372Y-88322999D01*
X193092092Y-88617869D01*
X193092090Y-88617874D01*
X192998696Y-88811810D01*
X192956413Y-88856034D01*
X192896211Y-88866959D01*
X192841085Y-88840412D01*
X192812091Y-88786532D01*
X192810500Y-88768855D01*
X192810500Y-76863080D01*
X195166500Y-76863080D01*
X195166500Y-77076919D01*
X195199950Y-77288113D01*
X195266027Y-77491481D01*
X195358010Y-77672009D01*
X195363106Y-77682009D01*
X195488794Y-77855004D01*
X195639996Y-78006206D01*
X195810384Y-78130000D01*
X195812994Y-78131896D01*
X195816310Y-78133928D01*
X195815784Y-78134785D01*
X195856055Y-78175064D01*
X195865620Y-78235497D01*
X195837837Y-78290011D01*
X195816131Y-78305780D01*
X195816310Y-78306072D01*
X195812994Y-78308103D01*
X195639997Y-78433793D01*
X195488793Y-78584997D01*
X195363104Y-78757993D01*
X195266027Y-78948518D01*
X195199950Y-79151886D01*
X195166500Y-79363080D01*
X195166500Y-79576919D01*
X195199950Y-79788113D01*
X195266027Y-79991481D01*
X195358010Y-80172009D01*
X195363106Y-80182009D01*
X195488794Y-80355004D01*
X195639996Y-80506206D01*
X195642854Y-80508282D01*
X195678819Y-80557781D01*
X195678822Y-80618966D01*
X195642860Y-80668468D01*
X195615810Y-80682351D01*
X195605874Y-80685643D01*
X195456659Y-80777680D01*
X195332680Y-80901659D01*
X195240643Y-81050875D01*
X195185493Y-81217306D01*
X195175000Y-81320012D01*
X195175000Y-81719999D01*
X195175001Y-81720000D01*
X196245854Y-81720000D01*
X196207370Y-81786657D01*
X196175000Y-81907465D01*
X196175000Y-82032535D01*
X196207370Y-82153343D01*
X196245854Y-82220000D01*
X195175002Y-82220000D01*
X195175001Y-82220001D01*
X195175001Y-82619986D01*
X195185492Y-82722687D01*
X195185495Y-82722699D01*
X195240643Y-82889124D01*
X195332680Y-83038340D01*
X195456659Y-83162319D01*
X195605875Y-83254356D01*
X195772306Y-83309506D01*
X195875012Y-83319999D01*
X196399998Y-83319999D01*
X196400000Y-83319998D01*
X196400000Y-82374145D01*
X196466657Y-82412630D01*
X196587465Y-82445000D01*
X196712535Y-82445000D01*
X196833343Y-82412630D01*
X196900000Y-82374145D01*
X196900000Y-83319998D01*
X196900001Y-83319999D01*
X197424986Y-83319999D01*
X197527687Y-83309507D01*
X197527699Y-83309504D01*
X197694124Y-83254356D01*
X197843340Y-83162319D01*
X197967319Y-83038340D01*
X198059356Y-82889124D01*
X198114506Y-82722693D01*
X198125000Y-82619987D01*
X198125000Y-82220001D01*
X198124999Y-82220000D01*
X197054146Y-82220000D01*
X197092630Y-82153343D01*
X197125000Y-82032535D01*
X197125000Y-81907465D01*
X197092630Y-81786657D01*
X197054146Y-81720000D01*
X198124998Y-81720000D01*
X198124999Y-81719999D01*
X198124999Y-81320013D01*
X198114507Y-81217312D01*
X198114504Y-81217300D01*
X198059356Y-81050875D01*
X197967319Y-80901659D01*
X197843340Y-80777680D01*
X197694123Y-80685642D01*
X197684191Y-80682351D01*
X197634902Y-80646099D01*
X197616335Y-80587799D01*
X197635581Y-80529720D01*
X197657152Y-80508278D01*
X197659998Y-80506210D01*
X197660004Y-80506206D01*
X197811206Y-80355004D01*
X197936894Y-80182009D01*
X198033972Y-79991483D01*
X198100049Y-79788116D01*
X198133500Y-79576916D01*
X198133500Y-79363084D01*
X198133500Y-79363080D01*
X198102458Y-79167094D01*
X198100049Y-79151884D01*
X198033972Y-78948517D01*
X197936894Y-78757991D01*
X197811206Y-78584996D01*
X197660004Y-78433794D01*
X197487009Y-78308106D01*
X197487005Y-78308103D01*
X197483690Y-78306072D01*
X197484216Y-78305212D01*
X197443949Y-78264947D01*
X197434377Y-78204515D01*
X197462153Y-78149998D01*
X197483869Y-78134220D01*
X197483690Y-78133928D01*
X197487005Y-78131896D01*
X197487004Y-78131896D01*
X197487009Y-78131894D01*
X197660004Y-78006206D01*
X197811206Y-77855004D01*
X197936894Y-77682009D01*
X198033972Y-77491483D01*
X198100049Y-77288116D01*
X198123331Y-77141119D01*
X198133500Y-77076919D01*
X198133500Y-76863080D01*
X198100049Y-76651886D01*
X198100049Y-76651884D01*
X198033972Y-76448517D01*
X197936894Y-76257991D01*
X197811206Y-76084996D01*
X197660004Y-75933794D01*
X197487009Y-75808106D01*
X197487008Y-75808105D01*
X197487006Y-75808104D01*
X197296481Y-75711027D01*
X197093113Y-75644950D01*
X196881919Y-75611500D01*
X196881916Y-75611500D01*
X196418084Y-75611500D01*
X196418081Y-75611500D01*
X196206886Y-75644950D01*
X196003518Y-75711027D01*
X195812993Y-75808104D01*
X195639997Y-75933793D01*
X195488793Y-76084997D01*
X195363104Y-76257993D01*
X195266027Y-76448518D01*
X195199950Y-76651886D01*
X195166500Y-76863080D01*
X192810500Y-76863080D01*
X192810500Y-66463080D01*
X195141500Y-66463080D01*
X195141500Y-66676919D01*
X195174950Y-66888113D01*
X195241027Y-67091481D01*
X195306510Y-67220000D01*
X195338106Y-67282009D01*
X195463794Y-67455004D01*
X195614996Y-67606206D01*
X195617854Y-67608282D01*
X195653819Y-67657781D01*
X195653822Y-67718966D01*
X195617860Y-67768468D01*
X195590810Y-67782351D01*
X195580874Y-67785643D01*
X195431659Y-67877680D01*
X195307680Y-68001659D01*
X195215643Y-68150875D01*
X195160493Y-68317306D01*
X195150000Y-68420012D01*
X195150000Y-68819999D01*
X195150001Y-68820000D01*
X196216988Y-68820000D01*
X196184075Y-68877007D01*
X196150000Y-69004174D01*
X196150000Y-69135826D01*
X196184075Y-69262993D01*
X196216988Y-69320000D01*
X195150002Y-69320000D01*
X195150001Y-69320001D01*
X195150001Y-69719986D01*
X195160492Y-69822687D01*
X195160495Y-69822699D01*
X195215643Y-69989124D01*
X195307680Y-70138340D01*
X195431659Y-70262319D01*
X195580875Y-70354356D01*
X195747306Y-70409506D01*
X195850012Y-70419999D01*
X196399998Y-70419999D01*
X196400000Y-70419998D01*
X196400000Y-69503012D01*
X196457007Y-69535925D01*
X196584174Y-69570000D01*
X196715826Y-69570000D01*
X196842993Y-69535925D01*
X196900000Y-69503012D01*
X196900000Y-70419998D01*
X196900001Y-70419999D01*
X197449986Y-70419999D01*
X197552687Y-70409507D01*
X197552699Y-70409504D01*
X197719124Y-70354356D01*
X197868340Y-70262319D01*
X197992319Y-70138340D01*
X198084356Y-69989124D01*
X198139506Y-69822693D01*
X198150000Y-69719987D01*
X198150000Y-69320001D01*
X198149999Y-69320000D01*
X197083012Y-69320000D01*
X197115925Y-69262993D01*
X197150000Y-69135826D01*
X197150000Y-69004174D01*
X197115925Y-68877007D01*
X197083012Y-68820000D01*
X198149998Y-68820000D01*
X198149999Y-68819999D01*
X198149999Y-68420013D01*
X198139507Y-68317312D01*
X198139504Y-68317300D01*
X198084356Y-68150875D01*
X197992319Y-68001659D01*
X197868340Y-67877680D01*
X197719123Y-67785642D01*
X197709191Y-67782351D01*
X197659902Y-67746099D01*
X197641335Y-67687799D01*
X197660581Y-67629720D01*
X197682152Y-67608278D01*
X197684998Y-67606210D01*
X197685004Y-67606206D01*
X197836206Y-67455004D01*
X197961894Y-67282009D01*
X198058972Y-67091483D01*
X198125049Y-66888116D01*
X198158500Y-66676916D01*
X198158500Y-66463084D01*
X198158500Y-66463080D01*
X198130848Y-66288500D01*
X198125049Y-66251884D01*
X198058972Y-66048517D01*
X197961894Y-65857991D01*
X197836206Y-65684996D01*
X197685004Y-65533794D01*
X197512009Y-65408106D01*
X197512008Y-65408105D01*
X197512006Y-65408104D01*
X197321481Y-65311027D01*
X197118113Y-65244950D01*
X196906919Y-65211500D01*
X196906916Y-65211500D01*
X196393084Y-65211500D01*
X196393081Y-65211500D01*
X196181886Y-65244950D01*
X195978518Y-65311027D01*
X195787993Y-65408104D01*
X195614997Y-65533793D01*
X195463793Y-65684997D01*
X195338104Y-65857993D01*
X195241027Y-66048518D01*
X195174950Y-66251886D01*
X195141500Y-66463080D01*
X192810500Y-66463080D01*
X192810500Y-58063080D01*
X195141500Y-58063080D01*
X195141500Y-58276919D01*
X195174950Y-58488113D01*
X195241027Y-58691481D01*
X195270955Y-58750219D01*
X195338106Y-58882009D01*
X195463794Y-59055004D01*
X195614996Y-59206206D01*
X195617854Y-59208282D01*
X195653819Y-59257781D01*
X195653822Y-59318966D01*
X195617860Y-59368468D01*
X195590810Y-59382351D01*
X195580874Y-59385643D01*
X195431659Y-59477680D01*
X195307680Y-59601659D01*
X195215643Y-59750875D01*
X195160493Y-59917306D01*
X195150000Y-60020012D01*
X195150000Y-60419999D01*
X195150001Y-60420000D01*
X196216988Y-60420000D01*
X196184075Y-60477007D01*
X196150000Y-60604174D01*
X196150000Y-60735826D01*
X196184075Y-60862993D01*
X196216988Y-60920000D01*
X195150002Y-60920000D01*
X195150001Y-60920001D01*
X195150001Y-61319986D01*
X195160492Y-61422687D01*
X195160495Y-61422699D01*
X195215643Y-61589124D01*
X195307680Y-61738340D01*
X195431659Y-61862319D01*
X195580875Y-61954356D01*
X195747306Y-62009506D01*
X195850012Y-62019999D01*
X196399998Y-62019999D01*
X196400000Y-62019998D01*
X196400000Y-61103012D01*
X196457007Y-61135925D01*
X196584174Y-61170000D01*
X196715826Y-61170000D01*
X196842993Y-61135925D01*
X196900000Y-61103012D01*
X196900000Y-62019998D01*
X196900001Y-62019999D01*
X197449986Y-62019999D01*
X197552687Y-62009507D01*
X197552699Y-62009504D01*
X197719124Y-61954356D01*
X197868340Y-61862319D01*
X197992319Y-61738340D01*
X198084356Y-61589124D01*
X198139506Y-61422693D01*
X198150000Y-61319987D01*
X198150000Y-60920001D01*
X198149999Y-60920000D01*
X197083012Y-60920000D01*
X197115925Y-60862993D01*
X197150000Y-60735826D01*
X197150000Y-60604174D01*
X197115925Y-60477007D01*
X197083012Y-60420000D01*
X198149998Y-60420000D01*
X198149999Y-60419999D01*
X198149999Y-60020013D01*
X198139507Y-59917312D01*
X198139504Y-59917300D01*
X198084356Y-59750875D01*
X197992319Y-59601659D01*
X197868340Y-59477680D01*
X197719123Y-59385642D01*
X197709191Y-59382351D01*
X197659902Y-59346099D01*
X197641335Y-59287799D01*
X197660581Y-59229720D01*
X197682152Y-59208278D01*
X197684998Y-59206210D01*
X197685004Y-59206206D01*
X197836206Y-59055004D01*
X197961894Y-58882009D01*
X198058972Y-58691483D01*
X198125049Y-58488116D01*
X198145659Y-58357991D01*
X198158500Y-58276919D01*
X198158500Y-58063080D01*
X198125049Y-57851886D01*
X198125049Y-57851884D01*
X198058972Y-57648517D01*
X197961894Y-57457991D01*
X197836206Y-57284996D01*
X197685004Y-57133794D01*
X197512009Y-57008106D01*
X197512008Y-57008105D01*
X197512006Y-57008104D01*
X197321481Y-56911027D01*
X197118113Y-56844950D01*
X196906919Y-56811500D01*
X196906916Y-56811500D01*
X196393084Y-56811500D01*
X196393081Y-56811500D01*
X196181886Y-56844950D01*
X195978518Y-56911027D01*
X195787993Y-57008104D01*
X195614997Y-57133793D01*
X195463793Y-57284997D01*
X195338104Y-57457993D01*
X195241027Y-57648518D01*
X195174950Y-57851886D01*
X195141500Y-58063080D01*
X192810500Y-58063080D01*
X192810500Y-44663080D01*
X195166500Y-44663080D01*
X195166500Y-44876919D01*
X195199950Y-45088113D01*
X195266027Y-45291481D01*
X195345407Y-45447274D01*
X195363106Y-45482009D01*
X195488794Y-45655004D01*
X195639996Y-45806206D01*
X195741565Y-45880000D01*
X195812994Y-45931896D01*
X195816310Y-45933928D01*
X195815784Y-45934785D01*
X195856055Y-45975064D01*
X195865620Y-46035497D01*
X195837837Y-46090011D01*
X195816131Y-46105780D01*
X195816310Y-46106072D01*
X195812994Y-46108103D01*
X195639997Y-46233793D01*
X195488793Y-46384997D01*
X195363104Y-46557993D01*
X195266027Y-46748518D01*
X195199950Y-46951886D01*
X195166500Y-47163080D01*
X195166500Y-47376919D01*
X195199950Y-47588113D01*
X195208986Y-47615925D01*
X195266028Y-47791483D01*
X195363106Y-47982009D01*
X195488794Y-48155004D01*
X195639996Y-48306206D01*
X195799529Y-48422113D01*
X195812994Y-48431896D01*
X195816310Y-48433928D01*
X195815784Y-48434785D01*
X195856055Y-48475064D01*
X195865620Y-48535497D01*
X195837837Y-48590011D01*
X195816131Y-48605780D01*
X195816310Y-48606072D01*
X195812994Y-48608103D01*
X195639997Y-48733793D01*
X195488793Y-48884997D01*
X195363104Y-49057993D01*
X195266027Y-49248518D01*
X195199950Y-49451886D01*
X195166500Y-49663080D01*
X195166500Y-49876919D01*
X195199950Y-50088113D01*
X195266027Y-50291481D01*
X195331792Y-50420553D01*
X195363106Y-50482009D01*
X195488794Y-50655004D01*
X195639996Y-50806206D01*
X195642854Y-50808282D01*
X195678819Y-50857781D01*
X195678822Y-50918966D01*
X195642860Y-50968468D01*
X195615810Y-50982351D01*
X195605874Y-50985643D01*
X195456659Y-51077680D01*
X195332680Y-51201659D01*
X195240643Y-51350875D01*
X195185493Y-51517306D01*
X195175000Y-51620012D01*
X195175000Y-52019999D01*
X195175001Y-52020000D01*
X196245854Y-52020000D01*
X196207370Y-52086657D01*
X196175000Y-52207465D01*
X196175000Y-52332535D01*
X196207370Y-52453343D01*
X196245854Y-52520000D01*
X195175002Y-52520000D01*
X195175001Y-52520001D01*
X195175001Y-52919986D01*
X195185492Y-53022687D01*
X195185495Y-53022699D01*
X195240643Y-53189124D01*
X195332680Y-53338340D01*
X195456659Y-53462319D01*
X195605875Y-53554356D01*
X195772306Y-53609506D01*
X195875012Y-53619999D01*
X196399998Y-53619999D01*
X196400000Y-53619998D01*
X196400000Y-52674145D01*
X196466657Y-52712630D01*
X196587465Y-52745000D01*
X196712535Y-52745000D01*
X196833343Y-52712630D01*
X196900000Y-52674145D01*
X196900000Y-53619998D01*
X196900001Y-53619999D01*
X197424986Y-53619999D01*
X197527687Y-53609507D01*
X197527699Y-53609504D01*
X197694124Y-53554356D01*
X197843340Y-53462319D01*
X197967319Y-53338340D01*
X198059356Y-53189124D01*
X198114506Y-53022693D01*
X198125000Y-52919987D01*
X198125000Y-52520001D01*
X198124999Y-52520000D01*
X197054146Y-52520000D01*
X197092630Y-52453343D01*
X197125000Y-52332535D01*
X197125000Y-52207465D01*
X197092630Y-52086657D01*
X197054146Y-52020000D01*
X198124998Y-52020000D01*
X198124999Y-52019999D01*
X198124999Y-51620013D01*
X198114507Y-51517312D01*
X198114504Y-51517300D01*
X198059356Y-51350875D01*
X197967319Y-51201659D01*
X197843340Y-51077680D01*
X197694123Y-50985642D01*
X197684191Y-50982351D01*
X197634902Y-50946099D01*
X197616335Y-50887799D01*
X197635581Y-50829720D01*
X197657152Y-50808278D01*
X197659998Y-50806210D01*
X197660004Y-50806206D01*
X197811206Y-50655004D01*
X197936894Y-50482009D01*
X198033972Y-50291483D01*
X198100049Y-50088116D01*
X198127568Y-49914368D01*
X198133500Y-49876919D01*
X198133500Y-49663080D01*
X198111199Y-49522284D01*
X198100049Y-49451884D01*
X198033972Y-49248517D01*
X197936894Y-49057991D01*
X197811206Y-48884996D01*
X197660004Y-48733794D01*
X197487009Y-48608106D01*
X197487005Y-48608103D01*
X197483690Y-48606072D01*
X197484216Y-48605212D01*
X197443949Y-48564947D01*
X197434377Y-48504515D01*
X197462153Y-48449998D01*
X197483869Y-48434220D01*
X197483690Y-48433928D01*
X197487005Y-48431896D01*
X197487004Y-48431896D01*
X197487009Y-48431894D01*
X197660004Y-48306206D01*
X197811206Y-48155004D01*
X197936894Y-47982009D01*
X198033972Y-47791483D01*
X198100049Y-47588116D01*
X198129844Y-47400000D01*
X198133500Y-47376919D01*
X198133500Y-47163080D01*
X198100860Y-46957007D01*
X198100049Y-46951884D01*
X198033972Y-46748517D01*
X197936894Y-46557991D01*
X197811206Y-46384996D01*
X197660004Y-46233794D01*
X197487009Y-46108106D01*
X197487005Y-46108103D01*
X197483690Y-46106072D01*
X197484216Y-46105212D01*
X197443949Y-46064947D01*
X197434377Y-46004515D01*
X197462153Y-45949998D01*
X197483869Y-45934220D01*
X197483690Y-45933928D01*
X197487005Y-45931896D01*
X197487004Y-45931896D01*
X197487009Y-45931894D01*
X197660004Y-45806206D01*
X197811206Y-45655004D01*
X197936894Y-45482009D01*
X198033972Y-45291483D01*
X198100049Y-45088116D01*
X198133500Y-44876916D01*
X198133500Y-44663084D01*
X198133500Y-44663080D01*
X198100049Y-44451886D01*
X198100049Y-44451884D01*
X198033972Y-44248517D01*
X197936894Y-44057991D01*
X197811206Y-43884996D01*
X197660004Y-43733794D01*
X197487009Y-43608106D01*
X197487008Y-43608105D01*
X197487006Y-43608104D01*
X197296481Y-43511027D01*
X197093113Y-43444950D01*
X196881919Y-43411500D01*
X196881916Y-43411500D01*
X196418084Y-43411500D01*
X196418081Y-43411500D01*
X196206886Y-43444950D01*
X196003518Y-43511027D01*
X195812993Y-43608104D01*
X195639997Y-43733793D01*
X195488793Y-43884997D01*
X195363104Y-44057993D01*
X195266027Y-44248518D01*
X195199950Y-44451886D01*
X195166500Y-44663080D01*
X192810500Y-44663080D01*
X192810500Y-33471144D01*
X192829407Y-33412953D01*
X192878907Y-33376989D01*
X192940093Y-33376989D01*
X192989593Y-33412953D01*
X192998696Y-33428190D01*
X193092086Y-33622118D01*
X193092092Y-33622130D01*
X193277372Y-33917000D01*
X193277374Y-33917003D01*
X193494484Y-34189252D01*
X193494490Y-34189258D01*
X193494494Y-34189263D01*
X193740737Y-34435506D01*
X193740741Y-34435509D01*
X193740747Y-34435515D01*
X194012996Y-34652625D01*
X194013000Y-34652627D01*
X194013003Y-34652630D01*
X194244082Y-34797827D01*
X194307869Y-34837907D01*
X194307881Y-34837913D01*
X194397004Y-34880832D01*
X194621621Y-34989002D01*
X194775062Y-35042693D01*
X194950315Y-35104017D01*
X194950318Y-35104017D01*
X194950319Y-35104018D01*
X195289829Y-35181509D01*
X195370655Y-35190616D01*
X195635863Y-35220499D01*
X195635879Y-35220499D01*
X195635880Y-35220500D01*
X195635881Y-35220500D01*
X195984119Y-35220500D01*
X195984120Y-35220500D01*
X195984121Y-35220499D01*
X195984136Y-35220499D01*
X196205749Y-35195528D01*
X196330171Y-35181509D01*
X196669681Y-35104018D01*
X196998379Y-34989002D01*
X197312133Y-34837906D01*
X197606997Y-34652630D01*
X197804660Y-34495000D01*
X197879252Y-34435515D01*
X197879253Y-34435513D01*
X197879263Y-34435506D01*
X198125506Y-34189263D01*
X198342630Y-33916997D01*
X198527906Y-33622133D01*
X198679002Y-33308379D01*
X198794018Y-32979681D01*
X198871509Y-32640171D01*
X198885528Y-32515749D01*
X198910499Y-32294136D01*
X198910500Y-32294119D01*
X198910500Y-31945880D01*
X198910499Y-31945863D01*
X198871509Y-31599832D01*
X198871508Y-31599826D01*
X198828885Y-31413084D01*
X198794018Y-31260319D01*
X198773571Y-31201886D01*
X198679002Y-30931622D01*
X198679002Y-30931621D01*
X198578112Y-30722121D01*
X198527913Y-30617881D01*
X198527907Y-30617869D01*
X198415701Y-30439295D01*
X198342630Y-30323003D01*
X198342627Y-30322999D01*
X198342625Y-30322996D01*
X198125515Y-30050747D01*
X198125509Y-30050741D01*
X198125506Y-30050737D01*
X197879263Y-29804494D01*
X197879258Y-29804490D01*
X197879252Y-29804484D01*
X197607003Y-29587374D01*
X197607000Y-29587372D01*
X197312130Y-29402092D01*
X197312125Y-29402090D01*
X197118190Y-29308696D01*
X197073966Y-29266413D01*
X197063041Y-29206211D01*
X197089588Y-29151085D01*
X197143468Y-29122091D01*
X197161145Y-29120500D01*
X217458855Y-29120500D01*
X217517046Y-29139407D01*
G37*
G04 #@! TD.AperFunction*
G04 #@! TA.AperFunction,Conductor*
G36*
X218887109Y-83368816D02*
G01*
X218892870Y-83376746D01*
X219004278Y-83547268D01*
X219004282Y-83547274D01*
X219156756Y-83712903D01*
X219156762Y-83712908D01*
X219334420Y-83851186D01*
X219334424Y-83851189D01*
X219381506Y-83876668D01*
X219411558Y-83892932D01*
X219453736Y-83937257D01*
X219461806Y-83997908D01*
X219432685Y-84051718D01*
X219411558Y-84067068D01*
X219334423Y-84108811D01*
X219334420Y-84108813D01*
X219156762Y-84247091D01*
X219156756Y-84247096D01*
X219004280Y-84412728D01*
X219004277Y-84412731D01*
X218888578Y-84589823D01*
X218840923Y-84628197D01*
X218779812Y-84631231D01*
X218728590Y-84597765D01*
X218715973Y-84577511D01*
X218713601Y-84572424D01*
X218578113Y-84378926D01*
X218411073Y-84211886D01*
X218217576Y-84076398D01*
X218217573Y-84076396D01*
X218208880Y-84072343D01*
X218164132Y-84030615D01*
X218152458Y-83970554D01*
X218178316Y-83915101D01*
X218203602Y-83895551D01*
X218208441Y-83892932D01*
X218285576Y-83851189D01*
X218463240Y-83712906D01*
X218463243Y-83712903D01*
X218615717Y-83547274D01*
X218615718Y-83547272D01*
X218615722Y-83547268D01*
X218727121Y-83376757D01*
X218774776Y-83338385D01*
X218835886Y-83335351D01*
X218887109Y-83368816D01*
G37*
G04 #@! TD.AperFunction*
G04 #@! TA.AperFunction,Conductor*
G36*
X218887109Y-80828816D02*
G01*
X218892870Y-80836746D01*
X219004278Y-81007268D01*
X219004282Y-81007274D01*
X219156756Y-81172903D01*
X219156762Y-81172908D01*
X219213804Y-81217306D01*
X219334424Y-81311189D01*
X219381506Y-81336668D01*
X219411558Y-81352932D01*
X219453736Y-81397257D01*
X219461806Y-81457908D01*
X219432685Y-81511718D01*
X219411558Y-81527068D01*
X219334423Y-81568811D01*
X219334420Y-81568813D01*
X219156762Y-81707091D01*
X219156756Y-81707096D01*
X219004280Y-81872728D01*
X219004277Y-81872731D01*
X218892879Y-82043240D01*
X218845224Y-82081614D01*
X218784114Y-82084648D01*
X218732891Y-82051182D01*
X218727121Y-82043240D01*
X218615722Y-81872731D01*
X218615719Y-81872728D01*
X218463243Y-81707096D01*
X218463237Y-81707091D01*
X218285579Y-81568813D01*
X218285576Y-81568811D01*
X218208440Y-81527067D01*
X218166263Y-81482744D01*
X218158193Y-81422093D01*
X218187314Y-81368282D01*
X218208441Y-81352932D01*
X218285576Y-81311189D01*
X218463240Y-81172906D01*
X218463243Y-81172903D01*
X218615717Y-81007274D01*
X218615718Y-81007272D01*
X218615722Y-81007268D01*
X218727121Y-80836757D01*
X218774776Y-80798385D01*
X218835886Y-80795351D01*
X218887109Y-80828816D01*
G37*
G04 #@! TD.AperFunction*
G04 #@! TA.AperFunction,Conductor*
G36*
X218891409Y-78282234D02*
G01*
X218904024Y-78302485D01*
X218906396Y-78307572D01*
X218906398Y-78307576D01*
X219041886Y-78501073D01*
X219208926Y-78668113D01*
X219402423Y-78803601D01*
X219411115Y-78807654D01*
X219455865Y-78849381D01*
X219467541Y-78909442D01*
X219441685Y-78964896D01*
X219416399Y-78984447D01*
X219334428Y-79028808D01*
X219334420Y-79028813D01*
X219156762Y-79167091D01*
X219156756Y-79167096D01*
X219004280Y-79332728D01*
X219004277Y-79332731D01*
X218892879Y-79503240D01*
X218845224Y-79541614D01*
X218784114Y-79544648D01*
X218732891Y-79511182D01*
X218727121Y-79503240D01*
X218615722Y-79332731D01*
X218615719Y-79332728D01*
X218463243Y-79167096D01*
X218463237Y-79167091D01*
X218285579Y-79028813D01*
X218285576Y-79028811D01*
X218208441Y-78987068D01*
X218166263Y-78942744D01*
X218158193Y-78882093D01*
X218187314Y-78828282D01*
X218208441Y-78812932D01*
X218285576Y-78771189D01*
X218463240Y-78632906D01*
X218516550Y-78574997D01*
X218615717Y-78467274D01*
X218615718Y-78467272D01*
X218615722Y-78467268D01*
X218731422Y-78290175D01*
X218779076Y-78251803D01*
X218840186Y-78248769D01*
X218891409Y-78282234D01*
G37*
G04 #@! TD.AperFunction*
G04 #@! TA.AperFunction,Conductor*
G36*
X216140691Y-36247407D02*
G01*
X216176655Y-36296907D01*
X216181500Y-36327500D01*
X216181500Y-37888634D01*
X216188010Y-37949199D01*
X216188011Y-37949201D01*
X216239111Y-38086204D01*
X216239112Y-38086206D01*
X216239113Y-38086207D01*
X216321666Y-38196485D01*
X216326739Y-38203261D01*
X216443796Y-38290889D01*
X216580799Y-38341989D01*
X216580802Y-38341989D01*
X216586829Y-38343414D01*
X216586345Y-38345461D01*
X216633733Y-38366682D01*
X216664212Y-38419736D01*
X216657685Y-38480572D01*
X216628143Y-38518232D01*
X216616765Y-38527088D01*
X216616756Y-38527096D01*
X216464282Y-38692725D01*
X216384052Y-38815526D01*
X216341140Y-38881209D01*
X216250704Y-39087384D01*
X216223070Y-39196508D01*
X216195435Y-39305633D01*
X216176844Y-39530000D01*
X216195435Y-39754366D01*
X216195436Y-39754368D01*
X216250704Y-39972616D01*
X216341140Y-40178791D01*
X216464278Y-40367268D01*
X216464282Y-40367274D01*
X216616756Y-40532903D01*
X216616762Y-40532908D01*
X216794420Y-40671186D01*
X216794424Y-40671189D01*
X216841506Y-40696668D01*
X216871558Y-40712932D01*
X216913736Y-40757257D01*
X216921806Y-40817908D01*
X216892685Y-40871718D01*
X216871558Y-40887068D01*
X216794423Y-40928811D01*
X216794420Y-40928813D01*
X216616762Y-41067091D01*
X216616756Y-41067096D01*
X216464282Y-41232725D01*
X216384052Y-41355526D01*
X216343503Y-41417593D01*
X216341139Y-41421211D01*
X216334433Y-41436500D01*
X216250704Y-41627384D01*
X216223070Y-41736508D01*
X216195435Y-41845633D01*
X216176844Y-42070000D01*
X216195435Y-42294366D01*
X216195436Y-42294368D01*
X216250704Y-42512616D01*
X216341140Y-42718791D01*
X216446508Y-42880069D01*
X216464282Y-42907274D01*
X216616756Y-43072903D01*
X216616762Y-43072908D01*
X216794420Y-43211186D01*
X216794424Y-43211189D01*
X216824557Y-43227496D01*
X216871558Y-43252932D01*
X216913736Y-43297257D01*
X216921806Y-43357908D01*
X216892685Y-43411718D01*
X216871558Y-43427068D01*
X216794423Y-43468811D01*
X216794420Y-43468813D01*
X216616762Y-43607091D01*
X216616756Y-43607096D01*
X216464282Y-43772725D01*
X216430590Y-43824295D01*
X216341140Y-43961209D01*
X216250704Y-44167384D01*
X216230158Y-44248517D01*
X216195435Y-44385633D01*
X216176844Y-44610000D01*
X216195435Y-44834366D01*
X216206211Y-44876919D01*
X216250704Y-45052616D01*
X216341140Y-45258791D01*
X216464278Y-45447268D01*
X216464282Y-45447274D01*
X216616756Y-45612903D01*
X216616762Y-45612908D01*
X216794420Y-45751186D01*
X216794424Y-45751189D01*
X216794428Y-45751191D01*
X216876398Y-45795551D01*
X216918577Y-45839875D01*
X216926647Y-45900526D01*
X216897526Y-45954337D01*
X216871122Y-45972342D01*
X216862429Y-45976395D01*
X216862424Y-45976398D01*
X216668926Y-46111886D01*
X216501886Y-46278926D01*
X216366398Y-46472424D01*
X216366394Y-46472432D01*
X216266570Y-46686505D01*
X216209364Y-46900000D01*
X217106988Y-46900000D01*
X217074075Y-46957007D01*
X217040000Y-47084174D01*
X217040000Y-47215826D01*
X217074075Y-47342993D01*
X217106988Y-47400000D01*
X216209364Y-47400000D01*
X216266569Y-47613489D01*
X216366399Y-47827577D01*
X216501886Y-48021073D01*
X216668926Y-48188113D01*
X216862423Y-48323601D01*
X216871115Y-48327654D01*
X216915865Y-48369381D01*
X216927541Y-48429442D01*
X216901685Y-48484896D01*
X216876399Y-48504447D01*
X216794428Y-48548808D01*
X216794420Y-48548813D01*
X216616762Y-48687091D01*
X216616756Y-48687096D01*
X216464282Y-48852725D01*
X216443198Y-48884997D01*
X216341140Y-49041209D01*
X216250704Y-49247384D01*
X216224671Y-49350185D01*
X216195435Y-49465633D01*
X216176844Y-49690000D01*
X216195435Y-49914366D01*
X216195436Y-49914368D01*
X216250704Y-50132616D01*
X216341140Y-50338791D01*
X216394558Y-50420553D01*
X216464282Y-50527274D01*
X216616756Y-50692903D01*
X216616762Y-50692908D01*
X216794419Y-50831185D01*
X216794424Y-50831189D01*
X216817450Y-50843650D01*
X216871558Y-50872932D01*
X216913736Y-50917257D01*
X216921806Y-50977908D01*
X216892685Y-51031718D01*
X216871558Y-51047068D01*
X216794423Y-51088811D01*
X216794420Y-51088813D01*
X216616762Y-51227091D01*
X216616756Y-51227096D01*
X216464282Y-51392725D01*
X216446463Y-51420000D01*
X216341140Y-51581209D01*
X216250704Y-51787384D01*
X216224742Y-51889905D01*
X216195435Y-52005633D01*
X216176844Y-52230000D01*
X216195435Y-52454366D01*
X216213698Y-52526485D01*
X216250704Y-52672616D01*
X216341140Y-52878791D01*
X216435152Y-53022687D01*
X216464282Y-53067274D01*
X216616756Y-53232903D01*
X216616762Y-53232908D01*
X216772088Y-53353804D01*
X216794424Y-53371189D01*
X216825435Y-53387971D01*
X216871558Y-53412932D01*
X216913736Y-53457257D01*
X216921806Y-53517908D01*
X216892685Y-53571718D01*
X216871558Y-53587068D01*
X216794423Y-53628811D01*
X216794420Y-53628813D01*
X216616762Y-53767091D01*
X216616756Y-53767096D01*
X216464282Y-53932725D01*
X216384052Y-54055526D01*
X216341140Y-54121209D01*
X216250704Y-54327384D01*
X216223070Y-54436508D01*
X216195435Y-54545633D01*
X216176844Y-54770000D01*
X216195435Y-54994366D01*
X216195436Y-54994368D01*
X216250704Y-55212616D01*
X216341140Y-55418791D01*
X216464278Y-55607268D01*
X216464282Y-55607274D01*
X216616756Y-55772903D01*
X216616762Y-55772908D01*
X216785396Y-55904162D01*
X216794424Y-55911189D01*
X216841506Y-55936668D01*
X216871558Y-55952932D01*
X216913736Y-55997257D01*
X216921806Y-56057908D01*
X216892685Y-56111718D01*
X216871558Y-56127068D01*
X216794423Y-56168811D01*
X216794420Y-56168813D01*
X216616762Y-56307091D01*
X216616756Y-56307096D01*
X216464282Y-56472726D01*
X216464278Y-56472731D01*
X216464278Y-56472732D01*
X216442118Y-56506648D01*
X216394464Y-56545022D01*
X216359240Y-56551500D01*
X213935189Y-56551500D01*
X213876998Y-56532593D01*
X213865185Y-56522504D01*
X210865489Y-53522808D01*
X210837712Y-53468291D01*
X210847283Y-53407859D01*
X210890548Y-53364594D01*
X210935493Y-53353804D01*
X211020485Y-53353804D01*
X211020488Y-53353804D01*
X211207289Y-53314098D01*
X211381753Y-53236422D01*
X211536254Y-53124170D01*
X211547608Y-53111559D01*
X211600596Y-53080967D01*
X211621179Y-53078804D01*
X212583597Y-53078804D01*
X212641788Y-53097711D01*
X212657169Y-53111561D01*
X212663743Y-53118862D01*
X212663742Y-53118862D01*
X212663746Y-53118864D01*
X212663747Y-53118866D01*
X212818248Y-53231118D01*
X212818253Y-53231120D01*
X212818258Y-53231123D01*
X212948222Y-53288986D01*
X212992712Y-53308794D01*
X213179513Y-53348500D01*
X213179516Y-53348500D01*
X213370484Y-53348500D01*
X213370487Y-53348500D01*
X213557288Y-53308794D01*
X213731752Y-53231118D01*
X213886253Y-53118866D01*
X214014040Y-52976944D01*
X214109527Y-52811556D01*
X214168542Y-52629928D01*
X214188504Y-52440000D01*
X214168542Y-52250072D01*
X214109527Y-52068444D01*
X214058174Y-51979499D01*
X214045453Y-51919653D01*
X214058174Y-51880501D01*
X214109527Y-51791556D01*
X214168542Y-51609928D01*
X214188504Y-51420000D01*
X214168542Y-51230072D01*
X214109527Y-51048444D01*
X214109524Y-51048439D01*
X214109522Y-51048434D01*
X214045959Y-50938342D01*
X214014040Y-50883056D01*
X213886253Y-50741134D01*
X213731752Y-50628882D01*
X213731748Y-50628880D01*
X213731741Y-50628876D01*
X213557294Y-50551208D01*
X213557289Y-50551206D01*
X213557288Y-50551206D01*
X213557285Y-50551205D01*
X213557284Y-50551205D01*
X213521755Y-50543653D01*
X213370487Y-50511500D01*
X213179513Y-50511500D01*
X213076741Y-50533345D01*
X212992715Y-50551205D01*
X212992705Y-50551208D01*
X212818258Y-50628876D01*
X212818251Y-50628880D01*
X212663745Y-50741135D01*
X212652393Y-50753744D01*
X212599405Y-50784337D01*
X212578822Y-50786500D01*
X211673144Y-50786500D01*
X211614953Y-50767593D01*
X211578989Y-50718093D01*
X211578989Y-50656907D01*
X211579169Y-50656360D01*
X211579618Y-50655005D01*
X211622887Y-50524426D01*
X211633500Y-50420545D01*
X211633499Y-49119456D01*
X211633499Y-49119447D01*
X211622888Y-49015582D01*
X211622887Y-49015580D01*
X211622887Y-49015574D01*
X211567115Y-48847262D01*
X211474030Y-48696348D01*
X211348652Y-48570970D01*
X211197738Y-48477885D01*
X211189225Y-48475064D01*
X211182722Y-48472909D01*
X211133433Y-48436656D01*
X211114867Y-48378356D01*
X211134114Y-48320277D01*
X211151855Y-48302644D01*
X211151513Y-48302243D01*
X211154464Y-48299722D01*
X211304722Y-48149464D01*
X211429624Y-47977552D01*
X211526095Y-47788215D01*
X211591758Y-47586122D01*
X211602231Y-47520000D01*
X210554146Y-47520000D01*
X210592630Y-47453343D01*
X210625000Y-47332535D01*
X210625000Y-47207465D01*
X210592630Y-47086657D01*
X210554146Y-47020000D01*
X211602231Y-47020000D01*
X211602231Y-47019999D01*
X211591758Y-46953877D01*
X211526095Y-46751784D01*
X211429624Y-46562447D01*
X211304722Y-46390535D01*
X211154464Y-46240277D01*
X210982551Y-46115375D01*
X210977848Y-46112979D01*
X210934585Y-46069714D01*
X210925014Y-46009281D01*
X210952793Y-45954765D01*
X210977850Y-45936560D01*
X210987009Y-45931894D01*
X211160004Y-45806206D01*
X211311206Y-45655004D01*
X211436894Y-45482009D01*
X211533972Y-45291483D01*
X211600049Y-45088116D01*
X211633500Y-44876916D01*
X211633500Y-44663084D01*
X211633500Y-44663080D01*
X211600049Y-44451886D01*
X211600049Y-44451884D01*
X211533972Y-44248517D01*
X211462205Y-44107668D01*
X211452635Y-44047237D01*
X211480412Y-43992721D01*
X211529829Y-43965889D01*
X211657288Y-43938797D01*
X211831752Y-43861121D01*
X211986253Y-43748869D01*
X211997607Y-43736258D01*
X212050595Y-43705666D01*
X212071178Y-43703503D01*
X212578822Y-43703503D01*
X212637013Y-43722410D01*
X212652392Y-43736258D01*
X212663747Y-43748869D01*
X212818248Y-43861121D01*
X212818253Y-43861123D01*
X212818258Y-43861126D01*
X212907180Y-43900716D01*
X212992712Y-43938797D01*
X213179513Y-43978503D01*
X213179516Y-43978503D01*
X213370484Y-43978503D01*
X213370487Y-43978503D01*
X213557288Y-43938797D01*
X213731752Y-43861121D01*
X213886253Y-43748869D01*
X214014040Y-43606947D01*
X214109527Y-43441559D01*
X214168542Y-43259931D01*
X214188504Y-43070003D01*
X214168542Y-42880075D01*
X214109527Y-42698447D01*
X214063946Y-42619499D01*
X214051225Y-42559654D01*
X214063945Y-42520503D01*
X214109527Y-42441556D01*
X214168542Y-42259928D01*
X214188504Y-42070000D01*
X214168542Y-41880072D01*
X214109527Y-41698444D01*
X214109524Y-41698439D01*
X214109522Y-41698434D01*
X214055043Y-41604075D01*
X214014040Y-41533056D01*
X213887422Y-41392432D01*
X213886254Y-41391135D01*
X213886253Y-41391134D01*
X213731752Y-41278882D01*
X213731748Y-41278880D01*
X213731741Y-41278876D01*
X213557294Y-41201208D01*
X213557289Y-41201206D01*
X213557288Y-41201206D01*
X213557285Y-41201205D01*
X213557284Y-41201205D01*
X213521755Y-41193653D01*
X213370487Y-41161500D01*
X213179513Y-41161500D01*
X213060398Y-41186818D01*
X212992715Y-41201205D01*
X212992705Y-41201208D01*
X212818258Y-41278876D01*
X212818251Y-41278880D01*
X212663745Y-41391135D01*
X212652393Y-41403744D01*
X212599405Y-41434337D01*
X212578822Y-41436500D01*
X212071178Y-41436500D01*
X212012987Y-41417593D01*
X211997607Y-41403744D01*
X211986254Y-41391135D01*
X211986253Y-41391134D01*
X211831752Y-41278882D01*
X211831748Y-41278880D01*
X211831741Y-41278876D01*
X211657294Y-41201208D01*
X211657289Y-41201206D01*
X211657288Y-41201206D01*
X211657285Y-41201205D01*
X211657284Y-41201205D01*
X211621755Y-41193653D01*
X211470487Y-41161500D01*
X211279513Y-41161500D01*
X211160398Y-41186818D01*
X211092715Y-41201205D01*
X211092705Y-41201208D01*
X210918258Y-41278876D01*
X210918251Y-41278880D01*
X210763745Y-41391135D01*
X210635958Y-41533058D01*
X210635958Y-41533059D01*
X210540477Y-41698434D01*
X210540471Y-41698448D01*
X210481459Y-41880066D01*
X210481458Y-41880070D01*
X210481458Y-41880072D01*
X210461496Y-42070000D01*
X210479239Y-42238819D01*
X210481459Y-42259933D01*
X210540471Y-42441551D01*
X210540477Y-42441565D01*
X210586051Y-42520500D01*
X210598773Y-42580348D01*
X210586052Y-42619499D01*
X210540476Y-42698439D01*
X210540471Y-42698451D01*
X210481459Y-42880069D01*
X210481458Y-42880073D01*
X210481458Y-42880075D01*
X210461496Y-43070003D01*
X210481458Y-43259931D01*
X210481458Y-43259933D01*
X210481459Y-43259935D01*
X210488855Y-43282699D01*
X210488854Y-43343885D01*
X210452889Y-43393384D01*
X210394698Y-43412290D01*
X210385814Y-43411592D01*
X210385798Y-43411805D01*
X210381921Y-43411500D01*
X210381916Y-43411500D01*
X209918084Y-43411500D01*
X209918081Y-43411500D01*
X209706886Y-43444950D01*
X209503518Y-43511027D01*
X209312993Y-43608104D01*
X209139997Y-43733793D01*
X208988793Y-43884997D01*
X208863104Y-44057993D01*
X208766027Y-44248518D01*
X208699950Y-44451886D01*
X208666500Y-44663080D01*
X208666500Y-44876919D01*
X208699950Y-45088113D01*
X208766027Y-45291481D01*
X208845407Y-45447274D01*
X208863106Y-45482009D01*
X208988794Y-45655004D01*
X209139996Y-45806206D01*
X209312991Y-45931894D01*
X209312995Y-45931896D01*
X209322148Y-45936560D01*
X209365413Y-45979824D01*
X209374985Y-46040255D01*
X209347209Y-46094772D01*
X209322155Y-46112977D01*
X209317449Y-46115375D01*
X209145535Y-46240277D01*
X208995277Y-46390535D01*
X208870375Y-46562447D01*
X208773904Y-46751784D01*
X208708241Y-46953877D01*
X208694652Y-47039670D01*
X208666874Y-47094186D01*
X208612357Y-47121963D01*
X208551925Y-47112391D01*
X208526867Y-47094186D01*
X208017496Y-46584815D01*
X207989719Y-46530298D01*
X207988500Y-46514811D01*
X207988500Y-44185295D01*
X207988499Y-44185291D01*
X207984937Y-44167383D01*
X207959351Y-44038754D01*
X207917948Y-43938797D01*
X207902176Y-43900720D01*
X207902170Y-43900709D01*
X207851111Y-43824295D01*
X207851110Y-43824293D01*
X207819170Y-43776490D01*
X207819168Y-43776488D01*
X207819166Y-43776485D01*
X205893515Y-41850834D01*
X205893511Y-41850831D01*
X205769283Y-41767825D01*
X205631247Y-41710649D01*
X205557976Y-41696074D01*
X205557975Y-41696073D01*
X205484708Y-41681500D01*
X205484706Y-41681500D01*
X201345294Y-41681500D01*
X201345291Y-41681500D01*
X201272024Y-41696073D01*
X201272024Y-41696074D01*
X201247600Y-41700932D01*
X201198751Y-41710649D01*
X201060719Y-41767823D01*
X201060708Y-41767829D01*
X200936485Y-41850834D01*
X200936481Y-41850837D01*
X200717504Y-42069815D01*
X200662987Y-42097592D01*
X200602555Y-42088021D01*
X200559290Y-42044756D01*
X200548500Y-41999811D01*
X200548500Y-39035188D01*
X200567407Y-38976997D01*
X200577490Y-38965190D01*
X201947497Y-37595182D01*
X202002012Y-37567407D01*
X202062444Y-37576978D01*
X202087499Y-37595181D01*
X202211348Y-37719030D01*
X202362262Y-37812115D01*
X202530574Y-37867887D01*
X202634455Y-37878500D01*
X204185544Y-37878499D01*
X204185552Y-37878499D01*
X204289417Y-37867888D01*
X204289417Y-37867887D01*
X204289426Y-37867887D01*
X204457738Y-37812115D01*
X204608652Y-37719030D01*
X204734030Y-37593652D01*
X204827115Y-37442738D01*
X204859051Y-37346360D01*
X204895302Y-37297070D01*
X204953026Y-37278500D01*
X208616974Y-37278500D01*
X208675165Y-37297407D01*
X208710949Y-37346360D01*
X208742885Y-37442738D01*
X208835970Y-37593652D01*
X208961348Y-37719030D01*
X209112262Y-37812115D01*
X209280574Y-37867887D01*
X209384455Y-37878500D01*
X210935544Y-37878499D01*
X210935552Y-37878499D01*
X211039417Y-37867888D01*
X211039417Y-37867887D01*
X211039426Y-37867887D01*
X211207738Y-37812115D01*
X211358652Y-37719030D01*
X211484030Y-37593652D01*
X211577115Y-37442738D01*
X211609051Y-37346360D01*
X211645302Y-37297070D01*
X211703026Y-37278500D01*
X213144701Y-37278500D01*
X213144705Y-37278500D01*
X213144706Y-37278500D01*
X213217976Y-37263925D01*
X213291247Y-37249351D01*
X213429284Y-37192174D01*
X213553515Y-37109166D01*
X214405185Y-36257496D01*
X214459702Y-36229719D01*
X214475189Y-36228500D01*
X216082500Y-36228500D01*
X216140691Y-36247407D01*
G37*
G04 #@! TD.AperFunction*
G04 #@! TA.AperFunction,Conductor*
G36*
X221778915Y-33399587D02*
G01*
X221807909Y-33453467D01*
X221809500Y-33471144D01*
X221809500Y-47744588D01*
X221790593Y-47802779D01*
X221741093Y-47838743D01*
X221679907Y-47838743D01*
X221640497Y-47814592D01*
X221419017Y-47593113D01*
X221391241Y-47538597D01*
X221393050Y-47498808D01*
X221424564Y-47374368D01*
X221443156Y-47150000D01*
X221424564Y-46925632D01*
X221369296Y-46707384D01*
X221278860Y-46501209D01*
X221155722Y-46312732D01*
X221155720Y-46312730D01*
X221155717Y-46312725D01*
X221003243Y-46147096D01*
X221003237Y-46147091D01*
X220825579Y-46008813D01*
X220825576Y-46008811D01*
X220817638Y-46004515D01*
X220748440Y-45967067D01*
X220706263Y-45922744D01*
X220698193Y-45862093D01*
X220727314Y-45808282D01*
X220748441Y-45792932D01*
X220825576Y-45751189D01*
X221003240Y-45612906D01*
X221003243Y-45612903D01*
X221155717Y-45447274D01*
X221155718Y-45447272D01*
X221155722Y-45447268D01*
X221278860Y-45258791D01*
X221369296Y-45052616D01*
X221424564Y-44834368D01*
X221443156Y-44610000D01*
X221424564Y-44385632D01*
X221369296Y-44167384D01*
X221278860Y-43961209D01*
X221155722Y-43772732D01*
X221155720Y-43772730D01*
X221155717Y-43772725D01*
X221003243Y-43607096D01*
X221003237Y-43607091D01*
X220825579Y-43468813D01*
X220825576Y-43468811D01*
X220743601Y-43424448D01*
X220701423Y-43380123D01*
X220693353Y-43319472D01*
X220722474Y-43265662D01*
X220748886Y-43247653D01*
X220757577Y-43243600D01*
X220951073Y-43108113D01*
X221118113Y-42941073D01*
X221253600Y-42747577D01*
X221353430Y-42533489D01*
X221410636Y-42320000D01*
X220513012Y-42320000D01*
X220545925Y-42262993D01*
X220580000Y-42135826D01*
X220580000Y-42004174D01*
X220545925Y-41877007D01*
X220513012Y-41820000D01*
X221410636Y-41820000D01*
X221353429Y-41606505D01*
X221253605Y-41392432D01*
X221253601Y-41392424D01*
X221118113Y-41198926D01*
X220951073Y-41031886D01*
X220757576Y-40896398D01*
X220757573Y-40896396D01*
X220748880Y-40892343D01*
X220704132Y-40850615D01*
X220692458Y-40790554D01*
X220718316Y-40735101D01*
X220743602Y-40715551D01*
X220748441Y-40712932D01*
X220825576Y-40671189D01*
X221003240Y-40532906D01*
X221003243Y-40532903D01*
X221155717Y-40367274D01*
X221155718Y-40367272D01*
X221155722Y-40367268D01*
X221278860Y-40178791D01*
X221369296Y-39972616D01*
X221424564Y-39754368D01*
X221443156Y-39530000D01*
X221424564Y-39305632D01*
X221369296Y-39087384D01*
X221278860Y-38881209D01*
X221155722Y-38692732D01*
X221155720Y-38692730D01*
X221155717Y-38692725D01*
X221003243Y-38527096D01*
X221003235Y-38527089D01*
X220876692Y-38428595D01*
X220842385Y-38377933D01*
X220838500Y-38350471D01*
X220838500Y-38169526D01*
X220857407Y-38111335D01*
X220876688Y-38091405D01*
X221003240Y-37992906D01*
X221043476Y-37949199D01*
X221155717Y-37827274D01*
X221155718Y-37827272D01*
X221155722Y-37827268D01*
X221278860Y-37638791D01*
X221369296Y-37432616D01*
X221424564Y-37214368D01*
X221443156Y-36990000D01*
X221424564Y-36765632D01*
X221369296Y-36547384D01*
X221278860Y-36341209D01*
X221155722Y-36152732D01*
X221155720Y-36152730D01*
X221155717Y-36152725D01*
X221003243Y-35987096D01*
X221003237Y-35987091D01*
X220825579Y-35848813D01*
X220825576Y-35848811D01*
X220627577Y-35741659D01*
X220600909Y-35732504D01*
X220414635Y-35668556D01*
X220414632Y-35668555D01*
X220414631Y-35668555D01*
X220192569Y-35631500D01*
X219967431Y-35631500D01*
X219967430Y-35631500D01*
X219869220Y-35647887D01*
X219808711Y-35638815D01*
X219782922Y-35620241D01*
X219468246Y-35305565D01*
X219440469Y-35251048D01*
X219450040Y-35190616D01*
X219493305Y-35147351D01*
X219516215Y-35139045D01*
X219669681Y-35104018D01*
X219998379Y-34989002D01*
X220312133Y-34837906D01*
X220606997Y-34652630D01*
X220804660Y-34495000D01*
X220879252Y-34435515D01*
X220879253Y-34435513D01*
X220879263Y-34435506D01*
X221125506Y-34189263D01*
X221342630Y-33916997D01*
X221527906Y-33622133D01*
X221621304Y-33428189D01*
X221663587Y-33383965D01*
X221723789Y-33373040D01*
X221778915Y-33399587D01*
G37*
G04 #@! TD.AperFunction*
M02*
