G04 #@! TF.GenerationSoftware,KiCad,Pcbnew,8.0.4*
G04 #@! TF.CreationDate,2025-05-04T21:26:18-04:00*
G04 #@! TF.ProjectId,openduck,6f70656e-6475-4636-9b2e-6b696361645f,rev?*
G04 #@! TF.SameCoordinates,Original*
G04 #@! TF.FileFunction,Legend,Top*
G04 #@! TF.FilePolarity,Positive*
%FSLAX46Y46*%
G04 Gerber Fmt 4.6, Leading zero omitted, Abs format (unit mm)*
G04 Created by KiCad (PCBNEW 8.0.4) date 2025-05-04 21:26:18*
%MOMM*%
%LPD*%
G01*
G04 APERTURE LIST*
%ADD10C,0.150000*%
%ADD11C,0.120000*%
G04 APERTURE END LIST*
D10*
X201633207Y-85639819D02*
X201157017Y-85639819D01*
X201157017Y-85639819D02*
X201109398Y-86116009D01*
X201109398Y-86116009D02*
X201157017Y-86068390D01*
X201157017Y-86068390D02*
X201252255Y-86020771D01*
X201252255Y-86020771D02*
X201490350Y-86020771D01*
X201490350Y-86020771D02*
X201585588Y-86068390D01*
X201585588Y-86068390D02*
X201633207Y-86116009D01*
X201633207Y-86116009D02*
X201680826Y-86211247D01*
X201680826Y-86211247D02*
X201680826Y-86449342D01*
X201680826Y-86449342D02*
X201633207Y-86544580D01*
X201633207Y-86544580D02*
X201585588Y-86592200D01*
X201585588Y-86592200D02*
X201490350Y-86639819D01*
X201490350Y-86639819D02*
X201252255Y-86639819D01*
X201252255Y-86639819D02*
X201157017Y-86592200D01*
X201157017Y-86592200D02*
X201109398Y-86544580D01*
X201966541Y-85639819D02*
X202299874Y-86639819D01*
X202299874Y-86639819D02*
X202633207Y-85639819D01*
X201909819Y-69827030D02*
X201909819Y-70303220D01*
X201909819Y-70303220D02*
X200909819Y-70303220D01*
X201386009Y-68398458D02*
X201386009Y-68731791D01*
X201909819Y-68731791D02*
X200909819Y-68731791D01*
X200909819Y-68731791D02*
X200909819Y-68255601D01*
X200909819Y-67684172D02*
X200909819Y-67493696D01*
X200909819Y-67493696D02*
X200957438Y-67398458D01*
X200957438Y-67398458D02*
X201052676Y-67303220D01*
X201052676Y-67303220D02*
X201243152Y-67255601D01*
X201243152Y-67255601D02*
X201576485Y-67255601D01*
X201576485Y-67255601D02*
X201766961Y-67303220D01*
X201766961Y-67303220D02*
X201862200Y-67398458D01*
X201862200Y-67398458D02*
X201909819Y-67493696D01*
X201909819Y-67493696D02*
X201909819Y-67684172D01*
X201909819Y-67684172D02*
X201862200Y-67779410D01*
X201862200Y-67779410D02*
X201766961Y-67874648D01*
X201766961Y-67874648D02*
X201576485Y-67922267D01*
X201576485Y-67922267D02*
X201243152Y-67922267D01*
X201243152Y-67922267D02*
X201052676Y-67874648D01*
X201052676Y-67874648D02*
X200957438Y-67779410D01*
X200957438Y-67779410D02*
X200909819Y-67684172D01*
X200909819Y-66636553D02*
X200909819Y-66446077D01*
X200909819Y-66446077D02*
X200957438Y-66350839D01*
X200957438Y-66350839D02*
X201052676Y-66255601D01*
X201052676Y-66255601D02*
X201243152Y-66207982D01*
X201243152Y-66207982D02*
X201576485Y-66207982D01*
X201576485Y-66207982D02*
X201766961Y-66255601D01*
X201766961Y-66255601D02*
X201862200Y-66350839D01*
X201862200Y-66350839D02*
X201909819Y-66446077D01*
X201909819Y-66446077D02*
X201909819Y-66636553D01*
X201909819Y-66636553D02*
X201862200Y-66731791D01*
X201862200Y-66731791D02*
X201766961Y-66827029D01*
X201766961Y-66827029D02*
X201576485Y-66874648D01*
X201576485Y-66874648D02*
X201243152Y-66874648D01*
X201243152Y-66874648D02*
X201052676Y-66827029D01*
X201052676Y-66827029D02*
X200957438Y-66731791D01*
X200957438Y-66731791D02*
X200909819Y-66636553D01*
X200909819Y-65922267D02*
X200909819Y-65350839D01*
X201909819Y-65636553D02*
X200909819Y-65636553D01*
X202922494Y-41429819D02*
X202922494Y-40429819D01*
X203351065Y-40525057D02*
X203398684Y-40477438D01*
X203398684Y-40477438D02*
X203493922Y-40429819D01*
X203493922Y-40429819D02*
X203732017Y-40429819D01*
X203732017Y-40429819D02*
X203827255Y-40477438D01*
X203827255Y-40477438D02*
X203874874Y-40525057D01*
X203874874Y-40525057D02*
X203922493Y-40620295D01*
X203922493Y-40620295D02*
X203922493Y-40715533D01*
X203922493Y-40715533D02*
X203874874Y-40858390D01*
X203874874Y-40858390D02*
X203303446Y-41429819D01*
X203303446Y-41429819D02*
X203922493Y-41429819D01*
X204922493Y-41334580D02*
X204874874Y-41382200D01*
X204874874Y-41382200D02*
X204732017Y-41429819D01*
X204732017Y-41429819D02*
X204636779Y-41429819D01*
X204636779Y-41429819D02*
X204493922Y-41382200D01*
X204493922Y-41382200D02*
X204398684Y-41286961D01*
X204398684Y-41286961D02*
X204351065Y-41191723D01*
X204351065Y-41191723D02*
X204303446Y-41001247D01*
X204303446Y-41001247D02*
X204303446Y-40858390D01*
X204303446Y-40858390D02*
X204351065Y-40667914D01*
X204351065Y-40667914D02*
X204398684Y-40572676D01*
X204398684Y-40572676D02*
X204493922Y-40477438D01*
X204493922Y-40477438D02*
X204636779Y-40429819D01*
X204636779Y-40429819D02*
X204732017Y-40429819D01*
X204732017Y-40429819D02*
X204874874Y-40477438D01*
X204874874Y-40477438D02*
X204922493Y-40525057D01*
X208958207Y-40906009D02*
X208624874Y-40906009D01*
X208624874Y-41429819D02*
X208624874Y-40429819D01*
X208624874Y-40429819D02*
X209101064Y-40429819D01*
X209958207Y-41429819D02*
X209482017Y-41429819D01*
X209482017Y-41429819D02*
X209482017Y-40429819D01*
X210243922Y-41144104D02*
X210720112Y-41144104D01*
X210148684Y-41429819D02*
X210482017Y-40429819D01*
X210482017Y-40429819D02*
X210815350Y-41429819D01*
X211101065Y-41382200D02*
X211243922Y-41429819D01*
X211243922Y-41429819D02*
X211482017Y-41429819D01*
X211482017Y-41429819D02*
X211577255Y-41382200D01*
X211577255Y-41382200D02*
X211624874Y-41334580D01*
X211624874Y-41334580D02*
X211672493Y-41239342D01*
X211672493Y-41239342D02*
X211672493Y-41144104D01*
X211672493Y-41144104D02*
X211624874Y-41048866D01*
X211624874Y-41048866D02*
X211577255Y-41001247D01*
X211577255Y-41001247D02*
X211482017Y-40953628D01*
X211482017Y-40953628D02*
X211291541Y-40906009D01*
X211291541Y-40906009D02*
X211196303Y-40858390D01*
X211196303Y-40858390D02*
X211148684Y-40810771D01*
X211148684Y-40810771D02*
X211101065Y-40715533D01*
X211101065Y-40715533D02*
X211101065Y-40620295D01*
X211101065Y-40620295D02*
X211148684Y-40525057D01*
X211148684Y-40525057D02*
X211196303Y-40477438D01*
X211196303Y-40477438D02*
X211291541Y-40429819D01*
X211291541Y-40429819D02*
X211529636Y-40429819D01*
X211529636Y-40429819D02*
X211672493Y-40477438D01*
X212101065Y-41429819D02*
X212101065Y-40429819D01*
X212101065Y-40906009D02*
X212672493Y-40906009D01*
X212672493Y-41429819D02*
X212672493Y-40429819D01*
X209339159Y-73719819D02*
X209005826Y-73243628D01*
X208767731Y-73719819D02*
X208767731Y-72719819D01*
X208767731Y-72719819D02*
X209148683Y-72719819D01*
X209148683Y-72719819D02*
X209243921Y-72767438D01*
X209243921Y-72767438D02*
X209291540Y-72815057D01*
X209291540Y-72815057D02*
X209339159Y-72910295D01*
X209339159Y-72910295D02*
X209339159Y-73053152D01*
X209339159Y-73053152D02*
X209291540Y-73148390D01*
X209291540Y-73148390D02*
X209243921Y-73196009D01*
X209243921Y-73196009D02*
X209148683Y-73243628D01*
X209148683Y-73243628D02*
X208767731Y-73243628D01*
X210482017Y-73434104D02*
X210958207Y-73434104D01*
X210386779Y-73719819D02*
X210720112Y-72719819D01*
X210720112Y-72719819D02*
X211053445Y-73719819D01*
X211386779Y-73719819D02*
X211386779Y-72719819D01*
X211386779Y-72719819D02*
X211958207Y-73719819D01*
X211958207Y-73719819D02*
X211958207Y-72719819D01*
X212291541Y-72719819D02*
X212862969Y-72719819D01*
X212577255Y-73719819D02*
X212577255Y-72719819D01*
X204585588Y-85687438D02*
X204490350Y-85639819D01*
X204490350Y-85639819D02*
X204347493Y-85639819D01*
X204347493Y-85639819D02*
X204204636Y-85687438D01*
X204204636Y-85687438D02*
X204109398Y-85782676D01*
X204109398Y-85782676D02*
X204061779Y-85877914D01*
X204061779Y-85877914D02*
X204014160Y-86068390D01*
X204014160Y-86068390D02*
X204014160Y-86211247D01*
X204014160Y-86211247D02*
X204061779Y-86401723D01*
X204061779Y-86401723D02*
X204109398Y-86496961D01*
X204109398Y-86496961D02*
X204204636Y-86592200D01*
X204204636Y-86592200D02*
X204347493Y-86639819D01*
X204347493Y-86639819D02*
X204442731Y-86639819D01*
X204442731Y-86639819D02*
X204585588Y-86592200D01*
X204585588Y-86592200D02*
X204633207Y-86544580D01*
X204633207Y-86544580D02*
X204633207Y-86211247D01*
X204633207Y-86211247D02*
X204442731Y-86211247D01*
X202493921Y-73719819D02*
X202017731Y-73719819D01*
X202017731Y-73719819D02*
X202017731Y-72719819D01*
X203541541Y-73434104D02*
X204017731Y-73434104D01*
X203446303Y-73719819D02*
X203779636Y-72719819D01*
X203779636Y-72719819D02*
X204112969Y-73719819D01*
X204446303Y-73719819D02*
X204446303Y-72719819D01*
X204446303Y-72719819D02*
X205017731Y-73719819D01*
X205017731Y-73719819D02*
X205017731Y-72719819D01*
X205351065Y-72719819D02*
X205922493Y-72719819D01*
X205636779Y-73719819D02*
X205636779Y-72719819D01*
X196172494Y-41429819D02*
X196172494Y-40429819D01*
X196601065Y-40525057D02*
X196648684Y-40477438D01*
X196648684Y-40477438D02*
X196743922Y-40429819D01*
X196743922Y-40429819D02*
X196982017Y-40429819D01*
X196982017Y-40429819D02*
X197077255Y-40477438D01*
X197077255Y-40477438D02*
X197124874Y-40525057D01*
X197124874Y-40525057D02*
X197172493Y-40620295D01*
X197172493Y-40620295D02*
X197172493Y-40715533D01*
X197172493Y-40715533D02*
X197124874Y-40858390D01*
X197124874Y-40858390D02*
X196553446Y-41429819D01*
X196553446Y-41429819D02*
X197172493Y-41429819D01*
X198172493Y-41334580D02*
X198124874Y-41382200D01*
X198124874Y-41382200D02*
X197982017Y-41429819D01*
X197982017Y-41429819D02*
X197886779Y-41429819D01*
X197886779Y-41429819D02*
X197743922Y-41382200D01*
X197743922Y-41382200D02*
X197648684Y-41286961D01*
X197648684Y-41286961D02*
X197601065Y-41191723D01*
X197601065Y-41191723D02*
X197553446Y-41001247D01*
X197553446Y-41001247D02*
X197553446Y-40858390D01*
X197553446Y-40858390D02*
X197601065Y-40667914D01*
X197601065Y-40667914D02*
X197648684Y-40572676D01*
X197648684Y-40572676D02*
X197743922Y-40477438D01*
X197743922Y-40477438D02*
X197886779Y-40429819D01*
X197886779Y-40429819D02*
X197982017Y-40429819D01*
X197982017Y-40429819D02*
X198124874Y-40477438D01*
X198124874Y-40477438D02*
X198172493Y-40525057D01*
X206632200Y-67215363D02*
X206679819Y-67072506D01*
X206679819Y-67072506D02*
X206679819Y-66834411D01*
X206679819Y-66834411D02*
X206632200Y-66739173D01*
X206632200Y-66739173D02*
X206584580Y-66691554D01*
X206584580Y-66691554D02*
X206489342Y-66643935D01*
X206489342Y-66643935D02*
X206394104Y-66643935D01*
X206394104Y-66643935D02*
X206298866Y-66691554D01*
X206298866Y-66691554D02*
X206251247Y-66739173D01*
X206251247Y-66739173D02*
X206203628Y-66834411D01*
X206203628Y-66834411D02*
X206156009Y-67024887D01*
X206156009Y-67024887D02*
X206108390Y-67120125D01*
X206108390Y-67120125D02*
X206060771Y-67167744D01*
X206060771Y-67167744D02*
X205965533Y-67215363D01*
X205965533Y-67215363D02*
X205870295Y-67215363D01*
X205870295Y-67215363D02*
X205775057Y-67167744D01*
X205775057Y-67167744D02*
X205727438Y-67120125D01*
X205727438Y-67120125D02*
X205679819Y-67024887D01*
X205679819Y-67024887D02*
X205679819Y-66786792D01*
X205679819Y-66786792D02*
X205727438Y-66643935D01*
X206679819Y-66215363D02*
X205679819Y-66215363D01*
X205679819Y-66215363D02*
X205679819Y-65834411D01*
X205679819Y-65834411D02*
X205727438Y-65739173D01*
X205727438Y-65739173D02*
X205775057Y-65691554D01*
X205775057Y-65691554D02*
X205870295Y-65643935D01*
X205870295Y-65643935D02*
X206013152Y-65643935D01*
X206013152Y-65643935D02*
X206108390Y-65691554D01*
X206108390Y-65691554D02*
X206156009Y-65739173D01*
X206156009Y-65739173D02*
X206203628Y-65834411D01*
X206203628Y-65834411D02*
X206203628Y-66215363D01*
X206156009Y-65215363D02*
X206156009Y-64882030D01*
X206679819Y-64739173D02*
X206679819Y-65215363D01*
X206679819Y-65215363D02*
X205679819Y-65215363D01*
X205679819Y-65215363D02*
X205679819Y-64739173D01*
X206394104Y-64358220D02*
X206394104Y-63882030D01*
X206679819Y-64453458D02*
X205679819Y-64120125D01*
X205679819Y-64120125D02*
X206679819Y-63786792D01*
X206679819Y-63453458D02*
X205679819Y-63453458D01*
X206679819Y-62882030D02*
X206108390Y-63310601D01*
X205679819Y-62882030D02*
X206251247Y-63453458D01*
X206156009Y-62453458D02*
X206156009Y-62120125D01*
X206679819Y-61977268D02*
X206679819Y-62453458D01*
X206679819Y-62453458D02*
X205679819Y-62453458D01*
X205679819Y-62453458D02*
X205679819Y-61977268D01*
X206679819Y-60977268D02*
X206203628Y-61310601D01*
X206679819Y-61548696D02*
X205679819Y-61548696D01*
X205679819Y-61548696D02*
X205679819Y-61167744D01*
X205679819Y-61167744D02*
X205727438Y-61072506D01*
X205727438Y-61072506D02*
X205775057Y-61024887D01*
X205775057Y-61024887D02*
X205870295Y-60977268D01*
X205870295Y-60977268D02*
X206013152Y-60977268D01*
X206013152Y-60977268D02*
X206108390Y-61024887D01*
X206108390Y-61024887D02*
X206156009Y-61072506D01*
X206156009Y-61072506D02*
X206203628Y-61167744D01*
X206203628Y-61167744D02*
X206203628Y-61548696D01*
X209545113Y-86639819D02*
X209545113Y-85639819D01*
X209545113Y-85639819D02*
X209926065Y-85639819D01*
X209926065Y-85639819D02*
X210021303Y-85687438D01*
X210021303Y-85687438D02*
X210068922Y-85735057D01*
X210068922Y-85735057D02*
X210116541Y-85830295D01*
X210116541Y-85830295D02*
X210116541Y-85973152D01*
X210116541Y-85973152D02*
X210068922Y-86068390D01*
X210068922Y-86068390D02*
X210021303Y-86116009D01*
X210021303Y-86116009D02*
X209926065Y-86163628D01*
X209926065Y-86163628D02*
X209545113Y-86163628D01*
X210545113Y-86639819D02*
X210545113Y-85639819D01*
X211735589Y-86592200D02*
X211878446Y-86639819D01*
X211878446Y-86639819D02*
X212116541Y-86639819D01*
X212116541Y-86639819D02*
X212211779Y-86592200D01*
X212211779Y-86592200D02*
X212259398Y-86544580D01*
X212259398Y-86544580D02*
X212307017Y-86449342D01*
X212307017Y-86449342D02*
X212307017Y-86354104D01*
X212307017Y-86354104D02*
X212259398Y-86258866D01*
X212259398Y-86258866D02*
X212211779Y-86211247D01*
X212211779Y-86211247D02*
X212116541Y-86163628D01*
X212116541Y-86163628D02*
X211926065Y-86116009D01*
X211926065Y-86116009D02*
X211830827Y-86068390D01*
X211830827Y-86068390D02*
X211783208Y-86020771D01*
X211783208Y-86020771D02*
X211735589Y-85925533D01*
X211735589Y-85925533D02*
X211735589Y-85830295D01*
X211735589Y-85830295D02*
X211783208Y-85735057D01*
X211783208Y-85735057D02*
X211830827Y-85687438D01*
X211830827Y-85687438D02*
X211926065Y-85639819D01*
X211926065Y-85639819D02*
X212164160Y-85639819D01*
X212164160Y-85639819D02*
X212307017Y-85687438D01*
X212640351Y-85639819D02*
X212878446Y-86639819D01*
X212878446Y-86639819D02*
X213068922Y-85925533D01*
X213068922Y-85925533D02*
X213259398Y-86639819D01*
X213259398Y-86639819D02*
X213497494Y-85639819D01*
X195553446Y-72719819D02*
X195553446Y-73529342D01*
X195553446Y-73529342D02*
X195601065Y-73624580D01*
X195601065Y-73624580D02*
X195648684Y-73672200D01*
X195648684Y-73672200D02*
X195743922Y-73719819D01*
X195743922Y-73719819D02*
X195934398Y-73719819D01*
X195934398Y-73719819D02*
X196029636Y-73672200D01*
X196029636Y-73672200D02*
X196077255Y-73624580D01*
X196077255Y-73624580D02*
X196124874Y-73529342D01*
X196124874Y-73529342D02*
X196124874Y-72719819D01*
X196553446Y-73434104D02*
X197029636Y-73434104D01*
X196458208Y-73719819D02*
X196791541Y-72719819D01*
X196791541Y-72719819D02*
X197124874Y-73719819D01*
X198029636Y-73719819D02*
X197696303Y-73243628D01*
X197458208Y-73719819D02*
X197458208Y-72719819D01*
X197458208Y-72719819D02*
X197839160Y-72719819D01*
X197839160Y-72719819D02*
X197934398Y-72767438D01*
X197934398Y-72767438D02*
X197982017Y-72815057D01*
X197982017Y-72815057D02*
X198029636Y-72910295D01*
X198029636Y-72910295D02*
X198029636Y-73053152D01*
X198029636Y-73053152D02*
X197982017Y-73148390D01*
X197982017Y-73148390D02*
X197934398Y-73196009D01*
X197934398Y-73196009D02*
X197839160Y-73243628D01*
X197839160Y-73243628D02*
X197458208Y-73243628D01*
X198315351Y-72719819D02*
X198886779Y-72719819D01*
X198601065Y-73719819D02*
X198601065Y-72719819D01*
X215156569Y-35451078D02*
X215156569Y-35927268D01*
X215156569Y-35927268D02*
X214156569Y-35927268D01*
X214632759Y-34355839D02*
X214632759Y-34022506D01*
X215156569Y-33879649D02*
X215156569Y-34355839D01*
X215156569Y-34355839D02*
X214156569Y-34355839D01*
X214156569Y-34355839D02*
X214156569Y-33879649D01*
X214680378Y-33260601D02*
X215156569Y-33260601D01*
X214156569Y-33593934D02*
X214680378Y-33260601D01*
X214680378Y-33260601D02*
X214156569Y-32927268D01*
X214632759Y-32593934D02*
X214632759Y-32260601D01*
X215156569Y-32117744D02*
X215156569Y-32593934D01*
X215156569Y-32593934D02*
X214156569Y-32593934D01*
X214156569Y-32593934D02*
X214156569Y-32117744D01*
X200406569Y-35355840D02*
X199930378Y-35689173D01*
X200406569Y-35927268D02*
X199406569Y-35927268D01*
X199406569Y-35927268D02*
X199406569Y-35546316D01*
X199406569Y-35546316D02*
X199454188Y-35451078D01*
X199454188Y-35451078D02*
X199501807Y-35403459D01*
X199501807Y-35403459D02*
X199597045Y-35355840D01*
X199597045Y-35355840D02*
X199739902Y-35355840D01*
X199739902Y-35355840D02*
X199835140Y-35403459D01*
X199835140Y-35403459D02*
X199882759Y-35451078D01*
X199882759Y-35451078D02*
X199930378Y-35546316D01*
X199930378Y-35546316D02*
X199930378Y-35927268D01*
X199882759Y-34165363D02*
X199882759Y-33832030D01*
X200406569Y-33689173D02*
X200406569Y-34165363D01*
X200406569Y-34165363D02*
X199406569Y-34165363D01*
X199406569Y-34165363D02*
X199406569Y-33689173D01*
X199930378Y-33070125D02*
X200406569Y-33070125D01*
X199406569Y-33403458D02*
X199930378Y-33070125D01*
X199930378Y-33070125D02*
X199406569Y-32736792D01*
X199882759Y-32403458D02*
X199882759Y-32070125D01*
X200406569Y-31927268D02*
X200406569Y-32403458D01*
X200406569Y-32403458D02*
X199406569Y-32403458D01*
X199406569Y-32403458D02*
X199406569Y-31927268D01*
X201979819Y-61861792D02*
X201503628Y-62195125D01*
X201979819Y-62433220D02*
X200979819Y-62433220D01*
X200979819Y-62433220D02*
X200979819Y-62052268D01*
X200979819Y-62052268D02*
X201027438Y-61957030D01*
X201027438Y-61957030D02*
X201075057Y-61909411D01*
X201075057Y-61909411D02*
X201170295Y-61861792D01*
X201170295Y-61861792D02*
X201313152Y-61861792D01*
X201313152Y-61861792D02*
X201408390Y-61909411D01*
X201408390Y-61909411D02*
X201456009Y-61957030D01*
X201456009Y-61957030D02*
X201503628Y-62052268D01*
X201503628Y-62052268D02*
X201503628Y-62433220D01*
X201456009Y-60337982D02*
X201456009Y-60671315D01*
X201979819Y-60671315D02*
X200979819Y-60671315D01*
X200979819Y-60671315D02*
X200979819Y-60195125D01*
X200979819Y-59623696D02*
X200979819Y-59433220D01*
X200979819Y-59433220D02*
X201027438Y-59337982D01*
X201027438Y-59337982D02*
X201122676Y-59242744D01*
X201122676Y-59242744D02*
X201313152Y-59195125D01*
X201313152Y-59195125D02*
X201646485Y-59195125D01*
X201646485Y-59195125D02*
X201836961Y-59242744D01*
X201836961Y-59242744D02*
X201932200Y-59337982D01*
X201932200Y-59337982D02*
X201979819Y-59433220D01*
X201979819Y-59433220D02*
X201979819Y-59623696D01*
X201979819Y-59623696D02*
X201932200Y-59718934D01*
X201932200Y-59718934D02*
X201836961Y-59814172D01*
X201836961Y-59814172D02*
X201646485Y-59861791D01*
X201646485Y-59861791D02*
X201313152Y-59861791D01*
X201313152Y-59861791D02*
X201122676Y-59814172D01*
X201122676Y-59814172D02*
X201027438Y-59718934D01*
X201027438Y-59718934D02*
X200979819Y-59623696D01*
X200979819Y-58576077D02*
X200979819Y-58385601D01*
X200979819Y-58385601D02*
X201027438Y-58290363D01*
X201027438Y-58290363D02*
X201122676Y-58195125D01*
X201122676Y-58195125D02*
X201313152Y-58147506D01*
X201313152Y-58147506D02*
X201646485Y-58147506D01*
X201646485Y-58147506D02*
X201836961Y-58195125D01*
X201836961Y-58195125D02*
X201932200Y-58290363D01*
X201932200Y-58290363D02*
X201979819Y-58385601D01*
X201979819Y-58385601D02*
X201979819Y-58576077D01*
X201979819Y-58576077D02*
X201932200Y-58671315D01*
X201932200Y-58671315D02*
X201836961Y-58766553D01*
X201836961Y-58766553D02*
X201646485Y-58814172D01*
X201646485Y-58814172D02*
X201313152Y-58814172D01*
X201313152Y-58814172D02*
X201122676Y-58766553D01*
X201122676Y-58766553D02*
X201027438Y-58671315D01*
X201027438Y-58671315D02*
X200979819Y-58576077D01*
X200979819Y-57861791D02*
X200979819Y-57290363D01*
X201979819Y-57576077D02*
X200979819Y-57576077D01*
D11*
X207400000Y-51370000D02*
X207400000Y-52620000D01*
X207400000Y-52620000D02*
X208650000Y-52620000D01*
X207690000Y-42210000D02*
X207690000Y-52330000D01*
X207690000Y-52330000D02*
X213660000Y-52330000D01*
X207700000Y-42220000D02*
X207700000Y-44020000D01*
X207700000Y-44020000D02*
X208450000Y-44020000D01*
X207700000Y-45520000D02*
X207700000Y-49020000D01*
X207700000Y-49020000D02*
X208450000Y-49020000D01*
X207700000Y-50520000D02*
X207700000Y-52320000D01*
X207700000Y-52320000D02*
X208450000Y-52320000D01*
X208450000Y-42220000D02*
X207700000Y-42220000D01*
X208450000Y-44020000D02*
X208450000Y-42220000D01*
X208450000Y-45520000D02*
X207700000Y-45520000D01*
X208450000Y-49020000D02*
X208450000Y-45520000D01*
X208450000Y-50520000D02*
X207700000Y-50520000D01*
X208450000Y-52320000D02*
X208450000Y-50520000D01*
X209950000Y-42220000D02*
X209950000Y-42970000D01*
X209950000Y-42970000D02*
X212900000Y-42970000D01*
X209950000Y-51570000D02*
X212900000Y-51570000D01*
X209950000Y-52320000D02*
X209950000Y-51570000D01*
X212900000Y-42970000D02*
X212900000Y-47270000D01*
X212900000Y-51570000D02*
X212900000Y-47270000D01*
X213660000Y-42210000D02*
X207690000Y-42210000D01*
X213660000Y-52330000D02*
X213660000Y-42210000D01*
X193900000Y-83570000D02*
X193900000Y-84820000D01*
X193900000Y-84820000D02*
X195150000Y-84820000D01*
X194190000Y-74410000D02*
X194190000Y-84530000D01*
X194190000Y-84530000D02*
X200160000Y-84530000D01*
X194200000Y-74420000D02*
X194200000Y-76220000D01*
X194200000Y-76220000D02*
X194950000Y-76220000D01*
X194200000Y-77720000D02*
X194200000Y-81220000D01*
X194200000Y-81220000D02*
X194950000Y-81220000D01*
X194200000Y-82720000D02*
X194200000Y-84520000D01*
X194200000Y-84520000D02*
X194950000Y-84520000D01*
X194950000Y-74420000D02*
X194200000Y-74420000D01*
X194950000Y-76220000D02*
X194950000Y-74420000D01*
X194950000Y-77720000D02*
X194200000Y-77720000D01*
X194950000Y-81220000D02*
X194950000Y-77720000D01*
X194950000Y-82720000D02*
X194200000Y-82720000D01*
X194950000Y-84520000D02*
X194950000Y-82720000D01*
X196450000Y-74420000D02*
X196450000Y-75170000D01*
X196450000Y-75170000D02*
X199400000Y-75170000D01*
X196450000Y-83770000D02*
X199400000Y-83770000D01*
X196450000Y-84520000D02*
X196450000Y-83770000D01*
X199400000Y-75170000D02*
X199400000Y-79470000D01*
X199400000Y-83770000D02*
X199400000Y-79470000D01*
X200160000Y-74410000D02*
X194190000Y-74410000D01*
X200160000Y-84530000D02*
X200160000Y-74410000D01*
X200650000Y-53870000D02*
X200650000Y-55120000D01*
X200650000Y-55120000D02*
X201900000Y-55120000D01*
X200940000Y-42210000D02*
X200940000Y-54830000D01*
X200940000Y-54830000D02*
X206910000Y-54830000D01*
X200950000Y-42220000D02*
X200950000Y-44020000D01*
X200950000Y-44020000D02*
X201700000Y-44020000D01*
X200950000Y-45520000D02*
X200950000Y-51520000D01*
X200950000Y-51520000D02*
X201700000Y-51520000D01*
X200950000Y-53020000D02*
X200950000Y-54820000D01*
X200950000Y-54820000D02*
X201700000Y-54820000D01*
X201700000Y-42220000D02*
X200950000Y-42220000D01*
X201700000Y-44020000D02*
X201700000Y-42220000D01*
X201700000Y-45520000D02*
X200950000Y-45520000D01*
X201700000Y-51520000D02*
X201700000Y-45520000D01*
X201700000Y-53020000D02*
X200950000Y-53020000D01*
X201700000Y-54820000D02*
X201700000Y-53020000D01*
X203200000Y-42220000D02*
X203200000Y-42970000D01*
X203200000Y-42970000D02*
X206150000Y-42970000D01*
X203200000Y-54070000D02*
X206150000Y-54070000D01*
X203200000Y-54820000D02*
X203200000Y-54070000D01*
X206150000Y-42970000D02*
X206150000Y-48520000D01*
X206150000Y-54070000D02*
X206150000Y-48520000D01*
X206910000Y-42210000D02*
X200940000Y-42210000D01*
X206910000Y-54830000D02*
X206910000Y-42210000D01*
X199290000Y-87310000D02*
X199290000Y-93280000D01*
X199290000Y-93280000D02*
X206910000Y-93280000D01*
X199300000Y-91020000D02*
X200050000Y-91020000D01*
X199300000Y-92520000D02*
X199300000Y-93270000D01*
X199300000Y-93270000D02*
X201100000Y-93270000D01*
X200050000Y-88070000D02*
X203100000Y-88070000D01*
X200050000Y-91020000D02*
X200050000Y-88070000D01*
X201100000Y-92520000D02*
X199300000Y-92520000D01*
X201100000Y-93270000D02*
X201100000Y-92520000D01*
X202600000Y-92520000D02*
X202600000Y-93270000D01*
X202600000Y-93270000D02*
X203600000Y-93270000D01*
X203600000Y-92520000D02*
X202600000Y-92520000D01*
X203600000Y-93270000D02*
X203600000Y-92520000D01*
X205100000Y-92520000D02*
X205100000Y-93270000D01*
X205100000Y-93270000D02*
X206900000Y-93270000D01*
X205950000Y-93570000D02*
X207200000Y-93570000D01*
X206150000Y-88070000D02*
X203100000Y-88070000D01*
X206150000Y-91020000D02*
X206150000Y-88070000D01*
X206900000Y-91020000D02*
X206150000Y-91020000D01*
X206900000Y-92520000D02*
X205100000Y-92520000D01*
X206900000Y-93270000D02*
X206900000Y-92520000D01*
X206910000Y-87310000D02*
X199290000Y-87310000D01*
X206910000Y-93280000D02*
X206910000Y-87310000D01*
X207200000Y-93570000D02*
X207200000Y-92320000D01*
X207410000Y-38120000D02*
X207410000Y-39370000D01*
X207410000Y-39370000D02*
X208660000Y-39370000D01*
X207700000Y-28960000D02*
X207700000Y-39080000D01*
X207700000Y-39080000D02*
X213670000Y-39080000D01*
X207710000Y-28970000D02*
X207710000Y-30770000D01*
X207710000Y-30770000D02*
X208460000Y-30770000D01*
X207710000Y-32270000D02*
X207710000Y-35770000D01*
X207710000Y-35770000D02*
X208460000Y-35770000D01*
X207710000Y-37270000D02*
X207710000Y-39070000D01*
X207710000Y-39070000D02*
X208460000Y-39070000D01*
X208460000Y-28970000D02*
X207710000Y-28970000D01*
X208460000Y-30770000D02*
X208460000Y-28970000D01*
X208460000Y-32270000D02*
X207710000Y-32270000D01*
X208460000Y-35770000D02*
X208460000Y-32270000D01*
X208460000Y-37270000D02*
X207710000Y-37270000D01*
X208460000Y-39070000D02*
X208460000Y-37270000D01*
X209960000Y-28970000D02*
X209960000Y-29720000D01*
X209960000Y-29720000D02*
X212910000Y-29720000D01*
X209960000Y-38320000D02*
X212910000Y-38320000D01*
X209960000Y-39070000D02*
X209960000Y-38320000D01*
X212910000Y-29720000D02*
X212910000Y-34020000D01*
X212910000Y-38320000D02*
X212910000Y-34020000D01*
X213670000Y-28960000D02*
X207700000Y-28960000D01*
X213670000Y-39080000D02*
X213670000Y-28960000D01*
X207400000Y-70670000D02*
X207400000Y-71920000D01*
X207400000Y-71920000D02*
X208650000Y-71920000D01*
X207690000Y-56510000D02*
X207690000Y-71630000D01*
X207690000Y-71630000D02*
X213660000Y-71630000D01*
X207700000Y-56520000D02*
X207700000Y-58320000D01*
X207700000Y-58320000D02*
X208450000Y-58320000D01*
X207700000Y-59820000D02*
X207700000Y-68320000D01*
X207700000Y-68320000D02*
X208450000Y-68320000D01*
X207700000Y-69820000D02*
X207700000Y-71620000D01*
X207700000Y-71620000D02*
X208450000Y-71620000D01*
X208450000Y-56520000D02*
X207700000Y-56520000D01*
X208450000Y-58320000D02*
X208450000Y-56520000D01*
X208450000Y-59820000D02*
X207700000Y-59820000D01*
X208450000Y-68320000D02*
X208450000Y-59820000D01*
X208450000Y-69820000D02*
X207700000Y-69820000D01*
X208450000Y-71620000D02*
X208450000Y-69820000D01*
X209950000Y-56520000D02*
X209950000Y-57270000D01*
X209950000Y-57270000D02*
X212900000Y-57270000D01*
X209950000Y-70870000D02*
X212900000Y-70870000D01*
X209950000Y-71620000D02*
X209950000Y-70870000D01*
X212900000Y-57270000D02*
X212900000Y-64070000D01*
X212900000Y-70870000D02*
X212900000Y-64070000D01*
X213660000Y-56510000D02*
X207690000Y-56510000D01*
X213660000Y-71630000D02*
X213660000Y-56510000D01*
X200660000Y-38120000D02*
X200660000Y-39370000D01*
X200660000Y-39370000D02*
X201910000Y-39370000D01*
X200950000Y-28960000D02*
X200950000Y-39080000D01*
X200950000Y-39080000D02*
X206920000Y-39080000D01*
X200960000Y-28970000D02*
X200960000Y-30770000D01*
X200960000Y-30770000D02*
X201710000Y-30770000D01*
X200960000Y-32270000D02*
X200960000Y-35770000D01*
X200960000Y-35770000D02*
X201710000Y-35770000D01*
X200960000Y-37270000D02*
X200960000Y-39070000D01*
X200960000Y-39070000D02*
X201710000Y-39070000D01*
X201710000Y-28970000D02*
X200960000Y-28970000D01*
X201710000Y-30770000D02*
X201710000Y-28970000D01*
X201710000Y-32270000D02*
X200960000Y-32270000D01*
X201710000Y-35770000D02*
X201710000Y-32270000D01*
X201710000Y-37270000D02*
X200960000Y-37270000D01*
X201710000Y-39070000D02*
X201710000Y-37270000D01*
X203210000Y-28970000D02*
X203210000Y-29720000D01*
X203210000Y-29720000D02*
X206160000Y-29720000D01*
X203210000Y-38320000D02*
X206160000Y-38320000D01*
X203210000Y-39070000D02*
X203210000Y-38320000D01*
X206160000Y-29720000D02*
X206160000Y-34020000D01*
X206160000Y-38320000D02*
X206160000Y-34020000D01*
X206920000Y-28960000D02*
X200950000Y-28960000D01*
X206920000Y-39080000D02*
X206920000Y-28960000D01*
X193900000Y-53870000D02*
X193900000Y-55120000D01*
X193900000Y-55120000D02*
X195150000Y-55120000D01*
X194190000Y-42210000D02*
X194190000Y-54830000D01*
X194190000Y-54830000D02*
X200160000Y-54830000D01*
X194200000Y-42220000D02*
X194200000Y-44020000D01*
X194200000Y-44020000D02*
X194950000Y-44020000D01*
X194200000Y-45520000D02*
X194200000Y-51520000D01*
X194200000Y-51520000D02*
X194950000Y-51520000D01*
X194200000Y-53020000D02*
X194200000Y-54820000D01*
X194200000Y-54820000D02*
X194950000Y-54820000D01*
X194950000Y-42220000D02*
X194200000Y-42220000D01*
X194950000Y-44020000D02*
X194950000Y-42220000D01*
X194950000Y-45520000D02*
X194200000Y-45520000D01*
X194950000Y-51520000D02*
X194950000Y-45520000D01*
X194950000Y-53020000D02*
X194200000Y-53020000D01*
X194950000Y-54820000D02*
X194950000Y-53020000D01*
X196450000Y-42220000D02*
X196450000Y-42970000D01*
X196450000Y-42970000D02*
X199400000Y-42970000D01*
X196450000Y-54070000D02*
X199400000Y-54070000D01*
X196450000Y-54820000D02*
X196450000Y-54070000D01*
X199400000Y-42970000D02*
X199400000Y-48520000D01*
X199400000Y-54070000D02*
X199400000Y-48520000D01*
X200160000Y-42210000D02*
X194190000Y-42210000D01*
X200160000Y-54830000D02*
X200160000Y-42210000D01*
X207690000Y-87310000D02*
X207690000Y-93280000D01*
X207690000Y-93280000D02*
X215310000Y-93280000D01*
X207700000Y-91020000D02*
X208450000Y-91020000D01*
X207700000Y-92520000D02*
X207700000Y-93270000D01*
X207700000Y-93270000D02*
X209500000Y-93270000D01*
X208450000Y-88070000D02*
X211500000Y-88070000D01*
X208450000Y-91020000D02*
X208450000Y-88070000D01*
X209500000Y-92520000D02*
X207700000Y-92520000D01*
X209500000Y-93270000D02*
X209500000Y-92520000D01*
X211000000Y-92520000D02*
X211000000Y-93270000D01*
X211000000Y-93270000D02*
X212000000Y-93270000D01*
X212000000Y-92520000D02*
X211000000Y-92520000D01*
X212000000Y-93270000D02*
X212000000Y-92520000D01*
X213500000Y-92520000D02*
X213500000Y-93270000D01*
X213500000Y-93270000D02*
X215300000Y-93270000D01*
X214350000Y-93570000D02*
X215600000Y-93570000D01*
X214550000Y-88070000D02*
X211500000Y-88070000D01*
X214550000Y-91020000D02*
X214550000Y-88070000D01*
X215300000Y-91020000D02*
X214550000Y-91020000D01*
X215300000Y-92520000D02*
X213500000Y-92520000D01*
X215300000Y-93270000D02*
X215300000Y-92520000D01*
X215310000Y-87310000D02*
X207690000Y-87310000D01*
X215310000Y-93280000D02*
X215310000Y-87310000D01*
X215600000Y-93570000D02*
X215600000Y-92320000D01*
X207400000Y-83560000D02*
X207400000Y-84810000D01*
X207400000Y-84810000D02*
X208650000Y-84810000D01*
X207690000Y-74400000D02*
X207690000Y-84520000D01*
X207690000Y-84520000D02*
X213660000Y-84520000D01*
X207700000Y-74410000D02*
X207700000Y-76210000D01*
X207700000Y-76210000D02*
X208450000Y-76210000D01*
X207700000Y-77710000D02*
X207700000Y-81210000D01*
X207700000Y-81210000D02*
X208450000Y-81210000D01*
X207700000Y-82710000D02*
X207700000Y-84510000D01*
X207700000Y-84510000D02*
X208450000Y-84510000D01*
X208450000Y-74410000D02*
X207700000Y-74410000D01*
X208450000Y-76210000D02*
X208450000Y-74410000D01*
X208450000Y-77710000D02*
X207700000Y-77710000D01*
X208450000Y-81210000D02*
X208450000Y-77710000D01*
X208450000Y-82710000D02*
X207700000Y-82710000D01*
X208450000Y-84510000D02*
X208450000Y-82710000D01*
X209950000Y-74410000D02*
X209950000Y-75160000D01*
X209950000Y-75160000D02*
X212900000Y-75160000D01*
X209950000Y-83760000D02*
X212900000Y-83760000D01*
X209950000Y-84510000D02*
X209950000Y-83760000D01*
X212900000Y-75160000D02*
X212900000Y-79460000D01*
X212900000Y-83760000D02*
X212900000Y-79460000D01*
X213660000Y-74400000D02*
X207690000Y-74400000D01*
X213660000Y-84520000D02*
X213660000Y-74400000D01*
X193900000Y-70670000D02*
X193900000Y-71920000D01*
X193900000Y-71920000D02*
X195150000Y-71920000D01*
X194190000Y-64010000D02*
X194190000Y-71630000D01*
X194190000Y-71630000D02*
X200160000Y-71630000D01*
X194200000Y-64020000D02*
X194200000Y-65820000D01*
X194200000Y-65820000D02*
X194950000Y-65820000D01*
X194200000Y-67320000D02*
X194200000Y-68320000D01*
X194200000Y-68320000D02*
X194950000Y-68320000D01*
X194200000Y-69820000D02*
X194200000Y-71620000D01*
X194200000Y-71620000D02*
X194950000Y-71620000D01*
X194950000Y-64020000D02*
X194200000Y-64020000D01*
X194950000Y-65820000D02*
X194950000Y-64020000D01*
X194950000Y-67320000D02*
X194200000Y-67320000D01*
X194950000Y-68320000D02*
X194950000Y-67320000D01*
X194950000Y-69820000D02*
X194200000Y-69820000D01*
X194950000Y-71620000D02*
X194950000Y-69820000D01*
X196450000Y-64020000D02*
X196450000Y-64770000D01*
X196450000Y-64770000D02*
X199400000Y-64770000D01*
X196450000Y-70870000D02*
X199400000Y-70870000D01*
X196450000Y-71620000D02*
X196450000Y-70870000D01*
X199400000Y-64770000D02*
X199400000Y-67820000D01*
X199400000Y-70870000D02*
X199400000Y-67820000D01*
X200160000Y-64010000D02*
X194190000Y-64010000D01*
X200160000Y-71630000D02*
X200160000Y-64010000D01*
X200650000Y-83560000D02*
X200650000Y-84810000D01*
X200650000Y-84810000D02*
X201900000Y-84810000D01*
X200940000Y-74400000D02*
X200940000Y-84520000D01*
X200940000Y-84520000D02*
X206910000Y-84520000D01*
X200950000Y-74410000D02*
X200950000Y-76210000D01*
X200950000Y-76210000D02*
X201700000Y-76210000D01*
X200950000Y-77710000D02*
X200950000Y-81210000D01*
X200950000Y-81210000D02*
X201700000Y-81210000D01*
X200950000Y-82710000D02*
X200950000Y-84510000D01*
X200950000Y-84510000D02*
X201700000Y-84510000D01*
X201700000Y-74410000D02*
X200950000Y-74410000D01*
X201700000Y-76210000D02*
X201700000Y-74410000D01*
X201700000Y-77710000D02*
X200950000Y-77710000D01*
X201700000Y-81210000D02*
X201700000Y-77710000D01*
X201700000Y-82710000D02*
X200950000Y-82710000D01*
X201700000Y-84510000D02*
X201700000Y-82710000D01*
X203200000Y-74410000D02*
X203200000Y-75160000D01*
X203200000Y-75160000D02*
X206150000Y-75160000D01*
X203200000Y-83760000D02*
X206150000Y-83760000D01*
X203200000Y-84510000D02*
X203200000Y-83760000D01*
X206150000Y-75160000D02*
X206150000Y-79460000D01*
X206150000Y-83760000D02*
X206150000Y-79460000D01*
X206910000Y-74400000D02*
X200940000Y-74400000D01*
X206910000Y-84520000D02*
X206910000Y-74400000D01*
X193900000Y-62270000D02*
X193900000Y-63520000D01*
X193900000Y-63520000D02*
X195150000Y-63520000D01*
X194190000Y-55610000D02*
X194190000Y-63230000D01*
X194190000Y-63230000D02*
X200160000Y-63230000D01*
X194200000Y-55620000D02*
X194200000Y-57420000D01*
X194200000Y-57420000D02*
X194950000Y-57420000D01*
X194200000Y-58920000D02*
X194200000Y-59920000D01*
X194200000Y-59920000D02*
X194950000Y-59920000D01*
X194200000Y-61420000D02*
X194200000Y-63220000D01*
X194200000Y-63220000D02*
X194950000Y-63220000D01*
X194950000Y-55620000D02*
X194200000Y-55620000D01*
X194950000Y-57420000D02*
X194950000Y-55620000D01*
X194950000Y-58920000D02*
X194200000Y-58920000D01*
X194950000Y-59920000D02*
X194950000Y-58920000D01*
X194950000Y-61420000D02*
X194200000Y-61420000D01*
X194950000Y-63220000D02*
X194950000Y-61420000D01*
X196450000Y-55620000D02*
X196450000Y-56370000D01*
X196450000Y-56370000D02*
X199400000Y-56370000D01*
X196450000Y-62470000D02*
X199400000Y-62470000D01*
X196450000Y-63220000D02*
X196450000Y-62470000D01*
X199400000Y-56370000D02*
X199400000Y-59420000D01*
X199400000Y-62470000D02*
X199400000Y-59420000D01*
X200160000Y-55610000D02*
X194190000Y-55610000D01*
X200160000Y-63230000D02*
X200160000Y-55610000D01*
M02*
