G04 #@! TF.GenerationSoftware,KiCad,Pcbnew,8.0.4*
G04 #@! TF.CreationDate,2025-05-04T21:26:18-04:00*
G04 #@! TF.ProjectId,openduck,6f70656e-6475-4636-9b2e-6b696361645f,rev?*
G04 #@! TF.SameCoordinates,Original*
G04 #@! TF.FileFunction,Legend,Bot*
G04 #@! TF.FilePolarity,Positive*
%FSLAX46Y46*%
G04 Gerber Fmt 4.6, Leading zero omitted, Abs format (unit mm)*
G04 Created by KiCad (PCBNEW 8.0.4) date 2025-05-04 21:26:18*
%MOMM*%
%LPD*%
G01*
G04 APERTURE LIST*
%ADD10C,0.150000*%
%ADD11C,0.120000*%
G04 APERTURE END LIST*
D10*
X200317506Y-81517438D02*
X200412744Y-81469819D01*
X200412744Y-81469819D02*
X200555601Y-81469819D01*
X200555601Y-81469819D02*
X200698458Y-81517438D01*
X200698458Y-81517438D02*
X200793696Y-81612676D01*
X200793696Y-81612676D02*
X200841315Y-81707914D01*
X200841315Y-81707914D02*
X200888934Y-81898390D01*
X200888934Y-81898390D02*
X200888934Y-82041247D01*
X200888934Y-82041247D02*
X200841315Y-82231723D01*
X200841315Y-82231723D02*
X200793696Y-82326961D01*
X200793696Y-82326961D02*
X200698458Y-82422200D01*
X200698458Y-82422200D02*
X200555601Y-82469819D01*
X200555601Y-82469819D02*
X200460363Y-82469819D01*
X200460363Y-82469819D02*
X200317506Y-82422200D01*
X200317506Y-82422200D02*
X200269887Y-82374580D01*
X200269887Y-82374580D02*
X200269887Y-82041247D01*
X200269887Y-82041247D02*
X200460363Y-82041247D01*
X199841315Y-82469819D02*
X199841315Y-81469819D01*
X199841315Y-81469819D02*
X199269887Y-82469819D01*
X199269887Y-82469819D02*
X199269887Y-81469819D01*
X198793696Y-82469819D02*
X198793696Y-81469819D01*
X198793696Y-81469819D02*
X198555601Y-81469819D01*
X198555601Y-81469819D02*
X198412744Y-81517438D01*
X198412744Y-81517438D02*
X198317506Y-81612676D01*
X198317506Y-81612676D02*
X198269887Y-81707914D01*
X198269887Y-81707914D02*
X198222268Y-81898390D01*
X198222268Y-81898390D02*
X198222268Y-82041247D01*
X198222268Y-82041247D02*
X198269887Y-82231723D01*
X198269887Y-82231723D02*
X198317506Y-82326961D01*
X198317506Y-82326961D02*
X198412744Y-82422200D01*
X198412744Y-82422200D02*
X198555601Y-82469819D01*
X198555601Y-82469819D02*
X198793696Y-82469819D01*
X205138221Y-88157438D02*
X205233459Y-88109819D01*
X205233459Y-88109819D02*
X205376316Y-88109819D01*
X205376316Y-88109819D02*
X205519173Y-88157438D01*
X205519173Y-88157438D02*
X205614411Y-88252676D01*
X205614411Y-88252676D02*
X205662030Y-88347914D01*
X205662030Y-88347914D02*
X205709649Y-88538390D01*
X205709649Y-88538390D02*
X205709649Y-88681247D01*
X205709649Y-88681247D02*
X205662030Y-88871723D01*
X205662030Y-88871723D02*
X205614411Y-88966961D01*
X205614411Y-88966961D02*
X205519173Y-89062200D01*
X205519173Y-89062200D02*
X205376316Y-89109819D01*
X205376316Y-89109819D02*
X205281078Y-89109819D01*
X205281078Y-89109819D02*
X205138221Y-89062200D01*
X205138221Y-89062200D02*
X205090602Y-89014580D01*
X205090602Y-89014580D02*
X205090602Y-88681247D01*
X205090602Y-88681247D02*
X205281078Y-88681247D01*
X204662030Y-89109819D02*
X204662030Y-88109819D01*
X204662030Y-88109819D02*
X204090602Y-89109819D01*
X204090602Y-89109819D02*
X204090602Y-88109819D01*
X203614411Y-89109819D02*
X203614411Y-88109819D01*
X203614411Y-88109819D02*
X203376316Y-88109819D01*
X203376316Y-88109819D02*
X203233459Y-88157438D01*
X203233459Y-88157438D02*
X203138221Y-88252676D01*
X203138221Y-88252676D02*
X203090602Y-88347914D01*
X203090602Y-88347914D02*
X203042983Y-88538390D01*
X203042983Y-88538390D02*
X203042983Y-88681247D01*
X203042983Y-88681247D02*
X203090602Y-88871723D01*
X203090602Y-88871723D02*
X203138221Y-88966961D01*
X203138221Y-88966961D02*
X203233459Y-89062200D01*
X203233459Y-89062200D02*
X203376316Y-89109819D01*
X203376316Y-89109819D02*
X203614411Y-89109819D01*
X208007030Y-66041569D02*
X208483220Y-66041569D01*
X208483220Y-66041569D02*
X208530839Y-66517759D01*
X208530839Y-66517759D02*
X208483220Y-66470140D01*
X208483220Y-66470140D02*
X208387982Y-66422521D01*
X208387982Y-66422521D02*
X208149887Y-66422521D01*
X208149887Y-66422521D02*
X208054649Y-66470140D01*
X208054649Y-66470140D02*
X208007030Y-66517759D01*
X208007030Y-66517759D02*
X207959411Y-66612997D01*
X207959411Y-66612997D02*
X207959411Y-66851092D01*
X207959411Y-66851092D02*
X208007030Y-66946330D01*
X208007030Y-66946330D02*
X208054649Y-66993950D01*
X208054649Y-66993950D02*
X208149887Y-67041569D01*
X208149887Y-67041569D02*
X208387982Y-67041569D01*
X208387982Y-67041569D02*
X208483220Y-66993950D01*
X208483220Y-66993950D02*
X208530839Y-66946330D01*
X207673696Y-66041569D02*
X207340363Y-67041569D01*
X207340363Y-67041569D02*
X207007030Y-66041569D01*
X199650839Y-76469819D02*
X199079411Y-76469819D01*
X199365125Y-77469819D02*
X199365125Y-76469819D01*
X198841315Y-76469819D02*
X198174649Y-77469819D01*
X198174649Y-76469819D02*
X198841315Y-77469819D01*
X212747030Y-35991569D02*
X213223220Y-35991569D01*
X213223220Y-35991569D02*
X213270839Y-36467759D01*
X213270839Y-36467759D02*
X213223220Y-36420140D01*
X213223220Y-36420140D02*
X213127982Y-36372521D01*
X213127982Y-36372521D02*
X212889887Y-36372521D01*
X212889887Y-36372521D02*
X212794649Y-36420140D01*
X212794649Y-36420140D02*
X212747030Y-36467759D01*
X212747030Y-36467759D02*
X212699411Y-36562997D01*
X212699411Y-36562997D02*
X212699411Y-36801092D01*
X212699411Y-36801092D02*
X212747030Y-36896330D01*
X212747030Y-36896330D02*
X212794649Y-36943950D01*
X212794649Y-36943950D02*
X212889887Y-36991569D01*
X212889887Y-36991569D02*
X213127982Y-36991569D01*
X213127982Y-36991569D02*
X213223220Y-36943950D01*
X213223220Y-36943950D02*
X213270839Y-36896330D01*
X212413696Y-35991569D02*
X212080363Y-36991569D01*
X212080363Y-36991569D02*
X211747030Y-35991569D01*
X201139411Y-33539188D02*
X201234649Y-33491569D01*
X201234649Y-33491569D02*
X201377506Y-33491569D01*
X201377506Y-33491569D02*
X201520363Y-33539188D01*
X201520363Y-33539188D02*
X201615601Y-33634426D01*
X201615601Y-33634426D02*
X201663220Y-33729664D01*
X201663220Y-33729664D02*
X201710839Y-33920140D01*
X201710839Y-33920140D02*
X201710839Y-34062997D01*
X201710839Y-34062997D02*
X201663220Y-34253473D01*
X201663220Y-34253473D02*
X201615601Y-34348711D01*
X201615601Y-34348711D02*
X201520363Y-34443950D01*
X201520363Y-34443950D02*
X201377506Y-34491569D01*
X201377506Y-34491569D02*
X201282268Y-34491569D01*
X201282268Y-34491569D02*
X201139411Y-34443950D01*
X201139411Y-34443950D02*
X201091792Y-34396330D01*
X201091792Y-34396330D02*
X201091792Y-34062997D01*
X201091792Y-34062997D02*
X201282268Y-34062997D01*
X200663220Y-34491569D02*
X200663220Y-33491569D01*
X200663220Y-33491569D02*
X200091792Y-34491569D01*
X200091792Y-34491569D02*
X200091792Y-33491569D01*
X199615601Y-34491569D02*
X199615601Y-33491569D01*
X199615601Y-33491569D02*
X199377506Y-33491569D01*
X199377506Y-33491569D02*
X199234649Y-33539188D01*
X199234649Y-33539188D02*
X199139411Y-33634426D01*
X199139411Y-33634426D02*
X199091792Y-33729664D01*
X199091792Y-33729664D02*
X199044173Y-33920140D01*
X199044173Y-33920140D02*
X199044173Y-34062997D01*
X199044173Y-34062997D02*
X199091792Y-34253473D01*
X199091792Y-34253473D02*
X199139411Y-34348711D01*
X199139411Y-34348711D02*
X199234649Y-34443950D01*
X199234649Y-34443950D02*
X199377506Y-34491569D01*
X199377506Y-34491569D02*
X199615601Y-34491569D01*
X201710839Y-31086807D02*
X201663220Y-31039188D01*
X201663220Y-31039188D02*
X201567982Y-30991569D01*
X201567982Y-30991569D02*
X201329887Y-30991569D01*
X201329887Y-30991569D02*
X201234649Y-31039188D01*
X201234649Y-31039188D02*
X201187030Y-31086807D01*
X201187030Y-31086807D02*
X201139411Y-31182045D01*
X201139411Y-31182045D02*
X201139411Y-31277283D01*
X201139411Y-31277283D02*
X201187030Y-31420140D01*
X201187030Y-31420140D02*
X201758458Y-31991569D01*
X201758458Y-31991569D02*
X201139411Y-31991569D01*
X200282268Y-31324902D02*
X200282268Y-31991569D01*
X200520363Y-30943950D02*
X200758458Y-31658235D01*
X200758458Y-31658235D02*
X200139411Y-31658235D01*
X213316077Y-44375057D02*
X213268458Y-44327438D01*
X213268458Y-44327438D02*
X213173220Y-44279819D01*
X213173220Y-44279819D02*
X212935125Y-44279819D01*
X212935125Y-44279819D02*
X212839887Y-44327438D01*
X212839887Y-44327438D02*
X212792268Y-44375057D01*
X212792268Y-44375057D02*
X212744649Y-44470295D01*
X212744649Y-44470295D02*
X212744649Y-44565533D01*
X212744649Y-44565533D02*
X212792268Y-44708390D01*
X212792268Y-44708390D02*
X213363696Y-45279819D01*
X213363696Y-45279819D02*
X212744649Y-45279819D01*
X211839887Y-44279819D02*
X212316077Y-44279819D01*
X212316077Y-44279819D02*
X212363696Y-44756009D01*
X212363696Y-44756009D02*
X212316077Y-44708390D01*
X212316077Y-44708390D02*
X212220839Y-44660771D01*
X212220839Y-44660771D02*
X211982744Y-44660771D01*
X211982744Y-44660771D02*
X211887506Y-44708390D01*
X211887506Y-44708390D02*
X211839887Y-44756009D01*
X211839887Y-44756009D02*
X211792268Y-44851247D01*
X211792268Y-44851247D02*
X211792268Y-45089342D01*
X211792268Y-45089342D02*
X211839887Y-45184580D01*
X211839887Y-45184580D02*
X211887506Y-45232200D01*
X211887506Y-45232200D02*
X211982744Y-45279819D01*
X211982744Y-45279819D02*
X212220839Y-45279819D01*
X212220839Y-45279819D02*
X212316077Y-45232200D01*
X212316077Y-45232200D02*
X212363696Y-45184580D01*
X211038220Y-88205057D02*
X210990601Y-88157438D01*
X210990601Y-88157438D02*
X210895363Y-88109819D01*
X210895363Y-88109819D02*
X210657268Y-88109819D01*
X210657268Y-88109819D02*
X210562030Y-88157438D01*
X210562030Y-88157438D02*
X210514411Y-88205057D01*
X210514411Y-88205057D02*
X210466792Y-88300295D01*
X210466792Y-88300295D02*
X210466792Y-88395533D01*
X210466792Y-88395533D02*
X210514411Y-88538390D01*
X210514411Y-88538390D02*
X211085839Y-89109819D01*
X211085839Y-89109819D02*
X210466792Y-89109819D01*
X209609649Y-88109819D02*
X209800125Y-88109819D01*
X209800125Y-88109819D02*
X209895363Y-88157438D01*
X209895363Y-88157438D02*
X209942982Y-88205057D01*
X209942982Y-88205057D02*
X210038220Y-88347914D01*
X210038220Y-88347914D02*
X210085839Y-88538390D01*
X210085839Y-88538390D02*
X210085839Y-88919342D01*
X210085839Y-88919342D02*
X210038220Y-89014580D01*
X210038220Y-89014580D02*
X209990601Y-89062200D01*
X209990601Y-89062200D02*
X209895363Y-89109819D01*
X209895363Y-89109819D02*
X209704887Y-89109819D01*
X209704887Y-89109819D02*
X209609649Y-89062200D01*
X209609649Y-89062200D02*
X209562030Y-89014580D01*
X209562030Y-89014580D02*
X209514411Y-88919342D01*
X209514411Y-88919342D02*
X209514411Y-88681247D01*
X209514411Y-88681247D02*
X209562030Y-88586009D01*
X209562030Y-88586009D02*
X209609649Y-88538390D01*
X209609649Y-88538390D02*
X209704887Y-88490771D01*
X209704887Y-88490771D02*
X209895363Y-88490771D01*
X209895363Y-88490771D02*
X209990601Y-88538390D01*
X209990601Y-88538390D02*
X210038220Y-88586009D01*
X210038220Y-88586009D02*
X210085839Y-88681247D01*
X213538221Y-88157438D02*
X213633459Y-88109819D01*
X213633459Y-88109819D02*
X213776316Y-88109819D01*
X213776316Y-88109819D02*
X213919173Y-88157438D01*
X213919173Y-88157438D02*
X214014411Y-88252676D01*
X214014411Y-88252676D02*
X214062030Y-88347914D01*
X214062030Y-88347914D02*
X214109649Y-88538390D01*
X214109649Y-88538390D02*
X214109649Y-88681247D01*
X214109649Y-88681247D02*
X214062030Y-88871723D01*
X214062030Y-88871723D02*
X214014411Y-88966961D01*
X214014411Y-88966961D02*
X213919173Y-89062200D01*
X213919173Y-89062200D02*
X213776316Y-89109819D01*
X213776316Y-89109819D02*
X213681078Y-89109819D01*
X213681078Y-89109819D02*
X213538221Y-89062200D01*
X213538221Y-89062200D02*
X213490602Y-89014580D01*
X213490602Y-89014580D02*
X213490602Y-88681247D01*
X213490602Y-88681247D02*
X213681078Y-88681247D01*
X213062030Y-89109819D02*
X213062030Y-88109819D01*
X213062030Y-88109819D02*
X212490602Y-89109819D01*
X212490602Y-89109819D02*
X212490602Y-88109819D01*
X212014411Y-89109819D02*
X212014411Y-88109819D01*
X212014411Y-88109819D02*
X211776316Y-88109819D01*
X211776316Y-88109819D02*
X211633459Y-88157438D01*
X211633459Y-88157438D02*
X211538221Y-88252676D01*
X211538221Y-88252676D02*
X211490602Y-88347914D01*
X211490602Y-88347914D02*
X211442983Y-88538390D01*
X211442983Y-88538390D02*
X211442983Y-88681247D01*
X211442983Y-88681247D02*
X211490602Y-88871723D01*
X211490602Y-88871723D02*
X211538221Y-88966961D01*
X211538221Y-88966961D02*
X211633459Y-89062200D01*
X211633459Y-89062200D02*
X211776316Y-89109819D01*
X211776316Y-89109819D02*
X212014411Y-89109819D01*
X207054649Y-81517438D02*
X207149887Y-81469819D01*
X207149887Y-81469819D02*
X207292744Y-81469819D01*
X207292744Y-81469819D02*
X207435601Y-81517438D01*
X207435601Y-81517438D02*
X207530839Y-81612676D01*
X207530839Y-81612676D02*
X207578458Y-81707914D01*
X207578458Y-81707914D02*
X207626077Y-81898390D01*
X207626077Y-81898390D02*
X207626077Y-82041247D01*
X207626077Y-82041247D02*
X207578458Y-82231723D01*
X207578458Y-82231723D02*
X207530839Y-82326961D01*
X207530839Y-82326961D02*
X207435601Y-82422200D01*
X207435601Y-82422200D02*
X207292744Y-82469819D01*
X207292744Y-82469819D02*
X207197506Y-82469819D01*
X207197506Y-82469819D02*
X207054649Y-82422200D01*
X207054649Y-82422200D02*
X207007030Y-82374580D01*
X207007030Y-82374580D02*
X207007030Y-82041247D01*
X207007030Y-82041247D02*
X207197506Y-82041247D01*
X206578458Y-82469819D02*
X206578458Y-81469819D01*
X206578458Y-81469819D02*
X206007030Y-82469819D01*
X206007030Y-82469819D02*
X206007030Y-81469819D01*
X205530839Y-82469819D02*
X205530839Y-81469819D01*
X205530839Y-81469819D02*
X205292744Y-81469819D01*
X205292744Y-81469819D02*
X205149887Y-81517438D01*
X205149887Y-81517438D02*
X205054649Y-81612676D01*
X205054649Y-81612676D02*
X205007030Y-81707914D01*
X205007030Y-81707914D02*
X204959411Y-81898390D01*
X204959411Y-81898390D02*
X204959411Y-82041247D01*
X204959411Y-82041247D02*
X205007030Y-82231723D01*
X205007030Y-82231723D02*
X205054649Y-82326961D01*
X205054649Y-82326961D02*
X205149887Y-82422200D01*
X205149887Y-82422200D02*
X205292744Y-82469819D01*
X205292744Y-82469819D02*
X205530839Y-82469819D01*
X201175601Y-49241569D02*
X200556554Y-49241569D01*
X200556554Y-49241569D02*
X200889887Y-49622521D01*
X200889887Y-49622521D02*
X200747030Y-49622521D01*
X200747030Y-49622521D02*
X200651792Y-49670140D01*
X200651792Y-49670140D02*
X200604173Y-49717759D01*
X200604173Y-49717759D02*
X200556554Y-49812997D01*
X200556554Y-49812997D02*
X200556554Y-50051092D01*
X200556554Y-50051092D02*
X200604173Y-50146330D01*
X200604173Y-50146330D02*
X200651792Y-50193950D01*
X200651792Y-50193950D02*
X200747030Y-50241569D01*
X200747030Y-50241569D02*
X201032744Y-50241569D01*
X201032744Y-50241569D02*
X201127982Y-50193950D01*
X201127982Y-50193950D02*
X201175601Y-50146330D01*
X200270839Y-49241569D02*
X199937506Y-50241569D01*
X199937506Y-50241569D02*
X199604173Y-49241569D01*
X199366077Y-49241569D02*
X198747030Y-49241569D01*
X198747030Y-49241569D02*
X199080363Y-49622521D01*
X199080363Y-49622521D02*
X198937506Y-49622521D01*
X198937506Y-49622521D02*
X198842268Y-49670140D01*
X198842268Y-49670140D02*
X198794649Y-49717759D01*
X198794649Y-49717759D02*
X198747030Y-49812997D01*
X198747030Y-49812997D02*
X198747030Y-50051092D01*
X198747030Y-50051092D02*
X198794649Y-50146330D01*
X198794649Y-50146330D02*
X198842268Y-50193950D01*
X198842268Y-50193950D02*
X198937506Y-50241569D01*
X198937506Y-50241569D02*
X199223220Y-50241569D01*
X199223220Y-50241569D02*
X199318458Y-50193950D01*
X199318458Y-50193950D02*
X199366077Y-50146330D01*
X207959411Y-68589188D02*
X208054649Y-68541569D01*
X208054649Y-68541569D02*
X208197506Y-68541569D01*
X208197506Y-68541569D02*
X208340363Y-68589188D01*
X208340363Y-68589188D02*
X208435601Y-68684426D01*
X208435601Y-68684426D02*
X208483220Y-68779664D01*
X208483220Y-68779664D02*
X208530839Y-68970140D01*
X208530839Y-68970140D02*
X208530839Y-69112997D01*
X208530839Y-69112997D02*
X208483220Y-69303473D01*
X208483220Y-69303473D02*
X208435601Y-69398711D01*
X208435601Y-69398711D02*
X208340363Y-69493950D01*
X208340363Y-69493950D02*
X208197506Y-69541569D01*
X208197506Y-69541569D02*
X208102268Y-69541569D01*
X208102268Y-69541569D02*
X207959411Y-69493950D01*
X207959411Y-69493950D02*
X207911792Y-69446330D01*
X207911792Y-69446330D02*
X207911792Y-69112997D01*
X207911792Y-69112997D02*
X208102268Y-69112997D01*
X207483220Y-69541569D02*
X207483220Y-68541569D01*
X207483220Y-68541569D02*
X206911792Y-69541569D01*
X206911792Y-69541569D02*
X206911792Y-68541569D01*
X206435601Y-69541569D02*
X206435601Y-68541569D01*
X206435601Y-68541569D02*
X206197506Y-68541569D01*
X206197506Y-68541569D02*
X206054649Y-68589188D01*
X206054649Y-68589188D02*
X205959411Y-68684426D01*
X205959411Y-68684426D02*
X205911792Y-68779664D01*
X205911792Y-68779664D02*
X205864173Y-68970140D01*
X205864173Y-68970140D02*
X205864173Y-69112997D01*
X205864173Y-69112997D02*
X205911792Y-69303473D01*
X205911792Y-69303473D02*
X205959411Y-69398711D01*
X205959411Y-69398711D02*
X206054649Y-69493950D01*
X206054649Y-69493950D02*
X206197506Y-69541569D01*
X206197506Y-69541569D02*
X206435601Y-69541569D01*
X213937506Y-33539188D02*
X214032744Y-33491569D01*
X214032744Y-33491569D02*
X214175601Y-33491569D01*
X214175601Y-33491569D02*
X214318458Y-33539188D01*
X214318458Y-33539188D02*
X214413696Y-33634426D01*
X214413696Y-33634426D02*
X214461315Y-33729664D01*
X214461315Y-33729664D02*
X214508934Y-33920140D01*
X214508934Y-33920140D02*
X214508934Y-34062997D01*
X214508934Y-34062997D02*
X214461315Y-34253473D01*
X214461315Y-34253473D02*
X214413696Y-34348711D01*
X214413696Y-34348711D02*
X214318458Y-34443950D01*
X214318458Y-34443950D02*
X214175601Y-34491569D01*
X214175601Y-34491569D02*
X214080363Y-34491569D01*
X214080363Y-34491569D02*
X213937506Y-34443950D01*
X213937506Y-34443950D02*
X213889887Y-34396330D01*
X213889887Y-34396330D02*
X213889887Y-34062997D01*
X213889887Y-34062997D02*
X214080363Y-34062997D01*
X213461315Y-34491569D02*
X213461315Y-33491569D01*
X213461315Y-33491569D02*
X212889887Y-34491569D01*
X212889887Y-34491569D02*
X212889887Y-33491569D01*
X212413696Y-34491569D02*
X212413696Y-33491569D01*
X212413696Y-33491569D02*
X212175601Y-33491569D01*
X212175601Y-33491569D02*
X212032744Y-33539188D01*
X212032744Y-33539188D02*
X211937506Y-33634426D01*
X211937506Y-33634426D02*
X211889887Y-33729664D01*
X211889887Y-33729664D02*
X211842268Y-33920140D01*
X211842268Y-33920140D02*
X211842268Y-34062997D01*
X211842268Y-34062997D02*
X211889887Y-34253473D01*
X211889887Y-34253473D02*
X211937506Y-34348711D01*
X211937506Y-34348711D02*
X212032744Y-34443950D01*
X212032744Y-34443950D02*
X212175601Y-34491569D01*
X212175601Y-34491569D02*
X212413696Y-34491569D01*
X199174649Y-79969819D02*
X199507982Y-79493628D01*
X199746077Y-79969819D02*
X199746077Y-78969819D01*
X199746077Y-78969819D02*
X199365125Y-78969819D01*
X199365125Y-78969819D02*
X199269887Y-79017438D01*
X199269887Y-79017438D02*
X199222268Y-79065057D01*
X199222268Y-79065057D02*
X199174649Y-79160295D01*
X199174649Y-79160295D02*
X199174649Y-79303152D01*
X199174649Y-79303152D02*
X199222268Y-79398390D01*
X199222268Y-79398390D02*
X199269887Y-79446009D01*
X199269887Y-79446009D02*
X199365125Y-79493628D01*
X199365125Y-79493628D02*
X199746077Y-79493628D01*
X198841315Y-78969819D02*
X198174649Y-79969819D01*
X198174649Y-78969819D02*
X198841315Y-79969819D01*
X212666554Y-77469819D02*
X213237982Y-77469819D01*
X212952268Y-77469819D02*
X212952268Y-76469819D01*
X212952268Y-76469819D02*
X213047506Y-76612676D01*
X213047506Y-76612676D02*
X213142744Y-76707914D01*
X213142744Y-76707914D02*
X213237982Y-76755533D01*
X212333220Y-76469819D02*
X211714173Y-76469819D01*
X211714173Y-76469819D02*
X212047506Y-76850771D01*
X212047506Y-76850771D02*
X211904649Y-76850771D01*
X211904649Y-76850771D02*
X211809411Y-76898390D01*
X211809411Y-76898390D02*
X211761792Y-76946009D01*
X211761792Y-76946009D02*
X211714173Y-77041247D01*
X211714173Y-77041247D02*
X211714173Y-77279342D01*
X211714173Y-77279342D02*
X211761792Y-77374580D01*
X211761792Y-77374580D02*
X211809411Y-77422200D01*
X211809411Y-77422200D02*
X211904649Y-77469819D01*
X211904649Y-77469819D02*
X212190363Y-77469819D01*
X212190363Y-77469819D02*
X212285601Y-77422200D01*
X212285601Y-77422200D02*
X212333220Y-77374580D01*
X205721316Y-77469819D02*
X206292744Y-77469819D01*
X206007030Y-77469819D02*
X206007030Y-76469819D01*
X206007030Y-76469819D02*
X206102268Y-76612676D01*
X206102268Y-76612676D02*
X206197506Y-76707914D01*
X206197506Y-76707914D02*
X206292744Y-76755533D01*
X205340363Y-76565057D02*
X205292744Y-76517438D01*
X205292744Y-76517438D02*
X205197506Y-76469819D01*
X205197506Y-76469819D02*
X204959411Y-76469819D01*
X204959411Y-76469819D02*
X204864173Y-76517438D01*
X204864173Y-76517438D02*
X204816554Y-76565057D01*
X204816554Y-76565057D02*
X204768935Y-76660295D01*
X204768935Y-76660295D02*
X204768935Y-76755533D01*
X204768935Y-76755533D02*
X204816554Y-76898390D01*
X204816554Y-76898390D02*
X205387982Y-77469819D01*
X205387982Y-77469819D02*
X204768935Y-77469819D01*
X213809411Y-81517438D02*
X213904649Y-81469819D01*
X213904649Y-81469819D02*
X214047506Y-81469819D01*
X214047506Y-81469819D02*
X214190363Y-81517438D01*
X214190363Y-81517438D02*
X214285601Y-81612676D01*
X214285601Y-81612676D02*
X214333220Y-81707914D01*
X214333220Y-81707914D02*
X214380839Y-81898390D01*
X214380839Y-81898390D02*
X214380839Y-82041247D01*
X214380839Y-82041247D02*
X214333220Y-82231723D01*
X214333220Y-82231723D02*
X214285601Y-82326961D01*
X214285601Y-82326961D02*
X214190363Y-82422200D01*
X214190363Y-82422200D02*
X214047506Y-82469819D01*
X214047506Y-82469819D02*
X213952268Y-82469819D01*
X213952268Y-82469819D02*
X213809411Y-82422200D01*
X213809411Y-82422200D02*
X213761792Y-82374580D01*
X213761792Y-82374580D02*
X213761792Y-82041247D01*
X213761792Y-82041247D02*
X213952268Y-82041247D01*
X213333220Y-82469819D02*
X213333220Y-81469819D01*
X213333220Y-81469819D02*
X212761792Y-82469819D01*
X212761792Y-82469819D02*
X212761792Y-81469819D01*
X212285601Y-82469819D02*
X212285601Y-81469819D01*
X212285601Y-81469819D02*
X212047506Y-81469819D01*
X212047506Y-81469819D02*
X211904649Y-81517438D01*
X211904649Y-81517438D02*
X211809411Y-81612676D01*
X211809411Y-81612676D02*
X211761792Y-81707914D01*
X211761792Y-81707914D02*
X211714173Y-81898390D01*
X211714173Y-81898390D02*
X211714173Y-82041247D01*
X211714173Y-82041247D02*
X211761792Y-82231723D01*
X211761792Y-82231723D02*
X211809411Y-82326961D01*
X211809411Y-82326961D02*
X211904649Y-82422200D01*
X211904649Y-82422200D02*
X212047506Y-82469819D01*
X212047506Y-82469819D02*
X212285601Y-82469819D01*
X202066792Y-88109819D02*
X202542982Y-88109819D01*
X202542982Y-88109819D02*
X202590601Y-88586009D01*
X202590601Y-88586009D02*
X202542982Y-88538390D01*
X202542982Y-88538390D02*
X202447744Y-88490771D01*
X202447744Y-88490771D02*
X202209649Y-88490771D01*
X202209649Y-88490771D02*
X202114411Y-88538390D01*
X202114411Y-88538390D02*
X202066792Y-88586009D01*
X202066792Y-88586009D02*
X202019173Y-88681247D01*
X202019173Y-88681247D02*
X202019173Y-88919342D01*
X202019173Y-88919342D02*
X202066792Y-89014580D01*
X202066792Y-89014580D02*
X202114411Y-89062200D01*
X202114411Y-89062200D02*
X202209649Y-89109819D01*
X202209649Y-89109819D02*
X202447744Y-89109819D01*
X202447744Y-89109819D02*
X202542982Y-89062200D01*
X202542982Y-89062200D02*
X202590601Y-89014580D01*
X201733458Y-88109819D02*
X201400125Y-89109819D01*
X201400125Y-89109819D02*
X201066792Y-88109819D01*
X200699411Y-51789188D02*
X200794649Y-51741569D01*
X200794649Y-51741569D02*
X200937506Y-51741569D01*
X200937506Y-51741569D02*
X201080363Y-51789188D01*
X201080363Y-51789188D02*
X201175601Y-51884426D01*
X201175601Y-51884426D02*
X201223220Y-51979664D01*
X201223220Y-51979664D02*
X201270839Y-52170140D01*
X201270839Y-52170140D02*
X201270839Y-52312997D01*
X201270839Y-52312997D02*
X201223220Y-52503473D01*
X201223220Y-52503473D02*
X201175601Y-52598711D01*
X201175601Y-52598711D02*
X201080363Y-52693950D01*
X201080363Y-52693950D02*
X200937506Y-52741569D01*
X200937506Y-52741569D02*
X200842268Y-52741569D01*
X200842268Y-52741569D02*
X200699411Y-52693950D01*
X200699411Y-52693950D02*
X200651792Y-52646330D01*
X200651792Y-52646330D02*
X200651792Y-52312997D01*
X200651792Y-52312997D02*
X200842268Y-52312997D01*
X200223220Y-52741569D02*
X200223220Y-51741569D01*
X200223220Y-51741569D02*
X199651792Y-52741569D01*
X199651792Y-52741569D02*
X199651792Y-51741569D01*
X199175601Y-52741569D02*
X199175601Y-51741569D01*
X199175601Y-51741569D02*
X198937506Y-51741569D01*
X198937506Y-51741569D02*
X198794649Y-51789188D01*
X198794649Y-51789188D02*
X198699411Y-51884426D01*
X198699411Y-51884426D02*
X198651792Y-51979664D01*
X198651792Y-51979664D02*
X198604173Y-52170140D01*
X198604173Y-52170140D02*
X198604173Y-52312997D01*
X198604173Y-52312997D02*
X198651792Y-52503473D01*
X198651792Y-52503473D02*
X198699411Y-52598711D01*
X198699411Y-52598711D02*
X198794649Y-52693950D01*
X198794649Y-52693950D02*
X198937506Y-52741569D01*
X198937506Y-52741569D02*
X199175601Y-52741569D01*
X208007030Y-59541569D02*
X208483220Y-59541569D01*
X208483220Y-59541569D02*
X208483220Y-58541569D01*
X207102268Y-59541569D02*
X207435601Y-59065378D01*
X207673696Y-59541569D02*
X207673696Y-58541569D01*
X207673696Y-58541569D02*
X207292744Y-58541569D01*
X207292744Y-58541569D02*
X207197506Y-58589188D01*
X207197506Y-58589188D02*
X207149887Y-58636807D01*
X207149887Y-58636807D02*
X207102268Y-58732045D01*
X207102268Y-58732045D02*
X207102268Y-58874902D01*
X207102268Y-58874902D02*
X207149887Y-58970140D01*
X207149887Y-58970140D02*
X207197506Y-59017759D01*
X207197506Y-59017759D02*
X207292744Y-59065378D01*
X207292744Y-59065378D02*
X207673696Y-59065378D01*
X206102268Y-59446330D02*
X206149887Y-59493950D01*
X206149887Y-59493950D02*
X206292744Y-59541569D01*
X206292744Y-59541569D02*
X206387982Y-59541569D01*
X206387982Y-59541569D02*
X206530839Y-59493950D01*
X206530839Y-59493950D02*
X206626077Y-59398711D01*
X206626077Y-59398711D02*
X206673696Y-59303473D01*
X206673696Y-59303473D02*
X206721315Y-59112997D01*
X206721315Y-59112997D02*
X206721315Y-58970140D01*
X206721315Y-58970140D02*
X206673696Y-58779664D01*
X206673696Y-58779664D02*
X206626077Y-58684426D01*
X206626077Y-58684426D02*
X206530839Y-58589188D01*
X206530839Y-58589188D02*
X206387982Y-58541569D01*
X206387982Y-58541569D02*
X206292744Y-58541569D01*
X206292744Y-58541569D02*
X206149887Y-58589188D01*
X206149887Y-58589188D02*
X206102268Y-58636807D01*
X205197506Y-59541569D02*
X205673696Y-59541569D01*
X205673696Y-59541569D02*
X205673696Y-58541569D01*
X204864172Y-59541569D02*
X204864172Y-58541569D01*
X204292744Y-59541569D02*
X204721315Y-58970140D01*
X204292744Y-58541569D02*
X204864172Y-59112997D01*
X208149887Y-61517759D02*
X208007030Y-61565378D01*
X208007030Y-61565378D02*
X207959411Y-61612997D01*
X207959411Y-61612997D02*
X207911792Y-61708235D01*
X207911792Y-61708235D02*
X207911792Y-61851092D01*
X207911792Y-61851092D02*
X207959411Y-61946330D01*
X207959411Y-61946330D02*
X208007030Y-61993950D01*
X208007030Y-61993950D02*
X208102268Y-62041569D01*
X208102268Y-62041569D02*
X208483220Y-62041569D01*
X208483220Y-62041569D02*
X208483220Y-61041569D01*
X208483220Y-61041569D02*
X208149887Y-61041569D01*
X208149887Y-61041569D02*
X208054649Y-61089188D01*
X208054649Y-61089188D02*
X208007030Y-61136807D01*
X208007030Y-61136807D02*
X207959411Y-61232045D01*
X207959411Y-61232045D02*
X207959411Y-61327283D01*
X207959411Y-61327283D02*
X208007030Y-61422521D01*
X208007030Y-61422521D02*
X208054649Y-61470140D01*
X208054649Y-61470140D02*
X208149887Y-61517759D01*
X208149887Y-61517759D02*
X208483220Y-61517759D01*
X206911792Y-61946330D02*
X206959411Y-61993950D01*
X206959411Y-61993950D02*
X207102268Y-62041569D01*
X207102268Y-62041569D02*
X207197506Y-62041569D01*
X207197506Y-62041569D02*
X207340363Y-61993950D01*
X207340363Y-61993950D02*
X207435601Y-61898711D01*
X207435601Y-61898711D02*
X207483220Y-61803473D01*
X207483220Y-61803473D02*
X207530839Y-61612997D01*
X207530839Y-61612997D02*
X207530839Y-61470140D01*
X207530839Y-61470140D02*
X207483220Y-61279664D01*
X207483220Y-61279664D02*
X207435601Y-61184426D01*
X207435601Y-61184426D02*
X207340363Y-61089188D01*
X207340363Y-61089188D02*
X207197506Y-61041569D01*
X207197506Y-61041569D02*
X207102268Y-61041569D01*
X207102268Y-61041569D02*
X206959411Y-61089188D01*
X206959411Y-61089188D02*
X206911792Y-61136807D01*
X206007030Y-62041569D02*
X206483220Y-62041569D01*
X206483220Y-62041569D02*
X206483220Y-61041569D01*
X205673696Y-62041569D02*
X205673696Y-61041569D01*
X205102268Y-62041569D02*
X205530839Y-61470140D01*
X205102268Y-61041569D02*
X205673696Y-61612997D01*
X213887506Y-46827438D02*
X213982744Y-46779819D01*
X213982744Y-46779819D02*
X214125601Y-46779819D01*
X214125601Y-46779819D02*
X214268458Y-46827438D01*
X214268458Y-46827438D02*
X214363696Y-46922676D01*
X214363696Y-46922676D02*
X214411315Y-47017914D01*
X214411315Y-47017914D02*
X214458934Y-47208390D01*
X214458934Y-47208390D02*
X214458934Y-47351247D01*
X214458934Y-47351247D02*
X214411315Y-47541723D01*
X214411315Y-47541723D02*
X214363696Y-47636961D01*
X214363696Y-47636961D02*
X214268458Y-47732200D01*
X214268458Y-47732200D02*
X214125601Y-47779819D01*
X214125601Y-47779819D02*
X214030363Y-47779819D01*
X214030363Y-47779819D02*
X213887506Y-47732200D01*
X213887506Y-47732200D02*
X213839887Y-47684580D01*
X213839887Y-47684580D02*
X213839887Y-47351247D01*
X213839887Y-47351247D02*
X214030363Y-47351247D01*
X213411315Y-47779819D02*
X213411315Y-46779819D01*
X213411315Y-46779819D02*
X212839887Y-47779819D01*
X212839887Y-47779819D02*
X212839887Y-46779819D01*
X212363696Y-47779819D02*
X212363696Y-46779819D01*
X212363696Y-46779819D02*
X212125601Y-46779819D01*
X212125601Y-46779819D02*
X211982744Y-46827438D01*
X211982744Y-46827438D02*
X211887506Y-46922676D01*
X211887506Y-46922676D02*
X211839887Y-47017914D01*
X211839887Y-47017914D02*
X211792268Y-47208390D01*
X211792268Y-47208390D02*
X211792268Y-47351247D01*
X211792268Y-47351247D02*
X211839887Y-47541723D01*
X211839887Y-47541723D02*
X211887506Y-47636961D01*
X211887506Y-47636961D02*
X211982744Y-47732200D01*
X211982744Y-47732200D02*
X212125601Y-47779819D01*
X212125601Y-47779819D02*
X212363696Y-47779819D01*
X199770839Y-66135057D02*
X199723220Y-66087438D01*
X199723220Y-66087438D02*
X199627982Y-66039819D01*
X199627982Y-66039819D02*
X199389887Y-66039819D01*
X199389887Y-66039819D02*
X199294649Y-66087438D01*
X199294649Y-66087438D02*
X199247030Y-66135057D01*
X199247030Y-66135057D02*
X199199411Y-66230295D01*
X199199411Y-66230295D02*
X199199411Y-66325533D01*
X199199411Y-66325533D02*
X199247030Y-66468390D01*
X199247030Y-66468390D02*
X199818458Y-67039819D01*
X199818458Y-67039819D02*
X199199411Y-67039819D01*
X198818458Y-66135057D02*
X198770839Y-66087438D01*
X198770839Y-66087438D02*
X198675601Y-66039819D01*
X198675601Y-66039819D02*
X198437506Y-66039819D01*
X198437506Y-66039819D02*
X198342268Y-66087438D01*
X198342268Y-66087438D02*
X198294649Y-66135057D01*
X198294649Y-66135057D02*
X198247030Y-66230295D01*
X198247030Y-66230295D02*
X198247030Y-66325533D01*
X198247030Y-66325533D02*
X198294649Y-66468390D01*
X198294649Y-66468390D02*
X198866077Y-67039819D01*
X198866077Y-67039819D02*
X198247030Y-67039819D01*
X208483220Y-64541569D02*
X208483220Y-63541569D01*
X208483220Y-63541569D02*
X208245125Y-63541569D01*
X208245125Y-63541569D02*
X208102268Y-63589188D01*
X208102268Y-63589188D02*
X208007030Y-63684426D01*
X208007030Y-63684426D02*
X207959411Y-63779664D01*
X207959411Y-63779664D02*
X207911792Y-63970140D01*
X207911792Y-63970140D02*
X207911792Y-64112997D01*
X207911792Y-64112997D02*
X207959411Y-64303473D01*
X207959411Y-64303473D02*
X208007030Y-64398711D01*
X208007030Y-64398711D02*
X208102268Y-64493950D01*
X208102268Y-64493950D02*
X208245125Y-64541569D01*
X208245125Y-64541569D02*
X208483220Y-64541569D01*
X207483220Y-64541569D02*
X207483220Y-63541569D01*
X207007030Y-64541569D02*
X207007030Y-63541569D01*
X207007030Y-63541569D02*
X206435602Y-64541569D01*
X206435602Y-64541569D02*
X206435602Y-63541569D01*
X212697030Y-49279819D02*
X213173220Y-49279819D01*
X213173220Y-49279819D02*
X213220839Y-49756009D01*
X213220839Y-49756009D02*
X213173220Y-49708390D01*
X213173220Y-49708390D02*
X213077982Y-49660771D01*
X213077982Y-49660771D02*
X212839887Y-49660771D01*
X212839887Y-49660771D02*
X212744649Y-49708390D01*
X212744649Y-49708390D02*
X212697030Y-49756009D01*
X212697030Y-49756009D02*
X212649411Y-49851247D01*
X212649411Y-49851247D02*
X212649411Y-50089342D01*
X212649411Y-50089342D02*
X212697030Y-50184580D01*
X212697030Y-50184580D02*
X212744649Y-50232200D01*
X212744649Y-50232200D02*
X212839887Y-50279819D01*
X212839887Y-50279819D02*
X213077982Y-50279819D01*
X213077982Y-50279819D02*
X213173220Y-50232200D01*
X213173220Y-50232200D02*
X213220839Y-50184580D01*
X212363696Y-49279819D02*
X212030363Y-50279819D01*
X212030363Y-50279819D02*
X211697030Y-49279819D01*
X212618935Y-78969819D02*
X213095125Y-78969819D01*
X213095125Y-78969819D02*
X213142744Y-79446009D01*
X213142744Y-79446009D02*
X213095125Y-79398390D01*
X213095125Y-79398390D02*
X212999887Y-79350771D01*
X212999887Y-79350771D02*
X212761792Y-79350771D01*
X212761792Y-79350771D02*
X212666554Y-79398390D01*
X212666554Y-79398390D02*
X212618935Y-79446009D01*
X212618935Y-79446009D02*
X212571316Y-79541247D01*
X212571316Y-79541247D02*
X212571316Y-79779342D01*
X212571316Y-79779342D02*
X212618935Y-79874580D01*
X212618935Y-79874580D02*
X212666554Y-79922200D01*
X212666554Y-79922200D02*
X212761792Y-79969819D01*
X212761792Y-79969819D02*
X212999887Y-79969819D01*
X212999887Y-79969819D02*
X213095125Y-79922200D01*
X213095125Y-79922200D02*
X213142744Y-79874580D01*
X212285601Y-78969819D02*
X211952268Y-79969819D01*
X211952268Y-79969819D02*
X211618935Y-78969819D01*
X201187030Y-35991569D02*
X201663220Y-35991569D01*
X201663220Y-35991569D02*
X201710839Y-36467759D01*
X201710839Y-36467759D02*
X201663220Y-36420140D01*
X201663220Y-36420140D02*
X201567982Y-36372521D01*
X201567982Y-36372521D02*
X201329887Y-36372521D01*
X201329887Y-36372521D02*
X201234649Y-36420140D01*
X201234649Y-36420140D02*
X201187030Y-36467759D01*
X201187030Y-36467759D02*
X201139411Y-36562997D01*
X201139411Y-36562997D02*
X201139411Y-36801092D01*
X201139411Y-36801092D02*
X201187030Y-36896330D01*
X201187030Y-36896330D02*
X201234649Y-36943950D01*
X201234649Y-36943950D02*
X201329887Y-36991569D01*
X201329887Y-36991569D02*
X201567982Y-36991569D01*
X201567982Y-36991569D02*
X201663220Y-36943950D01*
X201663220Y-36943950D02*
X201710839Y-36896330D01*
X200853696Y-35991569D02*
X200520363Y-36991569D01*
X200520363Y-36991569D02*
X200187030Y-35991569D01*
X206007030Y-78969819D02*
X206483220Y-78969819D01*
X206483220Y-78969819D02*
X206530839Y-79446009D01*
X206530839Y-79446009D02*
X206483220Y-79398390D01*
X206483220Y-79398390D02*
X206387982Y-79350771D01*
X206387982Y-79350771D02*
X206149887Y-79350771D01*
X206149887Y-79350771D02*
X206054649Y-79398390D01*
X206054649Y-79398390D02*
X206007030Y-79446009D01*
X206007030Y-79446009D02*
X205959411Y-79541247D01*
X205959411Y-79541247D02*
X205959411Y-79779342D01*
X205959411Y-79779342D02*
X206007030Y-79874580D01*
X206007030Y-79874580D02*
X206054649Y-79922200D01*
X206054649Y-79922200D02*
X206149887Y-79969819D01*
X206149887Y-79969819D02*
X206387982Y-79969819D01*
X206387982Y-79969819D02*
X206483220Y-79922200D01*
X206483220Y-79922200D02*
X206530839Y-79874580D01*
X205673696Y-78969819D02*
X205340363Y-79969819D01*
X205340363Y-79969819D02*
X205007030Y-78969819D01*
X212794649Y-31991569D02*
X213366077Y-31991569D01*
X213080363Y-31991569D02*
X213080363Y-30991569D01*
X213080363Y-30991569D02*
X213175601Y-31134426D01*
X213175601Y-31134426D02*
X213270839Y-31229664D01*
X213270839Y-31229664D02*
X213366077Y-31277283D01*
X212175601Y-30991569D02*
X212080363Y-30991569D01*
X212080363Y-30991569D02*
X211985125Y-31039188D01*
X211985125Y-31039188D02*
X211937506Y-31086807D01*
X211937506Y-31086807D02*
X211889887Y-31182045D01*
X211889887Y-31182045D02*
X211842268Y-31372521D01*
X211842268Y-31372521D02*
X211842268Y-31610616D01*
X211842268Y-31610616D02*
X211889887Y-31801092D01*
X211889887Y-31801092D02*
X211937506Y-31896330D01*
X211937506Y-31896330D02*
X211985125Y-31943950D01*
X211985125Y-31943950D02*
X212080363Y-31991569D01*
X212080363Y-31991569D02*
X212175601Y-31991569D01*
X212175601Y-31991569D02*
X212270839Y-31943950D01*
X212270839Y-31943950D02*
X212318458Y-31896330D01*
X212318458Y-31896330D02*
X212366077Y-31801092D01*
X212366077Y-31801092D02*
X212413696Y-31610616D01*
X212413696Y-31610616D02*
X212413696Y-31372521D01*
X212413696Y-31372521D02*
X212366077Y-31182045D01*
X212366077Y-31182045D02*
X212318458Y-31086807D01*
X212318458Y-31086807D02*
X212270839Y-31039188D01*
X212270839Y-31039188D02*
X212175601Y-30991569D01*
X201151791Y-47693950D02*
X201008934Y-47741569D01*
X201008934Y-47741569D02*
X200770839Y-47741569D01*
X200770839Y-47741569D02*
X200675601Y-47693950D01*
X200675601Y-47693950D02*
X200627982Y-47646330D01*
X200627982Y-47646330D02*
X200580363Y-47551092D01*
X200580363Y-47551092D02*
X200580363Y-47455854D01*
X200580363Y-47455854D02*
X200627982Y-47360616D01*
X200627982Y-47360616D02*
X200675601Y-47312997D01*
X200675601Y-47312997D02*
X200770839Y-47265378D01*
X200770839Y-47265378D02*
X200961315Y-47217759D01*
X200961315Y-47217759D02*
X201056553Y-47170140D01*
X201056553Y-47170140D02*
X201104172Y-47122521D01*
X201104172Y-47122521D02*
X201151791Y-47027283D01*
X201151791Y-47027283D02*
X201151791Y-46932045D01*
X201151791Y-46932045D02*
X201104172Y-46836807D01*
X201104172Y-46836807D02*
X201056553Y-46789188D01*
X201056553Y-46789188D02*
X200961315Y-46741569D01*
X200961315Y-46741569D02*
X200723220Y-46741569D01*
X200723220Y-46741569D02*
X200580363Y-46789188D01*
X200151791Y-47741569D02*
X200151791Y-46741569D01*
X200151791Y-46741569D02*
X199913696Y-46741569D01*
X199913696Y-46741569D02*
X199770839Y-46789188D01*
X199770839Y-46789188D02*
X199675601Y-46884426D01*
X199675601Y-46884426D02*
X199627982Y-46979664D01*
X199627982Y-46979664D02*
X199580363Y-47170140D01*
X199580363Y-47170140D02*
X199580363Y-47312997D01*
X199580363Y-47312997D02*
X199627982Y-47503473D01*
X199627982Y-47503473D02*
X199675601Y-47598711D01*
X199675601Y-47598711D02*
X199770839Y-47693950D01*
X199770839Y-47693950D02*
X199913696Y-47741569D01*
X199913696Y-47741569D02*
X200151791Y-47741569D01*
X199199410Y-47455854D02*
X198723220Y-47455854D01*
X199294648Y-47741569D02*
X198961315Y-46741569D01*
X198961315Y-46741569D02*
X198627982Y-47741569D01*
X201127982Y-45193950D02*
X200985125Y-45241569D01*
X200985125Y-45241569D02*
X200747030Y-45241569D01*
X200747030Y-45241569D02*
X200651792Y-45193950D01*
X200651792Y-45193950D02*
X200604173Y-45146330D01*
X200604173Y-45146330D02*
X200556554Y-45051092D01*
X200556554Y-45051092D02*
X200556554Y-44955854D01*
X200556554Y-44955854D02*
X200604173Y-44860616D01*
X200604173Y-44860616D02*
X200651792Y-44812997D01*
X200651792Y-44812997D02*
X200747030Y-44765378D01*
X200747030Y-44765378D02*
X200937506Y-44717759D01*
X200937506Y-44717759D02*
X201032744Y-44670140D01*
X201032744Y-44670140D02*
X201080363Y-44622521D01*
X201080363Y-44622521D02*
X201127982Y-44527283D01*
X201127982Y-44527283D02*
X201127982Y-44432045D01*
X201127982Y-44432045D02*
X201080363Y-44336807D01*
X201080363Y-44336807D02*
X201032744Y-44289188D01*
X201032744Y-44289188D02*
X200937506Y-44241569D01*
X200937506Y-44241569D02*
X200699411Y-44241569D01*
X200699411Y-44241569D02*
X200556554Y-44289188D01*
X199556554Y-45146330D02*
X199604173Y-45193950D01*
X199604173Y-45193950D02*
X199747030Y-45241569D01*
X199747030Y-45241569D02*
X199842268Y-45241569D01*
X199842268Y-45241569D02*
X199985125Y-45193950D01*
X199985125Y-45193950D02*
X200080363Y-45098711D01*
X200080363Y-45098711D02*
X200127982Y-45003473D01*
X200127982Y-45003473D02*
X200175601Y-44812997D01*
X200175601Y-44812997D02*
X200175601Y-44670140D01*
X200175601Y-44670140D02*
X200127982Y-44479664D01*
X200127982Y-44479664D02*
X200080363Y-44384426D01*
X200080363Y-44384426D02*
X199985125Y-44289188D01*
X199985125Y-44289188D02*
X199842268Y-44241569D01*
X199842268Y-44241569D02*
X199747030Y-44241569D01*
X199747030Y-44241569D02*
X199604173Y-44289188D01*
X199604173Y-44289188D02*
X199556554Y-44336807D01*
X198651792Y-45241569D02*
X199127982Y-45241569D01*
X199127982Y-45241569D02*
X199127982Y-44241569D01*
X199807982Y-57736807D02*
X199760363Y-57689188D01*
X199760363Y-57689188D02*
X199665125Y-57641569D01*
X199665125Y-57641569D02*
X199427030Y-57641569D01*
X199427030Y-57641569D02*
X199331792Y-57689188D01*
X199331792Y-57689188D02*
X199284173Y-57736807D01*
X199284173Y-57736807D02*
X199236554Y-57832045D01*
X199236554Y-57832045D02*
X199236554Y-57927283D01*
X199236554Y-57927283D02*
X199284173Y-58070140D01*
X199284173Y-58070140D02*
X199855601Y-58641569D01*
X199855601Y-58641569D02*
X199236554Y-58641569D01*
X198903220Y-57641569D02*
X198236554Y-57641569D01*
X198236554Y-57641569D02*
X198665125Y-58641569D01*
X200379411Y-60189188D02*
X200474649Y-60141569D01*
X200474649Y-60141569D02*
X200617506Y-60141569D01*
X200617506Y-60141569D02*
X200760363Y-60189188D01*
X200760363Y-60189188D02*
X200855601Y-60284426D01*
X200855601Y-60284426D02*
X200903220Y-60379664D01*
X200903220Y-60379664D02*
X200950839Y-60570140D01*
X200950839Y-60570140D02*
X200950839Y-60712997D01*
X200950839Y-60712997D02*
X200903220Y-60903473D01*
X200903220Y-60903473D02*
X200855601Y-60998711D01*
X200855601Y-60998711D02*
X200760363Y-61093950D01*
X200760363Y-61093950D02*
X200617506Y-61141569D01*
X200617506Y-61141569D02*
X200522268Y-61141569D01*
X200522268Y-61141569D02*
X200379411Y-61093950D01*
X200379411Y-61093950D02*
X200331792Y-61046330D01*
X200331792Y-61046330D02*
X200331792Y-60712997D01*
X200331792Y-60712997D02*
X200522268Y-60712997D01*
X199903220Y-61141569D02*
X199903220Y-60141569D01*
X199903220Y-60141569D02*
X199331792Y-61141569D01*
X199331792Y-61141569D02*
X199331792Y-60141569D01*
X198855601Y-61141569D02*
X198855601Y-60141569D01*
X198855601Y-60141569D02*
X198617506Y-60141569D01*
X198617506Y-60141569D02*
X198474649Y-60189188D01*
X198474649Y-60189188D02*
X198379411Y-60284426D01*
X198379411Y-60284426D02*
X198331792Y-60379664D01*
X198331792Y-60379664D02*
X198284173Y-60570140D01*
X198284173Y-60570140D02*
X198284173Y-60712997D01*
X198284173Y-60712997D02*
X198331792Y-60903473D01*
X198331792Y-60903473D02*
X198379411Y-60998711D01*
X198379411Y-60998711D02*
X198474649Y-61093950D01*
X198474649Y-61093950D02*
X198617506Y-61141569D01*
X198617506Y-61141569D02*
X198855601Y-61141569D01*
X200342268Y-68587438D02*
X200437506Y-68539819D01*
X200437506Y-68539819D02*
X200580363Y-68539819D01*
X200580363Y-68539819D02*
X200723220Y-68587438D01*
X200723220Y-68587438D02*
X200818458Y-68682676D01*
X200818458Y-68682676D02*
X200866077Y-68777914D01*
X200866077Y-68777914D02*
X200913696Y-68968390D01*
X200913696Y-68968390D02*
X200913696Y-69111247D01*
X200913696Y-69111247D02*
X200866077Y-69301723D01*
X200866077Y-69301723D02*
X200818458Y-69396961D01*
X200818458Y-69396961D02*
X200723220Y-69492200D01*
X200723220Y-69492200D02*
X200580363Y-69539819D01*
X200580363Y-69539819D02*
X200485125Y-69539819D01*
X200485125Y-69539819D02*
X200342268Y-69492200D01*
X200342268Y-69492200D02*
X200294649Y-69444580D01*
X200294649Y-69444580D02*
X200294649Y-69111247D01*
X200294649Y-69111247D02*
X200485125Y-69111247D01*
X199866077Y-69539819D02*
X199866077Y-68539819D01*
X199866077Y-68539819D02*
X199294649Y-69539819D01*
X199294649Y-69539819D02*
X199294649Y-68539819D01*
X198818458Y-69539819D02*
X198818458Y-68539819D01*
X198818458Y-68539819D02*
X198580363Y-68539819D01*
X198580363Y-68539819D02*
X198437506Y-68587438D01*
X198437506Y-68587438D02*
X198342268Y-68682676D01*
X198342268Y-68682676D02*
X198294649Y-68777914D01*
X198294649Y-68777914D02*
X198247030Y-68968390D01*
X198247030Y-68968390D02*
X198247030Y-69111247D01*
X198247030Y-69111247D02*
X198294649Y-69301723D01*
X198294649Y-69301723D02*
X198342268Y-69396961D01*
X198342268Y-69396961D02*
X198437506Y-69492200D01*
X198437506Y-69492200D02*
X198580363Y-69539819D01*
X198580363Y-69539819D02*
X198818458Y-69539819D01*
D11*
X216210000Y-35660000D02*
X217540000Y-35660000D01*
X216210000Y-36990000D02*
X216210000Y-35660000D01*
X216210000Y-38260000D02*
X218810000Y-38260000D01*
X216210000Y-86580000D02*
X216210000Y-38260000D01*
X216210000Y-86580000D02*
X221410000Y-86580000D01*
X218810000Y-35660000D02*
X221410000Y-35660000D01*
X218810000Y-38260000D02*
X218810000Y-35660000D01*
X221410000Y-86580000D02*
X221410000Y-35660000D01*
M02*
