M48
; DRILL file {KiCad 8.0.4} date 2025-05-04T21:26:20-0400
; FORMAT={-:-/ absolute / inch / decimal}
; #@! TF.CreationDate,2025-05-04T21:26:20-04:00
; #@! TF.GenerationSoftware,Kicad,Pcbnew,8.0.4
; #@! TF.FileFunction,Plated,1,2,PTH
FMAT,2
INCH
; #@! TA.AperFunction,Plated,PTH,ViaDrill
T1C0.0157
; #@! TA.AperFunction,Plated,PTH,ComponentDrill
T2C0.0374
; #@! TA.AperFunction,Plated,PTH,ComponentDrill
T3C0.0394
%
G90
G05
T1
X7.6417Y-3.3051
X7.6421Y-3.2661
X7.6425Y-3.2268
X7.6429Y-3.1874
X7.7024Y-1.6839
X7.7417Y-1.6843
X7.7811Y-1.6846
X7.8154Y-2.1063
X7.8157Y-2.0083
X7.9157Y-2.6016
X7.9287Y-2.2957
X7.9287Y-2.335
X7.9287Y-2.3744
X8.0016Y-2.7185
X8.0016Y-2.7701
X8.0409Y-2.7185
X8.0409Y-2.7701
X8.0472Y-2.4445
X8.0472Y-2.4839
X8.0472Y-2.5232
X8.0803Y-2.7185
X8.0803Y-2.7701
X8.0945Y-2.0185
X8.0945Y-2.0579
X8.0945Y-2.0972
X8.1047Y-3.3067
X8.1047Y-3.4244
X8.1213Y-1.5181
X8.1441Y-3.3067
X8.1441Y-3.4244
X8.1606Y-1.3787
X8.1606Y-1.5185
X8.161Y-1.3394
X8.1614Y-1.3
X8.1835Y-3.3067
X8.1835Y-3.4244
X8.2Y-1.5189
X8.3041Y-2.0244
X8.3041Y-2.0648
X8.3219Y-1.6563
X8.3219Y-1.6957
X8.3819Y-2.339
X8.3819Y-2.3783
X8.3819Y-2.4177
X8.3823Y-2.6799
X8.3823Y-2.7193
X8.3823Y-2.7587
X8.3967Y-1.6563
X8.3967Y-1.6957
X8.3967Y-2.0244
X8.3967Y-2.0646
X8.4563Y-1.8957
X8.4563Y-2.0059
X8.4567Y-1.8563
X8.4571Y-1.5862
X8.4571Y-1.8169
X8.4575Y-1.5469
X8.4579Y-1.5075
X8.4642Y-3.3772
X8.4646Y-3.3382
X8.465Y-3.2988
X8.4654Y-3.2594
X8.5228Y-3.0059
X8.5232Y-2.9063
X8.6992Y-3.2059
T2
X7.7421Y-1.7626
X7.7421Y-1.861
X7.7421Y-1.9594
X7.7421Y-2.0579
X7.7421Y-3.0303
X7.7421Y-3.1287
X7.7421Y-3.2272
X8.0079Y-1.7626
X8.0079Y-1.861
X8.0079Y-1.9594
X8.0079Y-2.0579
X8.0079Y-3.0299
X8.0079Y-3.1283
X8.0079Y-3.2268
X8.0083Y-1.2409
X8.0083Y-1.3394
X8.0083Y-1.4378
X8.2736Y-1.7626
X8.2736Y-1.861
X8.2736Y-1.9594
X8.2736Y-2.3256
X8.2736Y-2.424
X8.2736Y-2.5224
X8.2736Y-2.6209
X8.2736Y-2.7193
X8.2736Y-3.0299
X8.2736Y-3.1283
X8.2736Y-3.2268
X8.274Y-1.2409
X8.274Y-1.3394
X8.274Y-1.4378
T3
X7.7421Y-2.2902
X7.7421Y-2.3886
X7.7421Y-2.6209
X7.7421Y-2.7193
X7.9469Y-3.5756
X8.0453Y-3.5756
X8.2776Y-3.5756
X8.376Y-3.5756
X8.5646Y-1.4563
X8.5646Y-1.5563
X8.5646Y-1.6563
X8.5646Y-1.7563
X8.5646Y-1.8563
X8.5646Y-1.9563
X8.5646Y-2.0563
X8.5646Y-2.1563
X8.5646Y-2.2563
X8.5646Y-2.3563
X8.5646Y-2.4563
X8.5646Y-2.5563
X8.5646Y-2.6563
X8.5646Y-2.7563
X8.5646Y-2.8563
X8.5646Y-2.9563
X8.5646Y-3.0563
X8.5646Y-3.1563
X8.5646Y-3.2563
X8.5646Y-3.3563
X8.6646Y-1.4563
X8.6646Y-1.5563
X8.6646Y-1.6563
X8.6646Y-1.7563
X8.6646Y-1.8563
X8.6646Y-1.9563
X8.6646Y-2.0563
X8.6646Y-2.1563
X8.6646Y-2.2563
X8.6646Y-2.3563
X8.6646Y-2.4563
X8.6646Y-2.5563
X8.6646Y-2.6563
X8.6646Y-2.7563
X8.6646Y-2.8563
X8.6646Y-2.9563
X8.6646Y-3.0563
X8.6646Y-3.1563
X8.6646Y-3.2563
X8.6646Y-3.3563
M30
