G04 #@! TF.GenerationSoftware,KiCad,Pcbnew,8.0.4*
G04 #@! TF.CreationDate,2025-05-04T21:26:18-04:00*
G04 #@! TF.ProjectId,openduck,6f70656e-6475-4636-9b2e-6b696361645f,rev?*
G04 #@! TF.SameCoordinates,Original*
G04 #@! TF.FileFunction,Copper,L1,Top*
G04 #@! TF.FilePolarity,Positive*
%FSLAX46Y46*%
G04 Gerber Fmt 4.6, Leading zero omitted, Abs format (unit mm)*
G04 Created by KiCad (PCBNEW 8.0.4) date 2025-05-04 21:26:18*
%MOMM*%
%LPD*%
G01*
G04 APERTURE LIST*
G04 Aperture macros list*
%AMRoundRect*
0 Rectangle with rounded corners*
0 $1 Rounding radius*
0 $2 $3 $4 $5 $6 $7 $8 $9 X,Y pos of 4 corners*
0 Add a 4 corners polygon primitive as box body*
4,1,4,$2,$3,$4,$5,$6,$7,$8,$9,$2,$3,0*
0 Add four circle primitives for the rounded corners*
1,1,$1+$1,$2,$3*
1,1,$1+$1,$4,$5*
1,1,$1+$1,$6,$7*
1,1,$1+$1,$8,$9*
0 Add four rect primitives between the rounded corners*
20,1,$1+$1,$2,$3,$4,$5,0*
20,1,$1+$1,$4,$5,$6,$7,0*
20,1,$1+$1,$6,$7,$8,$9,0*
20,1,$1+$1,$8,$9,$2,$3,0*%
G04 Aperture macros list end*
G04 #@! TA.AperFunction,ComponentPad*
%ADD10RoundRect,0.250000X0.725000X-0.600000X0.725000X0.600000X-0.725000X0.600000X-0.725000X-0.600000X0*%
G04 #@! TD*
G04 #@! TA.AperFunction,ComponentPad*
%ADD11O,1.950000X1.700000*%
G04 #@! TD*
G04 #@! TA.AperFunction,ComponentPad*
%ADD12RoundRect,0.250000X0.600000X0.750000X-0.600000X0.750000X-0.600000X-0.750000X0.600000X-0.750000X0*%
G04 #@! TD*
G04 #@! TA.AperFunction,ComponentPad*
%ADD13O,1.700000X2.000000*%
G04 #@! TD*
G04 #@! TA.AperFunction,ComponentPad*
%ADD14RoundRect,0.250000X0.750000X-0.600000X0.750000X0.600000X-0.750000X0.600000X-0.750000X-0.600000X0*%
G04 #@! TD*
G04 #@! TA.AperFunction,ComponentPad*
%ADD15O,2.000000X1.700000*%
G04 #@! TD*
G04 #@! TA.AperFunction,ComponentPad*
%ADD16R,1.700000X1.700000*%
G04 #@! TD*
G04 #@! TA.AperFunction,ComponentPad*
%ADD17O,1.700000X1.700000*%
G04 #@! TD*
G04 #@! TA.AperFunction,ViaPad*
%ADD18C,0.800000*%
G04 #@! TD*
G04 #@! TA.AperFunction,Conductor*
%ADD19C,0.500000*%
G04 #@! TD*
G04 #@! TA.AperFunction,Conductor*
%ADD20C,0.250000*%
G04 #@! TD*
G04 APERTURE END LIST*
D10*
X210150000Y-49770000D03*
D11*
X210150000Y-47270000D03*
X210150000Y-44770000D03*
D10*
X196650000Y-81970000D03*
D11*
X196650000Y-79470000D03*
X196650000Y-76970000D03*
D10*
X203400000Y-52270000D03*
D11*
X203400000Y-49770000D03*
X203400000Y-47270000D03*
X203400000Y-44770000D03*
D12*
X204350000Y-90820000D03*
D13*
X201850000Y-90820000D03*
D10*
X210160000Y-36520000D03*
D11*
X210160000Y-34020000D03*
X210160000Y-31520000D03*
D10*
X210150000Y-69070000D03*
D11*
X210150000Y-66570000D03*
X210150000Y-64070000D03*
X210150000Y-61570000D03*
X210150000Y-59070000D03*
D10*
X203410000Y-36520000D03*
D11*
X203410000Y-34020000D03*
X203410000Y-31520000D03*
D10*
X196650000Y-52270000D03*
D11*
X196650000Y-49770000D03*
X196650000Y-47270000D03*
X196650000Y-44770000D03*
D12*
X212750000Y-90820000D03*
D13*
X210250000Y-90820000D03*
D10*
X210150000Y-81960000D03*
D11*
X210150000Y-79460000D03*
X210150000Y-76960000D03*
D14*
X196650000Y-69070000D03*
D15*
X196650000Y-66570000D03*
D10*
X203400000Y-81960000D03*
D11*
X203400000Y-79460000D03*
X203400000Y-76960000D03*
D14*
X196650000Y-60670000D03*
D15*
X196650000Y-58170000D03*
D16*
X217540000Y-36990000D03*
D17*
X220080000Y-36990000D03*
X217540000Y-39530000D03*
X220080000Y-39530000D03*
X217540000Y-42070000D03*
X220080000Y-42070000D03*
X217540000Y-44610000D03*
X220080000Y-44610000D03*
X217540000Y-47150000D03*
X220080000Y-47150000D03*
X217540000Y-49690000D03*
X220080000Y-49690000D03*
X217540000Y-52230000D03*
X220080000Y-52230000D03*
X217540000Y-54770000D03*
X220080000Y-54770000D03*
X217540000Y-57310000D03*
X220080000Y-57310000D03*
X217540000Y-59850000D03*
X220080000Y-59850000D03*
X217540000Y-62390000D03*
X220080000Y-62390000D03*
X217540000Y-64930000D03*
X220080000Y-64930000D03*
X217540000Y-67470000D03*
X220080000Y-67470000D03*
X217540000Y-70010000D03*
X220080000Y-70010000D03*
X217540000Y-72550000D03*
X220080000Y-72550000D03*
X217540000Y-75090000D03*
X220080000Y-75090000D03*
X217540000Y-77630000D03*
X220080000Y-77630000D03*
X217540000Y-80170000D03*
X220080000Y-80170000D03*
X217540000Y-82710000D03*
X220080000Y-82710000D03*
X217540000Y-85250000D03*
X220080000Y-85250000D03*
D18*
X214800000Y-47150000D03*
X194130000Y-80960000D03*
X205860000Y-83990000D03*
X206280000Y-38560000D03*
X215000000Y-84790000D03*
X207280000Y-38570000D03*
X204240000Y-69050000D03*
X196640000Y-42780000D03*
X207280000Y-35020000D03*
X207290000Y-34020000D03*
X201060000Y-66080000D03*
X205240000Y-70360000D03*
X214990000Y-85780000D03*
X207300000Y-33020000D03*
X214790000Y-48150000D03*
X197640000Y-42790000D03*
X205600000Y-53270000D03*
X214810000Y-46150000D03*
X194110000Y-82960000D03*
X205600000Y-51270000D03*
X207860000Y-86980000D03*
X194120000Y-81960000D03*
X204400000Y-63090000D03*
X212910000Y-70070000D03*
X195640000Y-42770000D03*
X215010000Y-83790000D03*
X201390000Y-58310000D03*
X212910000Y-69070000D03*
X214790000Y-50950000D03*
X204240000Y-70360000D03*
X205860000Y-86980000D03*
X204400000Y-64090000D03*
X203240000Y-70360000D03*
X206860000Y-83990000D03*
X214810000Y-40290000D03*
X212900000Y-60410000D03*
X194100000Y-83950000D03*
X207860000Y-83990000D03*
X205600000Y-52270000D03*
X212900000Y-61410000D03*
X204400000Y-62090000D03*
X205240000Y-69050000D03*
X198520000Y-51010000D03*
X214820000Y-39290000D03*
X201390000Y-59310000D03*
X212910000Y-68070000D03*
X203240000Y-69050000D03*
X208280000Y-38580000D03*
X198510000Y-53500000D03*
X214830000Y-38290000D03*
X201390000Y-60310000D03*
X215020000Y-82790000D03*
X212900000Y-59410000D03*
X206860000Y-86980000D03*
X216480000Y-76350000D03*
X213275000Y-42070000D03*
X211375000Y-42070000D03*
X216490000Y-73820000D03*
X213275000Y-43070003D03*
X211375000Y-43070003D03*
X220960000Y-81430000D03*
X210925001Y-52445304D03*
X213275000Y-52440000D03*
X210925000Y-51420000D03*
X213275000Y-51420000D03*
D19*
X196650000Y-49770000D02*
X203400000Y-49770000D01*
D20*
X220750000Y-66190000D02*
X216850000Y-66190000D01*
X220080000Y-85250000D02*
X221685000Y-83645000D01*
X221685000Y-83645000D02*
X221685000Y-67125000D01*
X214760000Y-64100000D02*
X210180000Y-64100000D01*
X210180000Y-64100000D02*
X210150000Y-64070000D01*
X221685000Y-67125000D02*
X220750000Y-66190000D01*
X216850000Y-66190000D02*
X214760000Y-64100000D01*
X220080000Y-52230000D02*
X218800000Y-50950000D01*
X218800000Y-50950000D02*
X217220000Y-50950000D01*
X218820000Y-71243604D02*
X220080000Y-72503604D01*
X218820000Y-68750000D02*
X218820000Y-71243604D01*
X220080000Y-72503604D02*
X220080000Y-72550000D01*
X217220000Y-50950000D02*
X215570000Y-50950000D01*
X217540000Y-67470000D02*
X218820000Y-68750000D01*
X215570000Y-50950000D02*
X214790000Y-50950000D01*
X218820000Y-78890000D02*
X218820000Y-71880000D01*
X209330000Y-65320000D02*
X208650000Y-64640000D01*
X216165000Y-66141396D02*
X215343604Y-65320000D01*
X217540000Y-80170000D02*
X218820000Y-78890000D01*
X218200000Y-71260000D02*
X216840000Y-71260000D01*
X208650000Y-60570000D02*
X210150000Y-59070000D01*
X218820000Y-71880000D02*
X218200000Y-71260000D01*
X216840000Y-71260000D02*
X216165000Y-70585000D01*
X215343604Y-65320000D02*
X209330000Y-65320000D01*
X208650000Y-64640000D02*
X208650000Y-60570000D01*
X216165000Y-70585000D02*
X216165000Y-66141396D01*
X214433452Y-60179452D02*
X214433452Y-55896548D01*
X214433452Y-55896548D02*
X211650000Y-53113097D01*
X215374000Y-61120000D02*
X214433452Y-60179452D01*
X218810000Y-61120000D02*
X215374000Y-61120000D01*
X220080000Y-62390000D02*
X218810000Y-61120000D01*
X211650000Y-46270000D02*
X210150000Y-44770000D01*
X211650000Y-53113097D02*
X211650000Y-46270000D01*
X200550000Y-75570000D02*
X196650000Y-79470000D01*
X216480000Y-76350000D02*
X215700000Y-75570000D01*
X215700000Y-75570000D02*
X200550000Y-75570000D01*
X213440000Y-76960000D02*
X210150000Y-76960000D01*
X217540000Y-77630000D02*
X214110000Y-77630000D01*
X214110000Y-77630000D02*
X213440000Y-76960000D01*
X221685000Y-62735000D02*
X220770000Y-63650000D01*
X212230000Y-63650000D02*
X210150000Y-61570000D01*
X220080000Y-49690000D02*
X221685000Y-51295000D01*
X221685000Y-51295000D02*
X221685000Y-62735000D01*
X220770000Y-63650000D02*
X212230000Y-63650000D01*
X212550000Y-31830000D02*
X212550000Y-52740305D01*
X215839695Y-56030000D02*
X218800000Y-56030000D01*
X210860000Y-30140000D02*
X212550000Y-31830000D01*
X212550000Y-52740305D02*
X215839695Y-56030000D01*
X218800000Y-56030000D02*
X220080000Y-57310000D01*
X203410000Y-31520000D02*
X204790000Y-30140000D01*
X204790000Y-30140000D02*
X210860000Y-30140000D01*
X203410000Y-31520000D02*
X203640000Y-31520000D01*
X211375000Y-42070000D02*
X210133604Y-42070000D01*
X207433604Y-44770000D02*
X203400000Y-44770000D01*
X210133604Y-42070000D02*
X207433604Y-44770000D01*
X196650000Y-44770000D02*
X203400000Y-44770000D01*
X217540000Y-42070000D02*
X213275000Y-42070000D01*
X215190000Y-75120000D02*
X212630000Y-75120000D01*
X196650000Y-76970000D02*
X198500000Y-75120000D01*
X216490000Y-73820000D02*
X215190000Y-75120000D01*
X200736396Y-75120000D02*
X212630000Y-75120000D01*
X198500000Y-75120000D02*
X200736396Y-75120000D01*
X213275000Y-43070003D02*
X216590003Y-43070003D01*
X218810000Y-40800000D02*
X218810000Y-42750000D01*
X209450000Y-43390000D02*
X209769997Y-43070003D01*
X205570000Y-47270000D02*
X209270000Y-43570000D01*
X196650000Y-47270000D02*
X203400000Y-47270000D01*
X209270000Y-43570000D02*
X209450000Y-43390000D01*
X216590003Y-43070003D02*
X216850000Y-43330000D01*
X203400000Y-47270000D02*
X205570000Y-47270000D01*
X218810000Y-42750000D02*
X218230000Y-43330000D01*
X217540000Y-39530000D02*
X218810000Y-40800000D01*
X218230000Y-43330000D02*
X216850000Y-43330000D01*
X209769997Y-43070003D02*
X211375000Y-43070003D01*
X203400000Y-76960000D02*
X208080000Y-76960000D01*
X211470000Y-78210000D02*
X209330000Y-78210000D01*
X208080000Y-76960000D02*
X209330000Y-78210000D01*
X220960000Y-81430000D02*
X214690000Y-81430000D01*
X214690000Y-81430000D02*
X211470000Y-78210000D01*
X202850000Y-62580000D02*
X202800000Y-62580000D01*
X202800000Y-62580000D02*
X200725000Y-64655000D01*
X210774696Y-52445304D02*
X202850000Y-60370000D01*
X200725000Y-64655000D02*
X198565000Y-64655000D01*
X215605000Y-54770000D02*
X217540000Y-54770000D01*
X198565000Y-64655000D02*
X196650000Y-66570000D01*
X202850000Y-60370000D02*
X202850000Y-62580000D01*
X213275000Y-52440000D02*
X215605000Y-54770000D01*
X210925001Y-52445304D02*
X210774696Y-52445304D01*
X205555000Y-56790000D02*
X198030000Y-56790000D01*
X198030000Y-56790000D02*
X196650000Y-58170000D01*
X214090305Y-52230000D02*
X217540000Y-52230000D01*
X213280305Y-51420000D02*
X214090305Y-52230000D01*
X210925000Y-51420000D02*
X205555000Y-56790000D01*
X213275000Y-51420000D02*
X213280305Y-51420000D01*
X215380000Y-88710000D02*
X215380000Y-91480000D01*
X217260000Y-86830000D02*
X215380000Y-88710000D01*
X212150000Y-92720000D02*
X210250000Y-90820000D01*
X217910000Y-86830000D02*
X217260000Y-86830000D01*
X218820000Y-83990000D02*
X218820000Y-85920000D01*
X218820000Y-85920000D02*
X217910000Y-86830000D01*
X217540000Y-82710000D02*
X218820000Y-83990000D01*
X215380000Y-91480000D02*
X214140000Y-92720000D01*
X214140000Y-92720000D02*
X212150000Y-92720000D01*
X210160000Y-31520000D02*
X210386396Y-31520000D01*
X210160000Y-31520000D02*
X212100000Y-33460000D01*
X214883452Y-59298000D02*
X214883452Y-55710152D01*
X214883452Y-55710152D02*
X214766650Y-55593350D01*
X212100000Y-52926701D02*
X214766650Y-55593350D01*
X215435452Y-59850000D02*
X214883452Y-59298000D01*
X217540000Y-59850000D02*
X215435452Y-59850000D01*
X212100000Y-33460000D02*
X212100000Y-52926701D01*
G04 #@! TA.AperFunction,Conductor*
G36*
X217517046Y-29139407D02*
G01*
X217553010Y-29188907D01*
X217553010Y-29250093D01*
X217517046Y-29299593D01*
X217501810Y-29308696D01*
X217307874Y-29402090D01*
X217307869Y-29402092D01*
X217012999Y-29587372D01*
X217012996Y-29587374D01*
X216740747Y-29804484D01*
X216494484Y-30050747D01*
X216277374Y-30322996D01*
X216277372Y-30322999D01*
X216092092Y-30617869D01*
X216092086Y-30617881D01*
X215940998Y-30931620D01*
X215940997Y-30931622D01*
X215825982Y-31260315D01*
X215748491Y-31599826D01*
X215748490Y-31599832D01*
X215709500Y-31945863D01*
X215709500Y-32294136D01*
X215748490Y-32640167D01*
X215748491Y-32640173D01*
X215825982Y-32979684D01*
X215940997Y-33308377D01*
X215940998Y-33308379D01*
X216092086Y-33622118D01*
X216092092Y-33622130D01*
X216092094Y-33622133D01*
X216227988Y-33838407D01*
X216277372Y-33917000D01*
X216277374Y-33917003D01*
X216494484Y-34189252D01*
X216494490Y-34189258D01*
X216494494Y-34189263D01*
X216740737Y-34435506D01*
X216740741Y-34435509D01*
X216740747Y-34435515D01*
X217012996Y-34652625D01*
X217013000Y-34652627D01*
X217013003Y-34652630D01*
X217307867Y-34837906D01*
X217307869Y-34837907D01*
X217307881Y-34837913D01*
X217412121Y-34888112D01*
X217621621Y-34989002D01*
X217775062Y-35042693D01*
X217950315Y-35104017D01*
X217950318Y-35104017D01*
X217950319Y-35104018D01*
X218289829Y-35181509D01*
X218383144Y-35192023D01*
X218635863Y-35220499D01*
X218635879Y-35220499D01*
X218635880Y-35220500D01*
X218635881Y-35220500D01*
X218984119Y-35220500D01*
X218984120Y-35220500D01*
X218984121Y-35220499D01*
X218984136Y-35220499D01*
X219205749Y-35195528D01*
X219330171Y-35181509D01*
X219669681Y-35104018D01*
X219998379Y-34989002D01*
X220312133Y-34837906D01*
X220606997Y-34652630D01*
X220804660Y-34495000D01*
X220879252Y-34435515D01*
X220879253Y-34435513D01*
X220879263Y-34435506D01*
X221125506Y-34189263D01*
X221342630Y-33916997D01*
X221527906Y-33622133D01*
X221621304Y-33428189D01*
X221663587Y-33383965D01*
X221723789Y-33373040D01*
X221778915Y-33399587D01*
X221807909Y-33453467D01*
X221809500Y-33471144D01*
X221809500Y-50284588D01*
X221790593Y-50342779D01*
X221741093Y-50378743D01*
X221679907Y-50378743D01*
X221640497Y-50354592D01*
X221419017Y-50133113D01*
X221391241Y-50078597D01*
X221393050Y-50038808D01*
X221424564Y-49914368D01*
X221443156Y-49690000D01*
X221424564Y-49465632D01*
X221369296Y-49247384D01*
X221278860Y-49041209D01*
X221155722Y-48852732D01*
X221155720Y-48852730D01*
X221155717Y-48852725D01*
X221003243Y-48687096D01*
X221003237Y-48687091D01*
X220825579Y-48548813D01*
X220825576Y-48548811D01*
X220800974Y-48535497D01*
X220748440Y-48507067D01*
X220706263Y-48462744D01*
X220698193Y-48402093D01*
X220727314Y-48348282D01*
X220748441Y-48332932D01*
X220825576Y-48291189D01*
X221003240Y-48152906D01*
X221124602Y-48021073D01*
X221155717Y-47987274D01*
X221155719Y-47987271D01*
X221155722Y-47987268D01*
X221278860Y-47798791D01*
X221369296Y-47592616D01*
X221424564Y-47374368D01*
X221443156Y-47150000D01*
X221424564Y-46925632D01*
X221369296Y-46707384D01*
X221278860Y-46501209D01*
X221155722Y-46312732D01*
X221155720Y-46312730D01*
X221155717Y-46312725D01*
X221003243Y-46147096D01*
X221003237Y-46147091D01*
X220825579Y-46008813D01*
X220825576Y-46008811D01*
X220817638Y-46004515D01*
X220748440Y-45967067D01*
X220706263Y-45922744D01*
X220698193Y-45862093D01*
X220727314Y-45808282D01*
X220748441Y-45792932D01*
X220825576Y-45751189D01*
X221003240Y-45612906D01*
X221076714Y-45533093D01*
X221155717Y-45447274D01*
X221155718Y-45447272D01*
X221155722Y-45447268D01*
X221278860Y-45258791D01*
X221369296Y-45052616D01*
X221424564Y-44834368D01*
X221443156Y-44610000D01*
X221424564Y-44385632D01*
X221369296Y-44167384D01*
X221278860Y-43961209D01*
X221155722Y-43772732D01*
X221155720Y-43772730D01*
X221155717Y-43772725D01*
X221003243Y-43607096D01*
X221003237Y-43607091D01*
X220825579Y-43468813D01*
X220825576Y-43468811D01*
X220743601Y-43424448D01*
X220701423Y-43380123D01*
X220693353Y-43319472D01*
X220722474Y-43265662D01*
X220748886Y-43247653D01*
X220757577Y-43243600D01*
X220951073Y-43108113D01*
X221118113Y-42941073D01*
X221253600Y-42747577D01*
X221353430Y-42533489D01*
X221410636Y-42320000D01*
X220513012Y-42320000D01*
X220545925Y-42262993D01*
X220580000Y-42135826D01*
X220580000Y-42004174D01*
X220545925Y-41877007D01*
X220513012Y-41820000D01*
X221410636Y-41820000D01*
X221353429Y-41606505D01*
X221253605Y-41392432D01*
X221253601Y-41392424D01*
X221118113Y-41198926D01*
X220951073Y-41031886D01*
X220757576Y-40896398D01*
X220757573Y-40896396D01*
X220748880Y-40892343D01*
X220704132Y-40850615D01*
X220692458Y-40790554D01*
X220718316Y-40735101D01*
X220743602Y-40715551D01*
X220748441Y-40712932D01*
X220825576Y-40671189D01*
X221003240Y-40532906D01*
X221003243Y-40532903D01*
X221155717Y-40367274D01*
X221155718Y-40367272D01*
X221155722Y-40367268D01*
X221278860Y-40178791D01*
X221369296Y-39972616D01*
X221424564Y-39754368D01*
X221443156Y-39530000D01*
X221424564Y-39305632D01*
X221369296Y-39087384D01*
X221278860Y-38881209D01*
X221155722Y-38692732D01*
X221155720Y-38692730D01*
X221155717Y-38692725D01*
X221003243Y-38527096D01*
X221003237Y-38527091D01*
X220825579Y-38388813D01*
X220825576Y-38388811D01*
X220768893Y-38358136D01*
X220748440Y-38347067D01*
X220706263Y-38302744D01*
X220698193Y-38242093D01*
X220727314Y-38188282D01*
X220748441Y-38172932D01*
X220825576Y-38131189D01*
X221003240Y-37992906D01*
X221043476Y-37949199D01*
X221155717Y-37827274D01*
X221155718Y-37827272D01*
X221155722Y-37827268D01*
X221278860Y-37638791D01*
X221369296Y-37432616D01*
X221424564Y-37214368D01*
X221443156Y-36990000D01*
X221424564Y-36765632D01*
X221369296Y-36547384D01*
X221278860Y-36341209D01*
X221155722Y-36152732D01*
X221155720Y-36152730D01*
X221155717Y-36152725D01*
X221003243Y-35987096D01*
X221003237Y-35987091D01*
X220825579Y-35848813D01*
X220825576Y-35848811D01*
X220627577Y-35741659D01*
X220611781Y-35736236D01*
X220414635Y-35668556D01*
X220414632Y-35668555D01*
X220414631Y-35668555D01*
X220192569Y-35631500D01*
X219967431Y-35631500D01*
X219745368Y-35668555D01*
X219532422Y-35741659D01*
X219334423Y-35848811D01*
X219334420Y-35848813D01*
X219156762Y-35987091D01*
X219063392Y-36088517D01*
X219010070Y-36118523D01*
X218949294Y-36111456D01*
X218904279Y-36070016D01*
X218893637Y-36036776D01*
X218893414Y-36036829D01*
X218892735Y-36033958D01*
X218892123Y-36032045D01*
X218891989Y-36030800D01*
X218875688Y-35987096D01*
X218840889Y-35893796D01*
X218753261Y-35776739D01*
X218738346Y-35765574D01*
X218636207Y-35689113D01*
X218636206Y-35689112D01*
X218636204Y-35689111D01*
X218499201Y-35638011D01*
X218499200Y-35638010D01*
X218458327Y-35633616D01*
X218438638Y-35631500D01*
X216641362Y-35631500D01*
X216625288Y-35633228D01*
X216580800Y-35638010D01*
X216505116Y-35666239D01*
X216443796Y-35689111D01*
X216443794Y-35689112D01*
X216443792Y-35689113D01*
X216326743Y-35776735D01*
X216326735Y-35776743D01*
X216239113Y-35893792D01*
X216239112Y-35893794D01*
X216239111Y-35893796D01*
X216216239Y-35955116D01*
X216188010Y-36030800D01*
X216181500Y-36091365D01*
X216181500Y-37888634D01*
X216188010Y-37949199D01*
X216188011Y-37949201D01*
X216239111Y-38086204D01*
X216239112Y-38086206D01*
X216239113Y-38086207D01*
X216272785Y-38131188D01*
X216326739Y-38203261D01*
X216443796Y-38290889D01*
X216580799Y-38341989D01*
X216580802Y-38341989D01*
X216586829Y-38343414D01*
X216586345Y-38345461D01*
X216633733Y-38366682D01*
X216664212Y-38419736D01*
X216657685Y-38480572D01*
X216628143Y-38518232D01*
X216616765Y-38527088D01*
X216616756Y-38527096D01*
X216464282Y-38692725D01*
X216384052Y-38815526D01*
X216341140Y-38881209D01*
X216250704Y-39087384D01*
X216223070Y-39196508D01*
X216195435Y-39305633D01*
X216176844Y-39530000D01*
X216195435Y-39754366D01*
X216195436Y-39754368D01*
X216250704Y-39972616D01*
X216341140Y-40178791D01*
X216464278Y-40367268D01*
X216464282Y-40367274D01*
X216616756Y-40532903D01*
X216616762Y-40532908D01*
X216794420Y-40671186D01*
X216794424Y-40671189D01*
X216841506Y-40696668D01*
X216871558Y-40712932D01*
X216913736Y-40757257D01*
X216921806Y-40817908D01*
X216892685Y-40871718D01*
X216871558Y-40887068D01*
X216794423Y-40928811D01*
X216794420Y-40928813D01*
X216616762Y-41067091D01*
X216616756Y-41067096D01*
X216464282Y-41232725D01*
X216434131Y-41278876D01*
X216360452Y-41391649D01*
X216312798Y-41430022D01*
X216277574Y-41436500D01*
X213971178Y-41436500D01*
X213912987Y-41417593D01*
X213897607Y-41403744D01*
X213886254Y-41391135D01*
X213886253Y-41391134D01*
X213731752Y-41278882D01*
X213731748Y-41278880D01*
X213731741Y-41278876D01*
X213557294Y-41201208D01*
X213557289Y-41201206D01*
X213557288Y-41201206D01*
X213557285Y-41201205D01*
X213557284Y-41201205D01*
X213521755Y-41193653D01*
X213370487Y-41161500D01*
X213370484Y-41161500D01*
X213282500Y-41161500D01*
X213224309Y-41142593D01*
X213188345Y-41093093D01*
X213183500Y-41062500D01*
X213183500Y-31767607D01*
X213183499Y-31767603D01*
X213159155Y-31645216D01*
X213140356Y-31599832D01*
X213111400Y-31529925D01*
X213042071Y-31426167D01*
X212953833Y-31337929D01*
X211263833Y-29647929D01*
X211194503Y-29601604D01*
X211160074Y-29578599D01*
X211044783Y-29530844D01*
X210922396Y-29506500D01*
X210922394Y-29506500D01*
X204727606Y-29506500D01*
X204727603Y-29506500D01*
X204605214Y-29530845D01*
X204605211Y-29530846D01*
X204571448Y-29544829D01*
X204571449Y-29544830D01*
X204489924Y-29578599D01*
X204386165Y-29647929D01*
X203876721Y-30157371D01*
X203822205Y-30185148D01*
X203791231Y-30185148D01*
X203641919Y-30161500D01*
X203641916Y-30161500D01*
X203178084Y-30161500D01*
X203178081Y-30161500D01*
X202966886Y-30194950D01*
X202763518Y-30261027D01*
X202572993Y-30358104D01*
X202399997Y-30483793D01*
X202248793Y-30634997D01*
X202123104Y-30807993D01*
X202026027Y-30998518D01*
X201959950Y-31201886D01*
X201926500Y-31413080D01*
X201926500Y-31626919D01*
X201959950Y-31838113D01*
X202026027Y-32041481D01*
X202051973Y-32092404D01*
X202123106Y-32232009D01*
X202248794Y-32405004D01*
X202399996Y-32556206D01*
X202572991Y-32681894D01*
X202572995Y-32681896D01*
X202582148Y-32686560D01*
X202625413Y-32729824D01*
X202634985Y-32790255D01*
X202607209Y-32844772D01*
X202582155Y-32862977D01*
X202577449Y-32865375D01*
X202405535Y-32990277D01*
X202255277Y-33140535D01*
X202130375Y-33312447D01*
X202033904Y-33501784D01*
X201968241Y-33703877D01*
X201957768Y-33769999D01*
X201957769Y-33770000D01*
X203005854Y-33770000D01*
X202967370Y-33836657D01*
X202935000Y-33957465D01*
X202935000Y-34082535D01*
X202967370Y-34203343D01*
X203005854Y-34270000D01*
X201957769Y-34270000D01*
X201968241Y-34336122D01*
X202033904Y-34538215D01*
X202130375Y-34727552D01*
X202255277Y-34899464D01*
X202405535Y-35049722D01*
X202408487Y-35052243D01*
X202407571Y-35053315D01*
X202440285Y-35098332D01*
X202440292Y-35159518D01*
X202404333Y-35209022D01*
X202377278Y-35222909D01*
X202362261Y-35227885D01*
X202211349Y-35320969D01*
X202085969Y-35446349D01*
X201992885Y-35597261D01*
X201937112Y-35765576D01*
X201926500Y-35869446D01*
X201926500Y-37170552D01*
X201937111Y-37274417D01*
X201937112Y-37274424D01*
X201937113Y-37274426D01*
X201992885Y-37442738D01*
X202085970Y-37593652D01*
X202211348Y-37719030D01*
X202362262Y-37812115D01*
X202530574Y-37867887D01*
X202634455Y-37878500D01*
X204185544Y-37878499D01*
X204185552Y-37878499D01*
X204289417Y-37867888D01*
X204289417Y-37867887D01*
X204289426Y-37867887D01*
X204457738Y-37812115D01*
X204608652Y-37719030D01*
X204734030Y-37593652D01*
X204827115Y-37442738D01*
X204882887Y-37274426D01*
X204893500Y-37170545D01*
X204893499Y-35869456D01*
X204893499Y-35869455D01*
X204893499Y-35869447D01*
X204882888Y-35765582D01*
X204882887Y-35765580D01*
X204882887Y-35765574D01*
X204827115Y-35597262D01*
X204734030Y-35446348D01*
X204608652Y-35320970D01*
X204457738Y-35227885D01*
X204449679Y-35225214D01*
X204442722Y-35222909D01*
X204393433Y-35186656D01*
X204374867Y-35128356D01*
X204394114Y-35070277D01*
X204411855Y-35052644D01*
X204411513Y-35052243D01*
X204414464Y-35049722D01*
X204564722Y-34899464D01*
X204689624Y-34727552D01*
X204786095Y-34538215D01*
X204851758Y-34336122D01*
X204862231Y-34270000D01*
X203814146Y-34270000D01*
X203852630Y-34203343D01*
X203885000Y-34082535D01*
X203885000Y-33957465D01*
X203852630Y-33836657D01*
X203814146Y-33770000D01*
X204862231Y-33770000D01*
X204862231Y-33769999D01*
X204851758Y-33703877D01*
X204786095Y-33501784D01*
X204689624Y-33312447D01*
X204564722Y-33140535D01*
X204414464Y-32990277D01*
X204242551Y-32865375D01*
X204237848Y-32862979D01*
X204194585Y-32819714D01*
X204185014Y-32759281D01*
X204212793Y-32704765D01*
X204237850Y-32686560D01*
X204247009Y-32681894D01*
X204420004Y-32556206D01*
X204571206Y-32405004D01*
X204696894Y-32232009D01*
X204793972Y-32041483D01*
X204860049Y-31838116D01*
X204893500Y-31626916D01*
X204893500Y-31413084D01*
X204893500Y-31413080D01*
X204860049Y-31201882D01*
X204820913Y-31081435D01*
X204820912Y-31020250D01*
X204845061Y-30980841D01*
X205023409Y-30802496D01*
X205077926Y-30774719D01*
X205093412Y-30773500D01*
X208729126Y-30773500D01*
X208787317Y-30792407D01*
X208823281Y-30841907D01*
X208823281Y-30903093D01*
X208817336Y-30917445D01*
X208776027Y-30998518D01*
X208709950Y-31201886D01*
X208676500Y-31413080D01*
X208676500Y-31626919D01*
X208709950Y-31838113D01*
X208776027Y-32041481D01*
X208801973Y-32092404D01*
X208873106Y-32232009D01*
X208998794Y-32405004D01*
X209149996Y-32556206D01*
X209322991Y-32681894D01*
X209322995Y-32681896D01*
X209332148Y-32686560D01*
X209375413Y-32729824D01*
X209384985Y-32790255D01*
X209357209Y-32844772D01*
X209332155Y-32862977D01*
X209327449Y-32865375D01*
X209155535Y-32990277D01*
X209005277Y-33140535D01*
X208880375Y-33312447D01*
X208783904Y-33501784D01*
X208718241Y-33703877D01*
X208707768Y-33769999D01*
X208707769Y-33770000D01*
X209755854Y-33770000D01*
X209717370Y-33836657D01*
X209685000Y-33957465D01*
X209685000Y-34082535D01*
X209717370Y-34203343D01*
X209755854Y-34270000D01*
X208707769Y-34270000D01*
X208718241Y-34336122D01*
X208783904Y-34538215D01*
X208880375Y-34727552D01*
X209005277Y-34899464D01*
X209155535Y-35049722D01*
X209158487Y-35052243D01*
X209157571Y-35053315D01*
X209190285Y-35098332D01*
X209190292Y-35159518D01*
X209154333Y-35209022D01*
X209127278Y-35222909D01*
X209112261Y-35227885D01*
X208961349Y-35320969D01*
X208835969Y-35446349D01*
X208742885Y-35597261D01*
X208687112Y-35765576D01*
X208676500Y-35869446D01*
X208676500Y-37170552D01*
X208687111Y-37274417D01*
X208687112Y-37274424D01*
X208687113Y-37274426D01*
X208742885Y-37442738D01*
X208835970Y-37593652D01*
X208961348Y-37719030D01*
X209112262Y-37812115D01*
X209280574Y-37867887D01*
X209384455Y-37878500D01*
X210935544Y-37878499D01*
X210935552Y-37878499D01*
X211039417Y-37867888D01*
X211039417Y-37867887D01*
X211039426Y-37867887D01*
X211207738Y-37812115D01*
X211315527Y-37745630D01*
X211374980Y-37731173D01*
X211431576Y-37754423D01*
X211463697Y-37806499D01*
X211466500Y-37829890D01*
X211466500Y-41062500D01*
X211447593Y-41120691D01*
X211398093Y-41156655D01*
X211367500Y-41161500D01*
X211279513Y-41161500D01*
X211160398Y-41186818D01*
X211092715Y-41201205D01*
X211092705Y-41201208D01*
X210918258Y-41278876D01*
X210918251Y-41278880D01*
X210763745Y-41391135D01*
X210752393Y-41403744D01*
X210699405Y-41434337D01*
X210678822Y-41436500D01*
X210071207Y-41436500D01*
X209948818Y-41460845D01*
X209948815Y-41460846D01*
X209915052Y-41474829D01*
X209915053Y-41474830D01*
X209833528Y-41508599D01*
X209729771Y-41577928D01*
X209729767Y-41577931D01*
X207200196Y-44107504D01*
X207145679Y-44135281D01*
X207130192Y-44136500D01*
X204787564Y-44136500D01*
X204729373Y-44117593D01*
X204699354Y-44082445D01*
X204686895Y-44057993D01*
X204633607Y-43984648D01*
X204561206Y-43884996D01*
X204410004Y-43733794D01*
X204237009Y-43608106D01*
X204237008Y-43608105D01*
X204237006Y-43608104D01*
X204046481Y-43511027D01*
X203843113Y-43444950D01*
X203631919Y-43411500D01*
X203631916Y-43411500D01*
X203168084Y-43411500D01*
X203168081Y-43411500D01*
X202956886Y-43444950D01*
X202753518Y-43511027D01*
X202562993Y-43608104D01*
X202389997Y-43733793D01*
X202238793Y-43884997D01*
X202113104Y-44057993D01*
X202100646Y-44082445D01*
X202057381Y-44125710D01*
X202012436Y-44136500D01*
X198037564Y-44136500D01*
X197979373Y-44117593D01*
X197949354Y-44082445D01*
X197936895Y-44057993D01*
X197883607Y-43984648D01*
X197811206Y-43884996D01*
X197660004Y-43733794D01*
X197487009Y-43608106D01*
X197487008Y-43608105D01*
X197487006Y-43608104D01*
X197296481Y-43511027D01*
X197093113Y-43444950D01*
X196881919Y-43411500D01*
X196881916Y-43411500D01*
X196418084Y-43411500D01*
X196418081Y-43411500D01*
X196206886Y-43444950D01*
X196003518Y-43511027D01*
X195812993Y-43608104D01*
X195639997Y-43733793D01*
X195488793Y-43884997D01*
X195363104Y-44057993D01*
X195266027Y-44248518D01*
X195199950Y-44451886D01*
X195166500Y-44663080D01*
X195166500Y-44876919D01*
X195199950Y-45088113D01*
X195266027Y-45291481D01*
X195357958Y-45471907D01*
X195363106Y-45482009D01*
X195488794Y-45655004D01*
X195639996Y-45806206D01*
X195769817Y-45900526D01*
X195812994Y-45931896D01*
X195816310Y-45933928D01*
X195815784Y-45934785D01*
X195856055Y-45975064D01*
X195865620Y-46035497D01*
X195837837Y-46090011D01*
X195816131Y-46105780D01*
X195816310Y-46106072D01*
X195812994Y-46108103D01*
X195639997Y-46233793D01*
X195488793Y-46384997D01*
X195363104Y-46557993D01*
X195266027Y-46748518D01*
X195199950Y-46951886D01*
X195166500Y-47163080D01*
X195166500Y-47376919D01*
X195199950Y-47588113D01*
X195266027Y-47791481D01*
X195323103Y-47903500D01*
X195363106Y-47982009D01*
X195488794Y-48155004D01*
X195639996Y-48306206D01*
X195799529Y-48422113D01*
X195812994Y-48431896D01*
X195816310Y-48433928D01*
X195815784Y-48434785D01*
X195856055Y-48475064D01*
X195865620Y-48535497D01*
X195837837Y-48590011D01*
X195816131Y-48605780D01*
X195816310Y-48606072D01*
X195812994Y-48608103D01*
X195639997Y-48733793D01*
X195488793Y-48884997D01*
X195363104Y-49057993D01*
X195266027Y-49248518D01*
X195199950Y-49451886D01*
X195166500Y-49663080D01*
X195166500Y-49876919D01*
X195199950Y-50088113D01*
X195263787Y-50284588D01*
X195266028Y-50291483D01*
X195363106Y-50482009D01*
X195488794Y-50655004D01*
X195639996Y-50806206D01*
X195642854Y-50808282D01*
X195678819Y-50857781D01*
X195678822Y-50918966D01*
X195642860Y-50968468D01*
X195615810Y-50982351D01*
X195605874Y-50985643D01*
X195456659Y-51077680D01*
X195332680Y-51201659D01*
X195240643Y-51350875D01*
X195185493Y-51517306D01*
X195175000Y-51620012D01*
X195175000Y-52019999D01*
X195175001Y-52020000D01*
X196245854Y-52020000D01*
X196207370Y-52086657D01*
X196175000Y-52207465D01*
X196175000Y-52332535D01*
X196207370Y-52453343D01*
X196245854Y-52520000D01*
X195175002Y-52520000D01*
X195175001Y-52520001D01*
X195175001Y-52919986D01*
X195185492Y-53022687D01*
X195185495Y-53022699D01*
X195240643Y-53189124D01*
X195332680Y-53338340D01*
X195456659Y-53462319D01*
X195605875Y-53554356D01*
X195772306Y-53609506D01*
X195875012Y-53619999D01*
X196399998Y-53619999D01*
X196400000Y-53619998D01*
X196400000Y-52674145D01*
X196466657Y-52712630D01*
X196587465Y-52745000D01*
X196712535Y-52745000D01*
X196833343Y-52712630D01*
X196900000Y-52674145D01*
X196900000Y-53619998D01*
X196900001Y-53619999D01*
X197424986Y-53619999D01*
X197527687Y-53609507D01*
X197527699Y-53609504D01*
X197694124Y-53554356D01*
X197843340Y-53462319D01*
X197967319Y-53338340D01*
X198059356Y-53189124D01*
X198114506Y-53022693D01*
X198125000Y-52919987D01*
X198125000Y-52520001D01*
X198124999Y-52520000D01*
X197054146Y-52520000D01*
X197092630Y-52453343D01*
X197125000Y-52332535D01*
X197125000Y-52207465D01*
X197092630Y-52086657D01*
X197054146Y-52020000D01*
X198124998Y-52020000D01*
X198124999Y-52019999D01*
X198124999Y-51620013D01*
X198114507Y-51517312D01*
X198114504Y-51517300D01*
X198059356Y-51350875D01*
X197967319Y-51201659D01*
X197843340Y-51077680D01*
X197694123Y-50985642D01*
X197684191Y-50982351D01*
X197634902Y-50946099D01*
X197616335Y-50887799D01*
X197635581Y-50829720D01*
X197657152Y-50808278D01*
X197659998Y-50806210D01*
X197660004Y-50806206D01*
X197811206Y-50655004D01*
X197873467Y-50569307D01*
X197922966Y-50533345D01*
X197953559Y-50528500D01*
X202096441Y-50528500D01*
X202154632Y-50547407D01*
X202176531Y-50569306D01*
X202238794Y-50655004D01*
X202389996Y-50806206D01*
X202392854Y-50808282D01*
X202428819Y-50857781D01*
X202428822Y-50918966D01*
X202392860Y-50968468D01*
X202365810Y-50982351D01*
X202355874Y-50985643D01*
X202206659Y-51077680D01*
X202082680Y-51201659D01*
X201990643Y-51350875D01*
X201935493Y-51517306D01*
X201925000Y-51620012D01*
X201925000Y-52019999D01*
X201925001Y-52020000D01*
X202995854Y-52020000D01*
X202957370Y-52086657D01*
X202925000Y-52207465D01*
X202925000Y-52332535D01*
X202957370Y-52453343D01*
X202995854Y-52520000D01*
X201925002Y-52520000D01*
X201925001Y-52520001D01*
X201925001Y-52919986D01*
X201935492Y-53022687D01*
X201935495Y-53022699D01*
X201990643Y-53189124D01*
X202082680Y-53338340D01*
X202206659Y-53462319D01*
X202355875Y-53554356D01*
X202522306Y-53609506D01*
X202625012Y-53619999D01*
X203149998Y-53619999D01*
X203150000Y-53619998D01*
X203150000Y-52674145D01*
X203216657Y-52712630D01*
X203337465Y-52745000D01*
X203462535Y-52745000D01*
X203583343Y-52712630D01*
X203650000Y-52674145D01*
X203650000Y-53619998D01*
X203650001Y-53619999D01*
X204174986Y-53619999D01*
X204277687Y-53609507D01*
X204277699Y-53609504D01*
X204444124Y-53554356D01*
X204593340Y-53462319D01*
X204717319Y-53338340D01*
X204809356Y-53189124D01*
X204864506Y-53022693D01*
X204875000Y-52919987D01*
X204875000Y-52520001D01*
X204874999Y-52520000D01*
X203804146Y-52520000D01*
X203842630Y-52453343D01*
X203875000Y-52332535D01*
X203875000Y-52207465D01*
X203842630Y-52086657D01*
X203804146Y-52020000D01*
X204874998Y-52020000D01*
X204874999Y-52019999D01*
X204874999Y-51620013D01*
X204864507Y-51517312D01*
X204864504Y-51517300D01*
X204809356Y-51350875D01*
X204717319Y-51201659D01*
X204593340Y-51077680D01*
X204444123Y-50985642D01*
X204434191Y-50982351D01*
X204384902Y-50946099D01*
X204366335Y-50887799D01*
X204385581Y-50829720D01*
X204407152Y-50808278D01*
X204409998Y-50806210D01*
X204410004Y-50806206D01*
X204561206Y-50655004D01*
X204686894Y-50482009D01*
X204783972Y-50291483D01*
X204850049Y-50088116D01*
X204877568Y-49914368D01*
X204883500Y-49876919D01*
X204883500Y-49663080D01*
X204861199Y-49522284D01*
X204850049Y-49451884D01*
X204783972Y-49248517D01*
X204686894Y-49057991D01*
X204561206Y-48884996D01*
X204410004Y-48733794D01*
X204237009Y-48608106D01*
X204237005Y-48608103D01*
X204233690Y-48606072D01*
X204234216Y-48605212D01*
X204193949Y-48564947D01*
X204184377Y-48504515D01*
X204212153Y-48449998D01*
X204233869Y-48434220D01*
X204233690Y-48433928D01*
X204237005Y-48431896D01*
X204237004Y-48431896D01*
X204237009Y-48431894D01*
X204410004Y-48306206D01*
X204561206Y-48155004D01*
X204686894Y-47982009D01*
X204699354Y-47957555D01*
X204742619Y-47914290D01*
X204787564Y-47903500D01*
X205632393Y-47903500D01*
X205632394Y-47903500D01*
X205754785Y-47879155D01*
X205870075Y-47831400D01*
X205973833Y-47762071D01*
X208572924Y-45162978D01*
X208627439Y-45135203D01*
X208687871Y-45144774D01*
X208731136Y-45188039D01*
X208737081Y-45202392D01*
X208766027Y-45291481D01*
X208857958Y-45471907D01*
X208863106Y-45482009D01*
X208988794Y-45655004D01*
X209139996Y-45806206D01*
X209312991Y-45931894D01*
X209312995Y-45931896D01*
X209322148Y-45936560D01*
X209365413Y-45979824D01*
X209374985Y-46040255D01*
X209347209Y-46094772D01*
X209322155Y-46112977D01*
X209317449Y-46115375D01*
X209145535Y-46240277D01*
X208995277Y-46390535D01*
X208870375Y-46562447D01*
X208773904Y-46751784D01*
X208708241Y-46953877D01*
X208697768Y-47019999D01*
X208697769Y-47020000D01*
X209745854Y-47020000D01*
X209707370Y-47086657D01*
X209675000Y-47207465D01*
X209675000Y-47332535D01*
X209707370Y-47453343D01*
X209745854Y-47520000D01*
X208697769Y-47520000D01*
X208708241Y-47586122D01*
X208773904Y-47788215D01*
X208870375Y-47977552D01*
X208995277Y-48149464D01*
X209145535Y-48299722D01*
X209148487Y-48302243D01*
X209147571Y-48303315D01*
X209180285Y-48348332D01*
X209180292Y-48409518D01*
X209144333Y-48459022D01*
X209117278Y-48472909D01*
X209102261Y-48477885D01*
X208951349Y-48570969D01*
X208825969Y-48696349D01*
X208732885Y-48847261D01*
X208677112Y-49015576D01*
X208666500Y-49119446D01*
X208666500Y-50420552D01*
X208677111Y-50524417D01*
X208677112Y-50524424D01*
X208677113Y-50524426D01*
X208732885Y-50692738D01*
X208825970Y-50843652D01*
X208951348Y-50969030D01*
X209102262Y-51062115D01*
X209270574Y-51117887D01*
X209374455Y-51128500D01*
X209932183Y-51128499D01*
X209990374Y-51147406D01*
X210026338Y-51196906D01*
X210030641Y-51237848D01*
X210013093Y-51404800D01*
X209988206Y-51460695D01*
X209984639Y-51464455D01*
X205321592Y-56127504D01*
X205267075Y-56155281D01*
X205251588Y-56156500D01*
X197967603Y-56156500D01*
X197845214Y-56180845D01*
X197845211Y-56180846D01*
X197811448Y-56194829D01*
X197811449Y-56194830D01*
X197729924Y-56228599D01*
X197626165Y-56297929D01*
X197120139Y-56803953D01*
X197065623Y-56831730D01*
X197034649Y-56831730D01*
X196906919Y-56811500D01*
X196906916Y-56811500D01*
X196393084Y-56811500D01*
X196393081Y-56811500D01*
X196181886Y-56844950D01*
X195978518Y-56911027D01*
X195787993Y-57008104D01*
X195614997Y-57133793D01*
X195463793Y-57284997D01*
X195338104Y-57457993D01*
X195241027Y-57648518D01*
X195174950Y-57851886D01*
X195141500Y-58063080D01*
X195141500Y-58276919D01*
X195174950Y-58488113D01*
X195241027Y-58691481D01*
X195270955Y-58750219D01*
X195338106Y-58882009D01*
X195463794Y-59055004D01*
X195614996Y-59206206D01*
X195617854Y-59208282D01*
X195653819Y-59257781D01*
X195653822Y-59318966D01*
X195617860Y-59368468D01*
X195590810Y-59382351D01*
X195580874Y-59385643D01*
X195431659Y-59477680D01*
X195307680Y-59601659D01*
X195215643Y-59750875D01*
X195160493Y-59917306D01*
X195150000Y-60020012D01*
X195150000Y-60419999D01*
X195150001Y-60420000D01*
X196216988Y-60420000D01*
X196184075Y-60477007D01*
X196150000Y-60604174D01*
X196150000Y-60735826D01*
X196184075Y-60862993D01*
X196216988Y-60920000D01*
X195150002Y-60920000D01*
X195150001Y-60920001D01*
X195150001Y-61319986D01*
X195160492Y-61422687D01*
X195160495Y-61422699D01*
X195215643Y-61589124D01*
X195307680Y-61738340D01*
X195431659Y-61862319D01*
X195580875Y-61954356D01*
X195747306Y-62009506D01*
X195850012Y-62019999D01*
X196399998Y-62019999D01*
X196400000Y-62019998D01*
X196400000Y-61103012D01*
X196457007Y-61135925D01*
X196584174Y-61170000D01*
X196715826Y-61170000D01*
X196842993Y-61135925D01*
X196900000Y-61103012D01*
X196900000Y-62019998D01*
X196900001Y-62019999D01*
X197449986Y-62019999D01*
X197552687Y-62009507D01*
X197552699Y-62009504D01*
X197719124Y-61954356D01*
X197868340Y-61862319D01*
X197992319Y-61738340D01*
X198084356Y-61589124D01*
X198139506Y-61422693D01*
X198150000Y-61319987D01*
X198150000Y-60920001D01*
X198149999Y-60920000D01*
X197083012Y-60920000D01*
X197115925Y-60862993D01*
X197150000Y-60735826D01*
X197150000Y-60604174D01*
X197115925Y-60477007D01*
X197083012Y-60420000D01*
X198149998Y-60420000D01*
X198149999Y-60419999D01*
X198149999Y-60020013D01*
X198139507Y-59917312D01*
X198139504Y-59917300D01*
X198084356Y-59750875D01*
X197992319Y-59601659D01*
X197868340Y-59477680D01*
X197719123Y-59385642D01*
X197709191Y-59382351D01*
X197659902Y-59346099D01*
X197641335Y-59287799D01*
X197660581Y-59229720D01*
X197682152Y-59208278D01*
X197685004Y-59206206D01*
X197836206Y-59055004D01*
X197961894Y-58882009D01*
X198058972Y-58691483D01*
X198125049Y-58488116D01*
X198145659Y-58357991D01*
X198158500Y-58276919D01*
X198158500Y-58063080D01*
X198125049Y-57851886D01*
X198125049Y-57851884D01*
X198079782Y-57712565D01*
X198079782Y-57651380D01*
X198103934Y-57611969D01*
X198123400Y-57592504D01*
X198199091Y-57516813D01*
X198263409Y-57452496D01*
X198317926Y-57424719D01*
X198333412Y-57423500D01*
X204661588Y-57423500D01*
X204719779Y-57442407D01*
X204755743Y-57491907D01*
X204755743Y-57553093D01*
X204731592Y-57592504D01*
X202357932Y-59966163D01*
X202357929Y-59966167D01*
X202288599Y-60069925D01*
X202240844Y-60185216D01*
X202216500Y-60307603D01*
X202216500Y-62226588D01*
X202197593Y-62284779D01*
X202187504Y-62296592D01*
X200491592Y-63992504D01*
X200437075Y-64020281D01*
X200421588Y-64021500D01*
X198502603Y-64021500D01*
X198380216Y-64045844D01*
X198264925Y-64093599D01*
X198161167Y-64162929D01*
X198161163Y-64162932D01*
X197120141Y-65203953D01*
X197065624Y-65231730D01*
X197034650Y-65231730D01*
X196906919Y-65211500D01*
X196906916Y-65211500D01*
X196393084Y-65211500D01*
X196393081Y-65211500D01*
X196181886Y-65244950D01*
X195978518Y-65311027D01*
X195787993Y-65408104D01*
X195614997Y-65533793D01*
X195463793Y-65684997D01*
X195338104Y-65857993D01*
X195241027Y-66048518D01*
X195174950Y-66251886D01*
X195141500Y-66463080D01*
X195141500Y-66676919D01*
X195174950Y-66888113D01*
X195234015Y-67069901D01*
X195241028Y-67091483D01*
X195338106Y-67282009D01*
X195463794Y-67455004D01*
X195614996Y-67606206D01*
X195617854Y-67608282D01*
X195653819Y-67657781D01*
X195653822Y-67718966D01*
X195617860Y-67768468D01*
X195590810Y-67782351D01*
X195580874Y-67785643D01*
X195431659Y-67877680D01*
X195307680Y-68001659D01*
X195215643Y-68150875D01*
X195160493Y-68317306D01*
X195150000Y-68420012D01*
X195150000Y-68819999D01*
X195150001Y-68820000D01*
X196216988Y-68820000D01*
X196184075Y-68877007D01*
X196150000Y-69004174D01*
X196150000Y-69135826D01*
X196184075Y-69262993D01*
X196216988Y-69320000D01*
X195150002Y-69320000D01*
X195150001Y-69320001D01*
X195150001Y-69719986D01*
X195160492Y-69822687D01*
X195160495Y-69822699D01*
X195215643Y-69989124D01*
X195307680Y-70138340D01*
X195431659Y-70262319D01*
X195580875Y-70354356D01*
X195747306Y-70409506D01*
X195850012Y-70419999D01*
X196399998Y-70419999D01*
X196400000Y-70419998D01*
X196400000Y-69503012D01*
X196457007Y-69535925D01*
X196584174Y-69570000D01*
X196715826Y-69570000D01*
X196842993Y-69535925D01*
X196900000Y-69503012D01*
X196900000Y-70419998D01*
X196900001Y-70419999D01*
X197449986Y-70419999D01*
X197552687Y-70409507D01*
X197552699Y-70409504D01*
X197719124Y-70354356D01*
X197868340Y-70262319D01*
X197992319Y-70138340D01*
X198084356Y-69989124D01*
X198139506Y-69822693D01*
X198150000Y-69719987D01*
X198150000Y-69320001D01*
X198149999Y-69320000D01*
X197083012Y-69320000D01*
X197115925Y-69262993D01*
X197150000Y-69135826D01*
X197150000Y-69004174D01*
X197115925Y-68877007D01*
X197083012Y-68820000D01*
X198149998Y-68820000D01*
X198149999Y-68819999D01*
X198149999Y-68420013D01*
X198139507Y-68317312D01*
X198139504Y-68317300D01*
X198084356Y-68150875D01*
X197992319Y-68001659D01*
X197868340Y-67877680D01*
X197719123Y-67785642D01*
X197709191Y-67782351D01*
X197659902Y-67746099D01*
X197641335Y-67687799D01*
X197660581Y-67629720D01*
X197682152Y-67608278D01*
X197684998Y-67606210D01*
X197685004Y-67606206D01*
X197836206Y-67455004D01*
X197961894Y-67282009D01*
X198058972Y-67091483D01*
X198125049Y-66888116D01*
X198158500Y-66676916D01*
X198158500Y-66463084D01*
X198158500Y-66463080D01*
X198125049Y-66251886D01*
X198125049Y-66251884D01*
X198079782Y-66112565D01*
X198079782Y-66051380D01*
X198103934Y-66011969D01*
X198798409Y-65317496D01*
X198852925Y-65289719D01*
X198868412Y-65288500D01*
X200787393Y-65288500D01*
X200787394Y-65288500D01*
X200909785Y-65264155D01*
X201025075Y-65216400D01*
X201128833Y-65147071D01*
X203109570Y-63166332D01*
X203141691Y-63144873D01*
X203147051Y-63142652D01*
X203150075Y-63141400D01*
X203253833Y-63072071D01*
X203342071Y-62983833D01*
X203411400Y-62880075D01*
X203459155Y-62764785D01*
X203483500Y-62642394D01*
X203483500Y-60673412D01*
X203502407Y-60615221D01*
X203512496Y-60603408D01*
X207107800Y-57008104D01*
X210735911Y-53379992D01*
X210790426Y-53352217D01*
X210826502Y-53353163D01*
X210829514Y-53353804D01*
X210829517Y-53353804D01*
X210997859Y-53353804D01*
X211056050Y-53372711D01*
X211085085Y-53409541D01*
X211086310Y-53408887D01*
X211088603Y-53413178D01*
X211157928Y-53516929D01*
X213770956Y-56129957D01*
X213798733Y-56184474D01*
X213799952Y-56199961D01*
X213799952Y-60241848D01*
X213824296Y-60364235D01*
X213872051Y-60479526D01*
X213876711Y-60486500D01*
X213941381Y-60583285D01*
X214970167Y-61612072D01*
X215073925Y-61681401D01*
X215155447Y-61715168D01*
X215189215Y-61729155D01*
X215311606Y-61753500D01*
X216184219Y-61753500D01*
X216242410Y-61772407D01*
X216278374Y-61821907D01*
X216278374Y-61883093D01*
X216274887Y-61892250D01*
X216250704Y-61947384D01*
X216195435Y-62165633D01*
X216176844Y-62390000D01*
X216195435Y-62614366D01*
X216213698Y-62686485D01*
X216250704Y-62832616D01*
X216250706Y-62832620D01*
X216270494Y-62877733D01*
X216276553Y-62938618D01*
X216245669Y-62991436D01*
X216189636Y-63016013D01*
X216179832Y-63016500D01*
X212533412Y-63016500D01*
X212475221Y-62997593D01*
X212463408Y-62987504D01*
X211585064Y-62109160D01*
X211557287Y-62054643D01*
X211560913Y-62008563D01*
X211578526Y-61954356D01*
X211600049Y-61888116D01*
X211618376Y-61772407D01*
X211633500Y-61676919D01*
X211633500Y-61463080D01*
X211600049Y-61251886D01*
X211600049Y-61251884D01*
X211533972Y-61048517D01*
X211436894Y-60857991D01*
X211311206Y-60684996D01*
X211160004Y-60533794D01*
X210987009Y-60408106D01*
X210987005Y-60408103D01*
X210983690Y-60406072D01*
X210984216Y-60405212D01*
X210943949Y-60364947D01*
X210934377Y-60304515D01*
X210962153Y-60249998D01*
X210983869Y-60234220D01*
X210983690Y-60233928D01*
X210987005Y-60231896D01*
X210987004Y-60231896D01*
X210987009Y-60231894D01*
X211160004Y-60106206D01*
X211311206Y-59955004D01*
X211436894Y-59782009D01*
X211533972Y-59591483D01*
X211600049Y-59388116D01*
X211626317Y-59222266D01*
X211633500Y-59176919D01*
X211633500Y-58963080D01*
X211600049Y-58751886D01*
X211600049Y-58751884D01*
X211533972Y-58548517D01*
X211436894Y-58357991D01*
X211311206Y-58184996D01*
X211160004Y-58033794D01*
X210987009Y-57908106D01*
X210987008Y-57908105D01*
X210987006Y-57908104D01*
X210796481Y-57811027D01*
X210593113Y-57744950D01*
X210381919Y-57711500D01*
X210381916Y-57711500D01*
X209918084Y-57711500D01*
X209918081Y-57711500D01*
X209706886Y-57744950D01*
X209503518Y-57811027D01*
X209312993Y-57908104D01*
X209139997Y-58033793D01*
X208988793Y-58184997D01*
X208863104Y-58357993D01*
X208766027Y-58548518D01*
X208699950Y-58751886D01*
X208666500Y-58963080D01*
X208666500Y-59176919D01*
X208699950Y-59388113D01*
X208739086Y-59508563D01*
X208739085Y-59569748D01*
X208714935Y-59609158D01*
X208246167Y-60077928D01*
X208246167Y-60077929D01*
X208157932Y-60166163D01*
X208157929Y-60166167D01*
X208088599Y-60269925D01*
X208040844Y-60385216D01*
X208016500Y-60507603D01*
X208016500Y-64702396D01*
X208040844Y-64824783D01*
X208088599Y-64940074D01*
X208088600Y-64940075D01*
X208157929Y-65043833D01*
X208157932Y-65043836D01*
X208849328Y-65735232D01*
X208877105Y-65789749D01*
X208867534Y-65850181D01*
X208863735Y-65856963D01*
X208863110Y-65857981D01*
X208766027Y-66048518D01*
X208699950Y-66251886D01*
X208666500Y-66463080D01*
X208666500Y-66676919D01*
X208699950Y-66888113D01*
X208759015Y-67069901D01*
X208766028Y-67091483D01*
X208863106Y-67282009D01*
X208988794Y-67455004D01*
X209139996Y-67606206D01*
X209142854Y-67608282D01*
X209178819Y-67657781D01*
X209178822Y-67718966D01*
X209142860Y-67768468D01*
X209115810Y-67782351D01*
X209105874Y-67785643D01*
X208956659Y-67877680D01*
X208832680Y-68001659D01*
X208740643Y-68150875D01*
X208685493Y-68317306D01*
X208675000Y-68420012D01*
X208675000Y-68819999D01*
X208675001Y-68820000D01*
X209745854Y-68820000D01*
X209707370Y-68886657D01*
X209675000Y-69007465D01*
X209675000Y-69132535D01*
X209707370Y-69253343D01*
X209745854Y-69320000D01*
X208675002Y-69320000D01*
X208675001Y-69320001D01*
X208675001Y-69719986D01*
X208685492Y-69822687D01*
X208685495Y-69822699D01*
X208740643Y-69989124D01*
X208832680Y-70138340D01*
X208956659Y-70262319D01*
X209105875Y-70354356D01*
X209272306Y-70409506D01*
X209375012Y-70419999D01*
X209899998Y-70419999D01*
X209900000Y-70419998D01*
X209900000Y-69474145D01*
X209966657Y-69512630D01*
X210087465Y-69545000D01*
X210212535Y-69545000D01*
X210333343Y-69512630D01*
X210400000Y-69474145D01*
X210400000Y-70419998D01*
X210400001Y-70419999D01*
X210924986Y-70419999D01*
X211027687Y-70409507D01*
X211027699Y-70409504D01*
X211194124Y-70354356D01*
X211343340Y-70262319D01*
X211467319Y-70138340D01*
X211559356Y-69989124D01*
X211614506Y-69822693D01*
X211625000Y-69719987D01*
X211625000Y-69320001D01*
X211624999Y-69320000D01*
X210554146Y-69320000D01*
X210592630Y-69253343D01*
X210625000Y-69132535D01*
X210625000Y-69007465D01*
X210592630Y-68886657D01*
X210554146Y-68820000D01*
X211624998Y-68820000D01*
X211624999Y-68819999D01*
X211624999Y-68420013D01*
X211614507Y-68317312D01*
X211614504Y-68317300D01*
X211559356Y-68150875D01*
X211467319Y-68001659D01*
X211343340Y-67877680D01*
X211194123Y-67785642D01*
X211184191Y-67782351D01*
X211134902Y-67746099D01*
X211116335Y-67687799D01*
X211135581Y-67629720D01*
X211157152Y-67608278D01*
X211159998Y-67606210D01*
X211160004Y-67606206D01*
X211311206Y-67455004D01*
X211436894Y-67282009D01*
X211533972Y-67091483D01*
X211600049Y-66888116D01*
X211633500Y-66676916D01*
X211633500Y-66463084D01*
X211633500Y-66463080D01*
X211600049Y-66251886D01*
X211600049Y-66251884D01*
X211545206Y-66083092D01*
X211545207Y-66021907D01*
X211581171Y-65972407D01*
X211639361Y-65953500D01*
X215040192Y-65953500D01*
X215098383Y-65972407D01*
X215110196Y-65982496D01*
X215502504Y-66374804D01*
X215530281Y-66429321D01*
X215531500Y-66444808D01*
X215531500Y-70647396D01*
X215555844Y-70769783D01*
X215603599Y-70885074D01*
X215603600Y-70885075D01*
X215672929Y-70988833D01*
X215672932Y-70988836D01*
X216380776Y-71696680D01*
X216408553Y-71751197D01*
X216398982Y-71811629D01*
X216393652Y-71820831D01*
X216341140Y-71901208D01*
X216341140Y-71901209D01*
X216250704Y-72107384D01*
X216223070Y-72216508D01*
X216195435Y-72325633D01*
X216176844Y-72550000D01*
X216195435Y-72774366D01*
X216195435Y-72774367D01*
X216216455Y-72857370D01*
X216212411Y-72918422D01*
X216173254Y-72965436D01*
X216160751Y-72972114D01*
X216033254Y-73028878D01*
X216033251Y-73028880D01*
X215878745Y-73141135D01*
X215750958Y-73283058D01*
X215750958Y-73283059D01*
X215655477Y-73448434D01*
X215655471Y-73448448D01*
X215596459Y-73630066D01*
X215578093Y-73804800D01*
X215553206Y-73860695D01*
X215549639Y-73864454D01*
X214956593Y-74457503D01*
X214902076Y-74485281D01*
X214886589Y-74486500D01*
X198437603Y-74486500D01*
X198315216Y-74510844D01*
X198199925Y-74558599D01*
X198096167Y-74627929D01*
X198096163Y-74627932D01*
X197116723Y-75607371D01*
X197062206Y-75635148D01*
X197031233Y-75635148D01*
X196881920Y-75611500D01*
X196881916Y-75611500D01*
X196418084Y-75611500D01*
X196418081Y-75611500D01*
X196206886Y-75644950D01*
X196003518Y-75711027D01*
X195812993Y-75808104D01*
X195639997Y-75933793D01*
X195488793Y-76084997D01*
X195363104Y-76257993D01*
X195266027Y-76448518D01*
X195199950Y-76651886D01*
X195166500Y-76863080D01*
X195166500Y-77076919D01*
X195199950Y-77288113D01*
X195266027Y-77491481D01*
X195358010Y-77672009D01*
X195363106Y-77682009D01*
X195488794Y-77855004D01*
X195639996Y-78006206D01*
X195810384Y-78130000D01*
X195812994Y-78131896D01*
X195816310Y-78133928D01*
X195815784Y-78134785D01*
X195856055Y-78175064D01*
X195865620Y-78235497D01*
X195837837Y-78290011D01*
X195816131Y-78305780D01*
X195816310Y-78306072D01*
X195812994Y-78308103D01*
X195639997Y-78433793D01*
X195488793Y-78584997D01*
X195363104Y-78757993D01*
X195266027Y-78948518D01*
X195199950Y-79151886D01*
X195166500Y-79363080D01*
X195166500Y-79576919D01*
X195199950Y-79788113D01*
X195266027Y-79991481D01*
X195358010Y-80172009D01*
X195363106Y-80182009D01*
X195488794Y-80355004D01*
X195639996Y-80506206D01*
X195642854Y-80508282D01*
X195678819Y-80557781D01*
X195678822Y-80618966D01*
X195642860Y-80668468D01*
X195615810Y-80682351D01*
X195605874Y-80685643D01*
X195456659Y-80777680D01*
X195332680Y-80901659D01*
X195240643Y-81050875D01*
X195185493Y-81217306D01*
X195175000Y-81320012D01*
X195175000Y-81719999D01*
X195175001Y-81720000D01*
X196245854Y-81720000D01*
X196207370Y-81786657D01*
X196175000Y-81907465D01*
X196175000Y-82032535D01*
X196207370Y-82153343D01*
X196245854Y-82220000D01*
X195175002Y-82220000D01*
X195175001Y-82220001D01*
X195175001Y-82619986D01*
X195185492Y-82722687D01*
X195185495Y-82722699D01*
X195240643Y-82889124D01*
X195332680Y-83038340D01*
X195456659Y-83162319D01*
X195605875Y-83254356D01*
X195772306Y-83309506D01*
X195875012Y-83319999D01*
X196399998Y-83319999D01*
X196400000Y-83319998D01*
X196400000Y-82374145D01*
X196466657Y-82412630D01*
X196587465Y-82445000D01*
X196712535Y-82445000D01*
X196833343Y-82412630D01*
X196900000Y-82374145D01*
X196900000Y-83319998D01*
X196900001Y-83319999D01*
X197424986Y-83319999D01*
X197527687Y-83309507D01*
X197527699Y-83309504D01*
X197694124Y-83254356D01*
X197843340Y-83162319D01*
X197967319Y-83038340D01*
X198059356Y-82889124D01*
X198114506Y-82722693D01*
X198125000Y-82619987D01*
X198125000Y-82220001D01*
X198124999Y-82220000D01*
X197054146Y-82220000D01*
X197092630Y-82153343D01*
X197125000Y-82032535D01*
X197125000Y-81907465D01*
X197092630Y-81786657D01*
X197054146Y-81720000D01*
X198124998Y-81720000D01*
X198124999Y-81719999D01*
X198124999Y-81320013D01*
X198114507Y-81217312D01*
X198114504Y-81217300D01*
X198059356Y-81050875D01*
X197967319Y-80901659D01*
X197843340Y-80777680D01*
X197694123Y-80685642D01*
X197684191Y-80682351D01*
X197634902Y-80646099D01*
X197616335Y-80587799D01*
X197635581Y-80529720D01*
X197657152Y-80508278D01*
X197659998Y-80506210D01*
X197660004Y-80506206D01*
X197811206Y-80355004D01*
X197936894Y-80182009D01*
X198033972Y-79991483D01*
X198100049Y-79788116D01*
X198133500Y-79576916D01*
X198133500Y-79363084D01*
X198133500Y-79363080D01*
X198102458Y-79167094D01*
X198100049Y-79151884D01*
X198060913Y-79031434D01*
X198060914Y-78970249D01*
X198085062Y-78930840D01*
X200783408Y-76232496D01*
X200837925Y-76204719D01*
X200853412Y-76203500D01*
X201974222Y-76203500D01*
X202032413Y-76222407D01*
X202068377Y-76271907D01*
X202068377Y-76333093D01*
X202062431Y-76347445D01*
X202016030Y-76438509D01*
X202016028Y-76438515D01*
X201949950Y-76641886D01*
X201916500Y-76853080D01*
X201916500Y-77066919D01*
X201949950Y-77278113D01*
X202016027Y-77481481D01*
X202087877Y-77622496D01*
X202113106Y-77672009D01*
X202238794Y-77845004D01*
X202389996Y-77996206D01*
X202527248Y-78095925D01*
X202562994Y-78121896D01*
X202566310Y-78123928D01*
X202565784Y-78124785D01*
X202606055Y-78165064D01*
X202615620Y-78225497D01*
X202587837Y-78280011D01*
X202566131Y-78295780D01*
X202566310Y-78296072D01*
X202562994Y-78298103D01*
X202389997Y-78423793D01*
X202238793Y-78574997D01*
X202113104Y-78747993D01*
X202016027Y-78938518D01*
X201949950Y-79141886D01*
X201916500Y-79353080D01*
X201916500Y-79566919D01*
X201949950Y-79778113D01*
X201949951Y-79778116D01*
X202016028Y-79981483D01*
X202113106Y-80172009D01*
X202238794Y-80345004D01*
X202389996Y-80496206D01*
X202392854Y-80498282D01*
X202428819Y-80547781D01*
X202428822Y-80608966D01*
X202392860Y-80658468D01*
X202365810Y-80672351D01*
X202355874Y-80675643D01*
X202206659Y-80767680D01*
X202082680Y-80891659D01*
X201990643Y-81040875D01*
X201935493Y-81207306D01*
X201925000Y-81310012D01*
X201925000Y-81709999D01*
X201925001Y-81710000D01*
X202995854Y-81710000D01*
X202957370Y-81776657D01*
X202925000Y-81897465D01*
X202925000Y-82022535D01*
X202957370Y-82143343D01*
X202995854Y-82210000D01*
X201925002Y-82210000D01*
X201925001Y-82210001D01*
X201925001Y-82609986D01*
X201935492Y-82712687D01*
X201935495Y-82712699D01*
X201990643Y-82879124D01*
X202082680Y-83028340D01*
X202206659Y-83152319D01*
X202355875Y-83244356D01*
X202522306Y-83299506D01*
X202625012Y-83309999D01*
X203149998Y-83309999D01*
X203150000Y-83309998D01*
X203150000Y-82364145D01*
X203216657Y-82402630D01*
X203337465Y-82435000D01*
X203462535Y-82435000D01*
X203583343Y-82402630D01*
X203650000Y-82364145D01*
X203650000Y-83309998D01*
X203650001Y-83309999D01*
X204174986Y-83309999D01*
X204277687Y-83299507D01*
X204277699Y-83299504D01*
X204444124Y-83244356D01*
X204593340Y-83152319D01*
X204717319Y-83028340D01*
X204809356Y-82879124D01*
X204864506Y-82712693D01*
X204875000Y-82609987D01*
X204875000Y-82210001D01*
X204874999Y-82210000D01*
X203804146Y-82210000D01*
X203842630Y-82143343D01*
X203875000Y-82022535D01*
X203875000Y-81897465D01*
X203842630Y-81776657D01*
X203804146Y-81710000D01*
X204874998Y-81710000D01*
X204874999Y-81709999D01*
X204874999Y-81310013D01*
X204864507Y-81207312D01*
X204864504Y-81207300D01*
X204809356Y-81040875D01*
X204717319Y-80891659D01*
X204593340Y-80767680D01*
X204444123Y-80675642D01*
X204434191Y-80672351D01*
X204384902Y-80636099D01*
X204366335Y-80577799D01*
X204385581Y-80519720D01*
X204407152Y-80498278D01*
X204409998Y-80496210D01*
X204410004Y-80496206D01*
X204561206Y-80345004D01*
X204686894Y-80172009D01*
X204783972Y-79981483D01*
X204850049Y-79778116D01*
X204881916Y-79576919D01*
X204883500Y-79566919D01*
X204883500Y-79353080D01*
X204850049Y-79141886D01*
X204850049Y-79141884D01*
X204783972Y-78938517D01*
X204686894Y-78747991D01*
X204561206Y-78574996D01*
X204410004Y-78423794D01*
X204266686Y-78319667D01*
X204237005Y-78298103D01*
X204233690Y-78296072D01*
X204234216Y-78295212D01*
X204193949Y-78254947D01*
X204184377Y-78194515D01*
X204212153Y-78139998D01*
X204233869Y-78124220D01*
X204233690Y-78123928D01*
X204237005Y-78121896D01*
X204237004Y-78121896D01*
X204237009Y-78121894D01*
X204410004Y-77996206D01*
X204561206Y-77845004D01*
X204686894Y-77672009D01*
X204696341Y-77653466D01*
X204699354Y-77647555D01*
X204742619Y-77604290D01*
X204787564Y-77593500D01*
X207776588Y-77593500D01*
X207834779Y-77612407D01*
X207846592Y-77622496D01*
X208849328Y-78625232D01*
X208877105Y-78679749D01*
X208867534Y-78740181D01*
X208863735Y-78746963D01*
X208863110Y-78747981D01*
X208766027Y-78938518D01*
X208699950Y-79141886D01*
X208666500Y-79353080D01*
X208666500Y-79566919D01*
X208699950Y-79778113D01*
X208699951Y-79778116D01*
X208766028Y-79981483D01*
X208863106Y-80172009D01*
X208988794Y-80345004D01*
X209139996Y-80496206D01*
X209142854Y-80498282D01*
X209178819Y-80547781D01*
X209178822Y-80608966D01*
X209142860Y-80658468D01*
X209115810Y-80672351D01*
X209105874Y-80675643D01*
X208956659Y-80767680D01*
X208832680Y-80891659D01*
X208740643Y-81040875D01*
X208685493Y-81207306D01*
X208675000Y-81310012D01*
X208675000Y-81709999D01*
X208675001Y-81710000D01*
X209745854Y-81710000D01*
X209707370Y-81776657D01*
X209675000Y-81897465D01*
X209675000Y-82022535D01*
X209707370Y-82143343D01*
X209745854Y-82210000D01*
X208675002Y-82210000D01*
X208675001Y-82210001D01*
X208675001Y-82609986D01*
X208685492Y-82712687D01*
X208685495Y-82712699D01*
X208740643Y-82879124D01*
X208832680Y-83028340D01*
X208956659Y-83152319D01*
X209105875Y-83244356D01*
X209272306Y-83299506D01*
X209375012Y-83309999D01*
X209899998Y-83309999D01*
X209900000Y-83309998D01*
X209900000Y-82364145D01*
X209966657Y-82402630D01*
X210087465Y-82435000D01*
X210212535Y-82435000D01*
X210333343Y-82402630D01*
X210400000Y-82364145D01*
X210400000Y-83309998D01*
X210400001Y-83309999D01*
X210924986Y-83309999D01*
X211027687Y-83299507D01*
X211027699Y-83299504D01*
X211194124Y-83244356D01*
X211343340Y-83152319D01*
X211467319Y-83028340D01*
X211559356Y-82879124D01*
X211614506Y-82712693D01*
X211625000Y-82609987D01*
X211625000Y-82210001D01*
X211624999Y-82210000D01*
X210554146Y-82210000D01*
X210592630Y-82143343D01*
X210625000Y-82022535D01*
X210625000Y-81897465D01*
X210592630Y-81776657D01*
X210554146Y-81710000D01*
X211624998Y-81710000D01*
X211624999Y-81709999D01*
X211624999Y-81310013D01*
X211614507Y-81207312D01*
X211614504Y-81207300D01*
X211559356Y-81040875D01*
X211467319Y-80891659D01*
X211343340Y-80767680D01*
X211194123Y-80675642D01*
X211184191Y-80672351D01*
X211134902Y-80636099D01*
X211116335Y-80577799D01*
X211135581Y-80519720D01*
X211157152Y-80498278D01*
X211159998Y-80496210D01*
X211160004Y-80496206D01*
X211311206Y-80345004D01*
X211436894Y-80172009D01*
X211533972Y-79981483D01*
X211600049Y-79778116D01*
X211631916Y-79576919D01*
X211633500Y-79566919D01*
X211633500Y-79508412D01*
X211652407Y-79450221D01*
X211701907Y-79414257D01*
X211763093Y-79414257D01*
X211802503Y-79438407D01*
X214286167Y-81922072D01*
X214348024Y-81963403D01*
X214389918Y-81991397D01*
X214389920Y-81991398D01*
X214389925Y-81991401D01*
X214452614Y-82017367D01*
X214452615Y-82017368D01*
X214478914Y-82028261D01*
X214505215Y-82039155D01*
X214627606Y-82063500D01*
X214627607Y-82063500D01*
X214752394Y-82063500D01*
X216188605Y-82063500D01*
X216246796Y-82082407D01*
X216282760Y-82131907D01*
X216282760Y-82193093D01*
X216279268Y-82202261D01*
X216250704Y-82267384D01*
X216232291Y-82340095D01*
X216195435Y-82485633D01*
X216176844Y-82710000D01*
X216195435Y-82934366D01*
X216195436Y-82934368D01*
X216250704Y-83152616D01*
X216341140Y-83358791D01*
X216464278Y-83547268D01*
X216464282Y-83547274D01*
X216616756Y-83712903D01*
X216616762Y-83712908D01*
X216794420Y-83851186D01*
X216794424Y-83851189D01*
X216794428Y-83851191D01*
X216876398Y-83895551D01*
X216918577Y-83939875D01*
X216926647Y-84000526D01*
X216897526Y-84054337D01*
X216871122Y-84072342D01*
X216862429Y-84076395D01*
X216862424Y-84076398D01*
X216668926Y-84211886D01*
X216501886Y-84378926D01*
X216366398Y-84572424D01*
X216366394Y-84572432D01*
X216266570Y-84786505D01*
X216209364Y-85000000D01*
X217106988Y-85000000D01*
X217074075Y-85057007D01*
X217040000Y-85184174D01*
X217040000Y-85315826D01*
X217074075Y-85442993D01*
X217106988Y-85500000D01*
X216209364Y-85500000D01*
X216266569Y-85713489D01*
X216366399Y-85927577D01*
X216501886Y-86121073D01*
X216668926Y-86288113D01*
X216711706Y-86318068D01*
X216748528Y-86366933D01*
X216749596Y-86428109D01*
X216724926Y-86469168D01*
X214976167Y-88217929D01*
X214887932Y-88306163D01*
X214887929Y-88306167D01*
X214818599Y-88409925D01*
X214770844Y-88525216D01*
X214746500Y-88647603D01*
X214746500Y-91176587D01*
X214727593Y-91234778D01*
X214717504Y-91246591D01*
X214268865Y-91695230D01*
X214214348Y-91723007D01*
X214153916Y-91713436D01*
X214110651Y-91670171D01*
X214100482Y-91622499D01*
X214100000Y-91622499D01*
X214100000Y-91620237D01*
X214099989Y-91620186D01*
X214100000Y-91619970D01*
X214100000Y-91070001D01*
X214099999Y-91070000D01*
X213183012Y-91070000D01*
X213215925Y-91012993D01*
X213250000Y-90885826D01*
X213250000Y-90754174D01*
X213215925Y-90627007D01*
X213183012Y-90570000D01*
X214099998Y-90570000D01*
X214099999Y-90569999D01*
X214099999Y-90020013D01*
X214089507Y-89917312D01*
X214089504Y-89917300D01*
X214034356Y-89750875D01*
X213942319Y-89601659D01*
X213818340Y-89477680D01*
X213669124Y-89385643D01*
X213502693Y-89330493D01*
X213399987Y-89320000D01*
X213000001Y-89320000D01*
X213000000Y-89320001D01*
X213000000Y-90386988D01*
X212942993Y-90354075D01*
X212815826Y-90320000D01*
X212684174Y-90320000D01*
X212557007Y-90354075D01*
X212500000Y-90386988D01*
X212500000Y-89320001D01*
X212499999Y-89320000D01*
X212100013Y-89320000D01*
X211997312Y-89330492D01*
X211997300Y-89330495D01*
X211830875Y-89385643D01*
X211681659Y-89477680D01*
X211557680Y-89601659D01*
X211465643Y-89750874D01*
X211462351Y-89760810D01*
X211426098Y-89810098D01*
X211367797Y-89828664D01*
X211309718Y-89809417D01*
X211288284Y-89787856D01*
X211286209Y-89785000D01*
X211286208Y-89784999D01*
X211286206Y-89784996D01*
X211135004Y-89633794D01*
X210962009Y-89508106D01*
X210962008Y-89508105D01*
X210962006Y-89508104D01*
X210771481Y-89411027D01*
X210568113Y-89344950D01*
X210356919Y-89311500D01*
X210356916Y-89311500D01*
X210143084Y-89311500D01*
X210143081Y-89311500D01*
X209931886Y-89344950D01*
X209728518Y-89411027D01*
X209537993Y-89508104D01*
X209364997Y-89633793D01*
X209213793Y-89784997D01*
X209088104Y-89957993D01*
X208991027Y-90148518D01*
X208924950Y-90351886D01*
X208891500Y-90563080D01*
X208891500Y-91076919D01*
X208924950Y-91288113D01*
X208991027Y-91491481D01*
X209087077Y-91679991D01*
X209088106Y-91682009D01*
X209213794Y-91855004D01*
X209364996Y-92006206D01*
X209537991Y-92131894D01*
X209728517Y-92228972D01*
X209931884Y-92295049D01*
X210016364Y-92308429D01*
X210143081Y-92328500D01*
X210143084Y-92328500D01*
X210356919Y-92328500D01*
X210568111Y-92295050D01*
X210568112Y-92295049D01*
X210568116Y-92295049D01*
X210707434Y-92249782D01*
X210768618Y-92249782D01*
X210808029Y-92273933D01*
X211484591Y-92950496D01*
X211512368Y-93005013D01*
X211502797Y-93065445D01*
X211459532Y-93108710D01*
X211414587Y-93119500D01*
X197161145Y-93119500D01*
X197102954Y-93100593D01*
X197066990Y-93051093D01*
X197066990Y-92989907D01*
X197102954Y-92940407D01*
X197118190Y-92931304D01*
X197312133Y-92837906D01*
X197606997Y-92652630D01*
X197879263Y-92435506D01*
X198125506Y-92189263D01*
X198342630Y-91916997D01*
X198527906Y-91622133D01*
X198679002Y-91308379D01*
X198794018Y-90979681D01*
X198871509Y-90640171D01*
X198880195Y-90563080D01*
X200491500Y-90563080D01*
X200491500Y-91076919D01*
X200524950Y-91288113D01*
X200591027Y-91491481D01*
X200687077Y-91679991D01*
X200688106Y-91682009D01*
X200813794Y-91855004D01*
X200964996Y-92006206D01*
X201137991Y-92131894D01*
X201328517Y-92228972D01*
X201531884Y-92295049D01*
X201616364Y-92308429D01*
X201743081Y-92328500D01*
X201743084Y-92328500D01*
X201956919Y-92328500D01*
X202076832Y-92309507D01*
X202168116Y-92295049D01*
X202371483Y-92228972D01*
X202562009Y-92131894D01*
X202735004Y-92006206D01*
X202886206Y-91855004D01*
X202888278Y-91852151D01*
X202937773Y-91816182D01*
X202998959Y-91816175D01*
X203048463Y-91852133D01*
X203062351Y-91879191D01*
X203065642Y-91889123D01*
X203157680Y-92038340D01*
X203281659Y-92162319D01*
X203430875Y-92254356D01*
X203597306Y-92309506D01*
X203700012Y-92319999D01*
X204099998Y-92319999D01*
X204100000Y-92319998D01*
X204100000Y-91253012D01*
X204157007Y-91285925D01*
X204284174Y-91320000D01*
X204415826Y-91320000D01*
X204542993Y-91285925D01*
X204600000Y-91253012D01*
X204600000Y-92319998D01*
X204600001Y-92319999D01*
X204999986Y-92319999D01*
X205102687Y-92309507D01*
X205102699Y-92309504D01*
X205269124Y-92254356D01*
X205418340Y-92162319D01*
X205542319Y-92038340D01*
X205634356Y-91889124D01*
X205689506Y-91722693D01*
X205700000Y-91619987D01*
X205700000Y-91070001D01*
X205699999Y-91070000D01*
X204783012Y-91070000D01*
X204815925Y-91012993D01*
X204850000Y-90885826D01*
X204850000Y-90754174D01*
X204815925Y-90627007D01*
X204783012Y-90570000D01*
X205699998Y-90570000D01*
X205699999Y-90569999D01*
X205699999Y-90020013D01*
X205689507Y-89917312D01*
X205689504Y-89917300D01*
X205634356Y-89750875D01*
X205542319Y-89601659D01*
X205418340Y-89477680D01*
X205269124Y-89385643D01*
X205102693Y-89330493D01*
X204999987Y-89320000D01*
X204600001Y-89320000D01*
X204600000Y-89320001D01*
X204600000Y-90386988D01*
X204542993Y-90354075D01*
X204415826Y-90320000D01*
X204284174Y-90320000D01*
X204157007Y-90354075D01*
X204100000Y-90386988D01*
X204100000Y-89320001D01*
X204099999Y-89320000D01*
X203700013Y-89320000D01*
X203597312Y-89330492D01*
X203597300Y-89330495D01*
X203430875Y-89385643D01*
X203281659Y-89477680D01*
X203157680Y-89601659D01*
X203065643Y-89750874D01*
X203062351Y-89760810D01*
X203026098Y-89810098D01*
X202967797Y-89828664D01*
X202909718Y-89809417D01*
X202888284Y-89787856D01*
X202886209Y-89785000D01*
X202886208Y-89784999D01*
X202886206Y-89784996D01*
X202735004Y-89633794D01*
X202562009Y-89508106D01*
X202562008Y-89508105D01*
X202562006Y-89508104D01*
X202371481Y-89411027D01*
X202168113Y-89344950D01*
X201956919Y-89311500D01*
X201956916Y-89311500D01*
X201743084Y-89311500D01*
X201743081Y-89311500D01*
X201531886Y-89344950D01*
X201328518Y-89411027D01*
X201137993Y-89508104D01*
X200964997Y-89633793D01*
X200813793Y-89784997D01*
X200688104Y-89957993D01*
X200591027Y-90148518D01*
X200524950Y-90351886D01*
X200491500Y-90563080D01*
X198880195Y-90563080D01*
X198903745Y-90354075D01*
X198910499Y-90294136D01*
X198910500Y-90294119D01*
X198910500Y-89945880D01*
X198910499Y-89945863D01*
X198871509Y-89599832D01*
X198871508Y-89599826D01*
X198810034Y-89330492D01*
X198794018Y-89260319D01*
X198679002Y-88931621D01*
X198527906Y-88617867D01*
X198342630Y-88323003D01*
X198342627Y-88322999D01*
X198342625Y-88322996D01*
X198125515Y-88050747D01*
X198125509Y-88050741D01*
X198125506Y-88050737D01*
X197879263Y-87804494D01*
X197879258Y-87804490D01*
X197879252Y-87804484D01*
X197607003Y-87587374D01*
X197607000Y-87587372D01*
X197312130Y-87402092D01*
X197312118Y-87402086D01*
X196998379Y-87250998D01*
X196998377Y-87250997D01*
X196669684Y-87135982D01*
X196330173Y-87058491D01*
X196330167Y-87058490D01*
X195984136Y-87019500D01*
X195984120Y-87019500D01*
X195635880Y-87019500D01*
X195635863Y-87019500D01*
X195289832Y-87058490D01*
X195289826Y-87058491D01*
X194950315Y-87135982D01*
X194621622Y-87250997D01*
X194621620Y-87250998D01*
X194307881Y-87402086D01*
X194307869Y-87402092D01*
X194012999Y-87587372D01*
X194012996Y-87587374D01*
X193740747Y-87804484D01*
X193494484Y-88050747D01*
X193277374Y-88322996D01*
X193277372Y-88322999D01*
X193092092Y-88617869D01*
X193092090Y-88617874D01*
X192998696Y-88811810D01*
X192956413Y-88856034D01*
X192896211Y-88866959D01*
X192841085Y-88840412D01*
X192812091Y-88786532D01*
X192810500Y-88768855D01*
X192810500Y-33471144D01*
X192829407Y-33412953D01*
X192878907Y-33376989D01*
X192940093Y-33376989D01*
X192989593Y-33412953D01*
X192998696Y-33428190D01*
X193092086Y-33622118D01*
X193092092Y-33622130D01*
X193092094Y-33622133D01*
X193227988Y-33838407D01*
X193277372Y-33917000D01*
X193277374Y-33917003D01*
X193494484Y-34189252D01*
X193494490Y-34189258D01*
X193494494Y-34189263D01*
X193740737Y-34435506D01*
X193740741Y-34435509D01*
X193740747Y-34435515D01*
X194012996Y-34652625D01*
X194013000Y-34652627D01*
X194013003Y-34652630D01*
X194307867Y-34837906D01*
X194307869Y-34837907D01*
X194307881Y-34837913D01*
X194412121Y-34888112D01*
X194621621Y-34989002D01*
X194775062Y-35042693D01*
X194950315Y-35104017D01*
X194950318Y-35104017D01*
X194950319Y-35104018D01*
X195289829Y-35181509D01*
X195383144Y-35192023D01*
X195635863Y-35220499D01*
X195635879Y-35220499D01*
X195635880Y-35220500D01*
X195635881Y-35220500D01*
X195984119Y-35220500D01*
X195984120Y-35220500D01*
X195984121Y-35220499D01*
X195984136Y-35220499D01*
X196205749Y-35195528D01*
X196330171Y-35181509D01*
X196669681Y-35104018D01*
X196998379Y-34989002D01*
X197312133Y-34837906D01*
X197606997Y-34652630D01*
X197804660Y-34495000D01*
X197879252Y-34435515D01*
X197879253Y-34435513D01*
X197879263Y-34435506D01*
X198125506Y-34189263D01*
X198342630Y-33916997D01*
X198527906Y-33622133D01*
X198679002Y-33308379D01*
X198794018Y-32979681D01*
X198871509Y-32640171D01*
X198885528Y-32515749D01*
X198910499Y-32294136D01*
X198910500Y-32294119D01*
X198910500Y-31945880D01*
X198910499Y-31945863D01*
X198871509Y-31599832D01*
X198871508Y-31599826D01*
X198828885Y-31413084D01*
X198794018Y-31260319D01*
X198773571Y-31201886D01*
X198710567Y-31021830D01*
X198679002Y-30931621D01*
X198578112Y-30722121D01*
X198527913Y-30617881D01*
X198527907Y-30617869D01*
X198415701Y-30439295D01*
X198342630Y-30323003D01*
X198342627Y-30322999D01*
X198342625Y-30322996D01*
X198125515Y-30050747D01*
X198125509Y-30050741D01*
X198125506Y-30050737D01*
X197879263Y-29804494D01*
X197879258Y-29804490D01*
X197879252Y-29804484D01*
X197607003Y-29587374D01*
X197607000Y-29587372D01*
X197312130Y-29402092D01*
X197312125Y-29402090D01*
X197118190Y-29308696D01*
X197073966Y-29266413D01*
X197063041Y-29206211D01*
X197089588Y-29151085D01*
X197143468Y-29122091D01*
X197161145Y-29120500D01*
X217458855Y-29120500D01*
X217517046Y-29139407D01*
G37*
G04 #@! TD.AperFunction*
G04 #@! TA.AperFunction,Conductor*
G36*
X218887108Y-70668817D02*
G01*
X218892878Y-70676759D01*
X219004277Y-70847268D01*
X219004280Y-70847271D01*
X219156756Y-71012903D01*
X219156762Y-71012908D01*
X219325396Y-71144162D01*
X219334424Y-71151189D01*
X219334428Y-71151191D01*
X219416398Y-71195551D01*
X219458577Y-71239875D01*
X219466647Y-71300526D01*
X219437526Y-71354337D01*
X219411122Y-71372342D01*
X219402429Y-71376395D01*
X219402420Y-71376401D01*
X219358647Y-71407050D01*
X219300135Y-71424938D01*
X219242283Y-71405017D01*
X219231861Y-71395957D01*
X218699222Y-70863318D01*
X218671445Y-70808801D01*
X218681016Y-70748369D01*
X218686339Y-70739178D01*
X218727121Y-70676757D01*
X218774776Y-70638385D01*
X218835886Y-70635351D01*
X218887108Y-70668817D01*
G37*
G04 #@! TD.AperFunction*
G04 #@! TA.AperFunction,Conductor*
G36*
X218873211Y-68111915D02*
G01*
X218888578Y-68130177D01*
X219004277Y-68307268D01*
X219004280Y-68307271D01*
X219156756Y-68472903D01*
X219156762Y-68472908D01*
X219325284Y-68604075D01*
X219334424Y-68611189D01*
X219364324Y-68627370D01*
X219411558Y-68652932D01*
X219453736Y-68697257D01*
X219461806Y-68757908D01*
X219432685Y-68811718D01*
X219411558Y-68827068D01*
X219334423Y-68868811D01*
X219334420Y-68868813D01*
X219156762Y-69007091D01*
X219156756Y-69007096D01*
X219004280Y-69172728D01*
X219004277Y-69172731D01*
X218892879Y-69343240D01*
X218845224Y-69381614D01*
X218784114Y-69384648D01*
X218732891Y-69351182D01*
X218727121Y-69343240D01*
X218615722Y-69172731D01*
X218615719Y-69172728D01*
X218463243Y-69007096D01*
X218463237Y-69007091D01*
X218285579Y-68868813D01*
X218285576Y-68868811D01*
X218203601Y-68824448D01*
X218161423Y-68780123D01*
X218153353Y-68719472D01*
X218182474Y-68665662D01*
X218208886Y-68647653D01*
X218217577Y-68643600D01*
X218411073Y-68508113D01*
X218578113Y-68341073D01*
X218713600Y-68147577D01*
X218715971Y-68142493D01*
X218757696Y-68097742D01*
X218817756Y-68086062D01*
X218873211Y-68111915D01*
G37*
G04 #@! TD.AperFunction*
G04 #@! TA.AperFunction,Conductor*
G36*
X218887109Y-50348816D02*
G01*
X218892870Y-50356746D01*
X218949284Y-50443093D01*
X219004282Y-50527274D01*
X219156756Y-50692903D01*
X219156762Y-50692908D01*
X219334420Y-50831186D01*
X219334424Y-50831189D01*
X219334428Y-50831191D01*
X219416398Y-50875551D01*
X219458577Y-50919875D01*
X219466647Y-50980526D01*
X219437526Y-51034337D01*
X219411122Y-51052342D01*
X219402429Y-51056395D01*
X219402424Y-51056398D01*
X219208926Y-51191886D01*
X219041886Y-51358926D01*
X218906398Y-51552424D01*
X218906398Y-51552425D01*
X218904021Y-51557522D01*
X218862288Y-51602266D01*
X218802226Y-51613935D01*
X218746775Y-51588072D01*
X218731422Y-51569824D01*
X218615722Y-51392732D01*
X218615720Y-51392730D01*
X218615717Y-51392725D01*
X218463243Y-51227096D01*
X218463237Y-51227091D01*
X218285579Y-51088813D01*
X218285576Y-51088811D01*
X218236244Y-51062114D01*
X218208440Y-51047067D01*
X218166263Y-51002744D01*
X218158193Y-50942093D01*
X218187314Y-50888282D01*
X218208441Y-50872932D01*
X218285576Y-50831189D01*
X218463240Y-50692906D01*
X218498132Y-50655004D01*
X218615717Y-50527274D01*
X218615718Y-50527272D01*
X218615722Y-50527268D01*
X218727121Y-50356757D01*
X218774776Y-50318385D01*
X218835886Y-50315351D01*
X218887109Y-50348816D01*
G37*
G04 #@! TD.AperFunction*
G04 #@! TA.AperFunction,Conductor*
G36*
X216344782Y-43722410D02*
G01*
X216356595Y-43732499D01*
X216380776Y-43756680D01*
X216408553Y-43811197D01*
X216398982Y-43871629D01*
X216393652Y-43880831D01*
X216341140Y-43961208D01*
X216315654Y-44019312D01*
X216250704Y-44167384D01*
X216230158Y-44248517D01*
X216195435Y-44385633D01*
X216176844Y-44610000D01*
X216195435Y-44834366D01*
X216206211Y-44876919D01*
X216250704Y-45052616D01*
X216341140Y-45258791D01*
X216448036Y-45422407D01*
X216464282Y-45447274D01*
X216616756Y-45612903D01*
X216616762Y-45612908D01*
X216794420Y-45751186D01*
X216794424Y-45751189D01*
X216794428Y-45751191D01*
X216876398Y-45795551D01*
X216918577Y-45839875D01*
X216926647Y-45900526D01*
X216897526Y-45954337D01*
X216871122Y-45972342D01*
X216862429Y-45976395D01*
X216862424Y-45976398D01*
X216668926Y-46111886D01*
X216501886Y-46278926D01*
X216366398Y-46472424D01*
X216366394Y-46472432D01*
X216266570Y-46686505D01*
X216209364Y-46900000D01*
X217106988Y-46900000D01*
X217074075Y-46957007D01*
X217040000Y-47084174D01*
X217040000Y-47215826D01*
X217074075Y-47342993D01*
X217106988Y-47400000D01*
X216209364Y-47400000D01*
X216266569Y-47613489D01*
X216366399Y-47827577D01*
X216501886Y-48021073D01*
X216668926Y-48188113D01*
X216862423Y-48323601D01*
X216871115Y-48327654D01*
X216915865Y-48369381D01*
X216927541Y-48429442D01*
X216901685Y-48484896D01*
X216876399Y-48504447D01*
X216794428Y-48548808D01*
X216794420Y-48548813D01*
X216616762Y-48687091D01*
X216616756Y-48687096D01*
X216464282Y-48852725D01*
X216443198Y-48884997D01*
X216341140Y-49041209D01*
X216250704Y-49247384D01*
X216223070Y-49356508D01*
X216195435Y-49465633D01*
X216176844Y-49690000D01*
X216195435Y-49914366D01*
X216195436Y-49914368D01*
X216250704Y-50132616D01*
X216341140Y-50338791D01*
X216409284Y-50443093D01*
X216464282Y-50527274D01*
X216616756Y-50692903D01*
X216616762Y-50692908D01*
X216794420Y-50831186D01*
X216794424Y-50831189D01*
X216817450Y-50843650D01*
X216871558Y-50872932D01*
X216913736Y-50917257D01*
X216921806Y-50977908D01*
X216892685Y-51031718D01*
X216871558Y-51047068D01*
X216794423Y-51088811D01*
X216794420Y-51088813D01*
X216616762Y-51227091D01*
X216616756Y-51227096D01*
X216464282Y-51392725D01*
X216436058Y-51435926D01*
X216360452Y-51551649D01*
X216312798Y-51590022D01*
X216277574Y-51596500D01*
X214393717Y-51596500D01*
X214335526Y-51577593D01*
X214323713Y-51567504D01*
X214214736Y-51458527D01*
X214186959Y-51404010D01*
X214186288Y-51398919D01*
X214168542Y-51230072D01*
X214109527Y-51048444D01*
X214109524Y-51048439D01*
X214109522Y-51048434D01*
X214045959Y-50938342D01*
X214014040Y-50883056D01*
X213886253Y-50741134D01*
X213731752Y-50628882D01*
X213731748Y-50628880D01*
X213731741Y-50628876D01*
X213557294Y-50551208D01*
X213557289Y-50551206D01*
X213557288Y-50551206D01*
X213557285Y-50551205D01*
X213557284Y-50551205D01*
X213521755Y-50543653D01*
X213370487Y-50511500D01*
X213370484Y-50511500D01*
X213282500Y-50511500D01*
X213224309Y-50492593D01*
X213188345Y-50443093D01*
X213183500Y-50412500D01*
X213183500Y-44077503D01*
X213202407Y-44019312D01*
X213251907Y-43983348D01*
X213282500Y-43978503D01*
X213370484Y-43978503D01*
X213370487Y-43978503D01*
X213557288Y-43938797D01*
X213731752Y-43861121D01*
X213886253Y-43748869D01*
X213897607Y-43736258D01*
X213950595Y-43705666D01*
X213971178Y-43703503D01*
X216286591Y-43703503D01*
X216344782Y-43722410D01*
G37*
G04 #@! TD.AperFunction*
M02*
